<svg width="100" height="86" xmlns="http://www.w3.org/2000/svg">
  <g fill="#CFD8DF" fill-rule="evenodd">
    <path d="M91.4893617 6.92342574h-35.106383c-.8814893 0-1.5957447.71460891-1.5957447 1.59653466 0 .88192574.7142554 1.5965346 1.5957447 1.5965346h35.106383c2.9329787 0 5.3191489 2.3873515 5.3191489 5.3217822v1.8749703c-1.4582978-1.1716435-3.3076595-1.8749703-5.3191489-1.8749703h-39.893617V8.5199604c0-4.69508911-3.8178724-8.51485149-8.5106383-8.51485149H8.5106383C3.81787234.00510891 0 3.8248713 0 8.5199604v75.8781832c0 .8819257.71425532 1.5965346 1.59574468 1.5965346H98.4042553c.8814894 0 1.5957447-.7146089 1.5957447-1.5965346V15.4382772c0-4.6948762-3.8178723-8.51485146-8.5106383-8.51485146zm5.3191489 75.87839606H3.19148936V8.5199604c0-2.9344307 2.38617021-5.32178218 5.31914894-5.32178218h34.5744681c2.9329787 0 5.3191489 2.38735148 5.3191489 5.32178218v8.5148515c0 .8819257.7142553 1.5965346 1.5957447 1.5965346h41.4893617c2.9329787 0 5.3191489 2.3873515 5.3191489 5.3217822v58.8486931z" fill-rule="nonzero"/>
    <path d="M71.7485106 49.3571881c4.4017022 0 7.982766-3.5828366 7.982766-7.9867178 0-4.4038812-3.5810638-7.986505-7.982766-7.986505-4.4017021 0-7.9825532 3.5826238-7.9825532 7.986505 0 4.4038812 3.5808511 7.9867178 7.9825532 7.9867178zm0-12.7799406c2.6419149 0 4.7912766 2.1504258 4.7912766 4.7934357 0 2.6432227-2.1493617 4.7936485-4.7912766 4.7936485-2.6417021 0-4.7910638-2.1504258-4.7910638-4.7936485 0-2.6430099 2.1493617-4.7934357 4.7910638-4.7934357z" fill-rule="nonzero"/>
    <path d="M71.7485106 52.5502574c-2.1661702 0-4.3142553.5381386-6.2123404 1.5567277-.7765957.4165892-1.0687234 1.384302-.6521276 2.1612822.4163829.7767674 1.3831914 1.0698911 2.1602127.6524505 1.4359575-.7701683 3.062766-1.1773911 4.7042553-1.1773911 4.9602128 0 9.0868085 3.6392476 9.8531915 8.3886188h-9.8531915c-.8814893 0-1.5957446.714609-1.5957446 1.5965347s.7142553 1.5965347 1.5957446 1.5965347h11.5761703c.8814893 0 1.5957446-.714609 1.5957446-1.5965347 0-7.2663614-5.9089361-13.1782228-13.1719149-13.1782228zM28.3931915 64.1319455h-9.9946809c.766383-4.7495841 4.8929788-8.3886188 9.8531915-8.3886188 1.6414894 0 3.2678724.4070099 4.7034043 1.1769654.7768085.4174406 1.7442553.1247426 2.1602127-.6524505.4165958-.7769802.1244681-1.7446931-.6521276-2.1612822-1.8976596-1.0181634-4.0457447-1.556302-6.2114894-1.556302-7.2631915 0-13.1719149 5.9116485-13.1719149 13.1782228 0 .8819257.7142554 1.5965347 1.5957447 1.5965347h11.7178724c.8814893 0 1.5957446-.714609 1.5957446-1.5965347s-.714468-1.5965347-1.5959574-1.5965347z"/>
    <path d="M28.2514894 49.3571881c4.4017021 0 7.9825532-3.5828366 7.9825532-7.9867178 0-4.4038812-3.5808511-7.986505-7.9825532-7.986505-4.4017022 0-7.982766 3.5826238-7.982766 7.986505 0 4.4038812 3.5812766 7.9867178 7.982766 7.9867178zm0-12.7799406c2.6417021 0 4.7910638 2.1504258 4.7910638 4.7934357 0 2.6432227-2.1493617 4.7936485-4.7910638 4.7936485-2.6419149 0-4.7912766-2.1504258-4.7912766-4.7936485.0002127-2.6430099 2.1493617-4.7934357 4.7912766-4.7934357zM50 49.9342822c5.667234 0 10.2778723-4.6129208 10.2778723-10.2829604S55.667234 29.3683614 50 29.3683614c-5.667234 0-10.2778723 4.6129208-10.2778723 10.2829604S44.332766 49.9342822 50 49.9342822zm0-17.3726386c3.9074468 0 7.086383 3.180297 7.086383 7.0898911 0 3.909594-3.1787234 7.089891-7.086383 7.089891-3.9076596 0-7.086383-3.180297-7.086383-7.089891 0-3.9095941 3.1789362-7.0898911 7.086383-7.0898911zM50 53.1273515c-9.5568085 0-17.3319149 7.7789554-17.3319149 17.3407079 0 .8819257.7142553 1.5965347 1.5957447 1.5965347H65.736383c.8814893 0 1.5957447-.714609 1.5957447-1.5965347 0-9.5617525-7.7751064-17.3407079-17.3321277-17.3407079zM35.9491489 68.8715248C36.7438298 61.8188861 42.7421277 56.3204208 50 56.3204208c7.2578723 0 13.256383 5.4984653 14.0510638 12.551104H35.9491489z" fill-rule="nonzero"/>
  </g>
</svg>
