<svg width="107" height="100" xmlns="http://www.w3.org/2000/svg">
  <g fill="#CFD8DF" fill-rule="nonzero">
    <path d="M25.8864173.09453782C11.3740157.09453782 0 6.14495798 0 13.855042v72.289916c0 7.7310924 11.3740157 13.7605042 25.8864173 13.7605042 14.5124016 0 25.8864173-6.0504202 25.8864173-13.7605042V13.855042c0-7.71008402-11.3740157-13.76050418-25.8864173-13.76050418zM48.3185039 86.1659664c0 4.9789916-9.0149606 10.3361344-22.4320866 10.3361344-13.417126 0-22.43208659-5.3571428-22.43208659-10.3361344v-3.382353c4.42322835 4.1176471 12.72204729 6.8277311 22.43208659 6.8277311 9.7100394 0 18.0088583-2.710084 22.4320866-6.8277311v3.382353zm0-10.3361345c0 4.9789916-9.0149606 10.3361345-22.4320866 10.3361345-13.417126 0-22.43208659-5.3571429-22.43208659-10.3361345V72.447479c4.42322835 4.1176471 12.72204729 6.8277311 22.43208659 6.8277311 9.7100394 0 18.0088583-2.710084 22.4320866-6.8277311v3.3823529zm0-10.3361344c0 4.9789916-9.0149606 10.3361344-22.4320866 10.3361344-13.417126 0-22.43208659-5.3361344-22.43208659-10.3361344v-3.382353c4.42322835 4.1176471 12.72204729 6.8277311 22.43208659 6.8277311 9.7100394 0 18.0088583-2.710084 22.4320866-6.8277311v3.382353zm0-10.3151261c0 4.9789916-9.0149606 10.3361345-22.4320866 10.3361345-13.417126 0-22.43208659-5.3571429-22.43208659-10.3361345v-3.3823529c4.42322835 4.0966386 12.72204729 6.8277311 22.43208659 6.8277311 9.7100394 0 18.0088583-2.7100841 22.4320866-6.8277311v3.3823529zm0-10.3361344c0 4.9789916-9.0149606 10.3361344-22.4320866 10.3361344-13.417126 0-22.43208659-5.3361344-22.43208659-10.3361344v-3.382353c4.42322835 4.1176471 12.72204729 6.8277311 22.43208659 6.8277311 9.7100394 0 18.0088583-2.710084 22.4320866-6.8277311v3.382353zm0-10.3151261c0 4.9789916-9.0149606 10.3361345-22.4320866 10.3361345-13.417126 0-22.43208659-5.3571429-22.43208659-10.3361345V31.144958c4.42322835 4.117647 12.72204729 6.8277311 22.43208659 6.8277311 9.7100394 0 18.0088583-2.7100841 22.4320866-6.8277311v3.3823529zm0-10.3361344c0 4.9789916-9.0149606 10.3361344-22.4320866 10.3361344-13.417126 0-22.43208659-5.3571428-22.43208659-10.3361344v-3.382353c4.42322835 4.1176471 12.72204729 6.8277311 22.43208659 6.8277311 9.7100394 0 18.0088583-2.710084 22.4320866-6.8277311v3.382353zm-22.4320866 0c-13.417126 0-22.43208659-5.3361345-22.43208659-10.3361345 0-4.97899158 9.01496059-10.33613444 22.43208659-10.33613444 13.417126 0 22.4320866 5.33613446 22.4320866 10.33613444 0 5-9.0149606 10.3361345-22.4320866 10.3361345zM81.1135827 41.3970588c-14.5124016 0-25.8864173 6.0504202-25.8864173 13.7605042v30.987395c0 7.7310924 11.3740157 13.7605042 25.8864173 13.7605042C95.6259843 99.9054622 107 93.8760504 107 86.1659664v-30.987395c0-7.7310924-11.3740157-13.7815126-25.8864173-13.7815126zm22.4320863 44.7689076c0 4.9789916-9.0149603 10.3361344-22.4320863 10.3361344-13.417126 0-22.4320866-5.3361344-22.4320866-10.3361344v-3.382353c4.4232283 4.1176471 12.7220472 6.8277311 22.4320866 6.8277311 9.7100393 0 18.0088582-2.710084 22.4320863-6.8277311v3.382353zm0-10.3361345c0 4.9789916-9.0149603 10.3361345-22.4320863 10.3361345-13.417126 0-22.4320866-5.3361345-22.4320866-10.3361345V72.447479c4.4232283 4.1176471 12.7220472 6.8277311 22.4320866 6.8277311 9.7100393 0 18.0088582-2.710084 22.4320863-6.8277311v3.3823529zm0-10.3361344c0 4.9789916-9.0149603 10.3361344-22.4320863 10.3361344-13.417126 0-22.4320866-5.3361344-22.4320866-10.3361344v-3.382353c4.4232283 4.1176471 12.7220472 6.8277311 22.4320866 6.8277311 9.7100393 0 18.0088582-2.710084 22.4320863-6.8277311v3.382353zm-22.4320863 0c-13.417126 0-22.4320866-5.3361345-22.4320866-10.3361345 0-4.9789916 9.0149606-10.3361344 22.4320866-10.3361344 13.417126 0 22.4320863 5.3361344 22.4320863 10.3361344 0 5-9.0149603 10.3361345-22.4320863 10.3361345z"/>
  </g>
</svg>
