<?xml version="1.0" encoding="UTF-8"?>
<svg width="97px" height="75px" viewBox="0 0 97 75" version="1.1" xmlns="http://www.w3.org/2000/svg" xmlns:xlink="http://www.w3.org/1999/xlink">
    <!-- Generator: Sketch 53.1 (72631) - https://sketchapp.com -->
    <title>Group</title>
    <desc>Created with Sketch.</desc>
    <g id="My-Profile" stroke="none" stroke-width="1" fill="none" fill-rule="evenodd">
        <g id="0X-PAYMENT-step-1" transform="translate(-49.000000, -291.000000)">
            <g id="provider-3" transform="translate(16.000000, 251.000000)">
                <g id="Group" transform="translate(33.000000, 40.000000)">
                    <path d="M11.69875,70.8 L12.63875,72.64 C12.1987478,73.106669 11.5687541,73.4866652 10.74875,73.78 C9.9287459,74.0733348 9.0654212,74.22 8.15875,74.22 C6.0120726,74.22 4.27209,73.5600066 2.93875,72.24 C1.60541,70.9199934 0.93875,69.1733442 0.93875,67 C0.93875,64.9066562 1.572077,63.1800068 2.83875,61.82 C4.105423,60.4599932 5.8587388,59.78 8.09875,59.78 C9.898759,59.78 11.3187448,60.2533286 12.35875,61.2 L11.25875,63.02 C10.3120786,62.3933302 9.2587558,62.08 8.09875,62.08 C6.7787434,62.08 5.6887543,62.5266622 4.82875,63.42 C3.9687457,64.3133378 3.53875,65.5066592 3.53875,67 C3.53875,68.4533406 3.9887455,69.6366621 4.88875,70.55 C5.7887545,71.4633379 6.9520762,71.92 8.37875,71.92 C9.6187562,71.92 10.7254118,71.5466704 11.69875,70.8 Z M14.30625,74 L14.30625,65 L16.60625,65 L16.60625,65.88 C17.1129192,65.1866632 17.799579,64.84 18.66625,64.84 C19.2929198,64.84 19.7595818,64.9533322 20.06625,65.18 L19.24625,67.34 C18.8595814,67.1133322 18.4729186,67 18.08625,67 C17.41958,67 16.9262516,67.3199968 16.60625,67.96 L16.60625,74 L14.30625,74 Z M28.33375,71.48 L28.99375,73.1 C28.1137456,73.8466704 26.9670904,74.22 25.55375,74.22 C24.1004094,74.22 22.9304211,73.786671 22.04375,72.92 C21.1570789,72.053329 20.71375,70.9133404 20.71375,69.5 C20.71375,68.1533266 21.147079,67.0300045 22.01375,66.13 C22.880421,65.2299955 24.0337428,64.78 25.47375,64.78 C26.6604226,64.78 27.6670792,65.1699961 28.49375,65.95 C29.3204208,66.7300039 29.73375,67.7333272 29.73375,68.96 C29.73375,69.4666692 29.6870838,69.8799984 29.59375,70.2 L23.09375,70.2 C23.1870838,70.86667 23.4804142,71.3833315 23.97375,71.75 C24.4670858,72.1166685 25.0737464,72.3 25.79375,72.3 C26.8070884,72.3 27.6537466,72.0266694 28.33375,71.48 Z M25.37375,66.7 C24.0670768,66.7 23.280418,67.3533268 23.01375,68.66 L27.43375,68.66 C27.4470834,68.0999972 27.2670852,67.6333352 26.89375,67.26 C26.5204148,66.8866648 26.0137532,66.7 25.37375,66.7 Z M37.74125,74 L37.74125,73.06 C37.0479132,73.793337 36.1879218,74.16 35.16125,74.16 C33.8812436,74.16 32.8545872,73.7433375 32.08125,72.91 C31.3079128,72.0766625 30.92125,70.9733402 30.92125,69.6 C30.92125,68.1866596 31.3812454,67.0300045 32.30125,66.13 C33.2212546,65.2299955 34.4079094,64.78 35.86125,64.78 C36.6212538,64.78 37.2479142,64.9266652 37.74125,65.22 L37.74125,60 L40.04125,60 L40.04125,74 L37.74125,74 Z M35.64125,72.02 C36.4279206,72.02 37.1279136,71.7133364 37.74125,71.1 L37.74125,67.48 C37.1679138,67.1199982 36.5745864,66.94 35.96125,66.94 C35.2412464,66.94 34.6312525,67.1699977 34.13125,67.63 C33.6312475,68.0900023 33.38125,68.719996 33.38125,69.52 C33.38125,70.2933372 33.5979145,70.9033311 34.03125,71.35 C34.4645855,71.7966689 35.0012468,72.02 35.64125,72.02 Z M42.82875,74 L42.82875,65 L45.12875,65 L45.12875,74 L42.82875,74 Z M42.58875,61.76 C42.58875,61.359998 42.7287486,61.0366679 43.00875,60.79 C43.2887514,60.5433321 43.628748,60.42 44.02875,60.42 C44.3754184,60.42 44.682082,60.5433321 44.94875,60.79 C45.215418,61.0366679 45.34875,61.359998 45.34875,61.76 C45.34875,62.2000022 45.215418,62.5499987 44.94875,62.81 C44.682082,63.0700013 44.3754184,63.2 44.02875,63.2 C43.6154146,63.2 43.2720847,63.0700013 42.99875,62.81 C42.7254153,62.5499987 42.58875,62.2000022 42.58875,61.76 Z M47.71625,70.58 L47.71625,62.5 L50.01625,62.5 L50.01625,65 L52.91625,65 L52.91625,67.16 L50.01625,67.16 L50.01625,70.44 C50.01625,71.5200054 50.3762464,72.06 51.09625,72.06 C51.5495856,72.06 52.009581,71.8866684 52.47625,71.54 L53.17625,73.32 C52.4562464,73.9066696 51.5695886,74.2 50.51625,74.2 C49.5295784,74.2 48.8162522,73.8966697 48.37625,73.29 C47.9362478,72.6833303 47.71625,71.780006 47.71625,70.58 Z M69.51125,70.8 L70.45125,72.64 C70.0112478,73.106669 69.3812541,73.4866652 68.56125,73.78 C67.7412459,74.0733348 66.8779212,74.22 65.97125,74.22 C63.8245726,74.22 62.08459,73.5600066 60.75125,72.24 C59.41791,70.9199934 58.75125,69.1733442 58.75125,67 C58.75125,64.9066562 59.384577,63.1800068 60.65125,61.82 C61.917923,60.4599932 63.6712388,59.78 65.91125,59.78 C67.711259,59.78 69.1312448,60.2533286 70.17125,61.2 L69.07125,63.02 C68.1245786,62.3933302 67.0712558,62.08 65.91125,62.08 C64.5912434,62.08 63.5012543,62.5266622 62.64125,63.42 C61.7812457,64.3133378 61.35125,65.5066592 61.35125,67 C61.35125,68.4533406 61.8012455,69.6366621 62.70125,70.55 C63.6012545,71.4633379 64.7645762,71.92 66.19125,71.92 C67.4312562,71.92 68.5379118,71.5466704 69.51125,70.8 Z M72.81875,67.32 L72.23875,65.64 C73.2120882,65.0666638 74.2720776,64.78 75.41875,64.78 C76.6987564,64.78 77.6187472,65.0933302 78.17875,65.72 C78.7387528,66.3466698 79.01875,67.2799938 79.01875,68.52 L79.01875,74 L77.01875,74 L77.01875,72.96 C76.4720806,73.7333372 75.5854228,74.12 74.35875,74.12 C73.5187458,74.12 72.8387526,73.8733358 72.31875,73.38 C71.7987474,72.8866642 71.53875,72.2133376 71.53875,71.36 C71.53875,70.4133286 71.8454136,69.6900025 72.45875,69.19 C73.0720864,68.6899975 73.8587452,68.44 74.81875,68.44 C75.6454208,68.44 76.325414,68.6333314 76.85875,69.02 C76.8854168,68.2333294 76.7720846,67.6500019 76.51875,67.27 C76.2654154,66.8899981 75.8187532,66.7 75.17875,66.7 C74.51208,66.7 73.7254212,66.9066646 72.81875,67.32 Z M75.11875,72.18 C75.8920872,72.18 76.4720814,71.9066694 76.85875,71.36 L76.85875,70.44 C76.4720814,70.1466652 75.94542,70 75.27875,70 C74.8654146,70 74.5220847,70.0966657 74.24875,70.29 C73.9754153,70.4833343 73.83875,70.7599982 73.83875,71.12 C73.83875,71.453335 73.9587488,71.7133324 74.19875,71.9 C74.4387512,72.0866676 74.7454148,72.18 75.11875,72.18 Z M81.26625,74 L81.26625,65 L83.56625,65 L83.56625,65.88 C84.0729192,65.1866632 84.759579,64.84 85.62625,64.84 C86.2529198,64.84 86.7195818,64.9533322 87.02625,65.18 L86.20625,67.34 C85.8195814,67.1133322 85.4329186,67 85.04625,67 C84.37958,67 83.8862516,67.3199968 83.56625,67.96 L83.56625,74 L81.26625,74 Z M94.49375,74 L94.49375,73.06 C93.8004132,73.793337 92.9404218,74.16 91.91375,74.16 C90.6337436,74.16 89.6070872,73.7433375 88.83375,72.91 C88.0604128,72.0766625 87.67375,70.9733402 87.67375,69.6 C87.67375,68.1866596 88.1337454,67.0300045 89.05375,66.13 C89.9737546,65.2299955 91.1604094,64.78 92.61375,64.78 C93.3737538,64.78 94.0004142,64.9266652 94.49375,65.22 L94.49375,60 L96.79375,60 L96.79375,74 L94.49375,74 Z M92.39375,72.02 C93.1804206,72.02 93.8804136,71.7133364 94.49375,71.1 L94.49375,67.48 C93.9204138,67.1199982 93.3270864,66.94 92.71375,66.94 C91.9937464,66.94 91.3837525,67.1699977 90.88375,67.63 C90.3837475,68.0900023 90.13375,68.719996 90.13375,69.52 C90.13375,70.2933372 90.3504145,70.9033311 90.78375,71.35 C91.2170855,71.7966689 91.7537468,72.02 92.39375,72.02 Z" id="CreditCard" fill="#58A98D" fill-rule="nonzero"></path>
                    <g id="card" transform="translate(17.000000, 0.000000)">
                        <path d="M60.4502069,46 L3.5497931,46 C1.58786207,46 0,44.4228571 0,42.476619 L0,3.52338095 C0,1.57714286 1.58786207,0 3.5497931,0 L60.4502069,0 C62.4110345,0 64,1.57714286 64,3.52338095 L64,42.476619 C64,44.4228571 62.4110345,46 60.4502069,46" id="XMLID_130_" fill="#6BBEA1"></path>
                        <rect id="XMLID_129_" fill="#498679" x="5.51724138" y="31.7619048" width="9.93103448" height="6.57142857"></rect>
                        <rect id="XMLID_128_" fill="#498679" x="19.862069" y="31.7619048" width="9.93103448" height="6.57142857"></rect>
                        <rect id="XMLID_127_" fill="#498679" x="34.2068966" y="31.7619048" width="9.93103448" height="6.57142857"></rect>
                        <rect id="XMLID_126_" fill="#498679" x="48.5517241" y="31.7619048" width="9.93103448" height="6.57142857"></rect>
                        <path d="M21.7875862,19.7142857 L6.90206897,19.7142857 C6.13848276,19.7142857 5.51724138,19.0987619 5.51724138,18.3397619 L5.51724138,7.94595238 C5.51724138,7.18695238 6.13848276,6.57142857 6.90206897,6.57142857 L21.7875862,6.57142857 C22.5522759,6.57142857 23.1724138,7.18695238 23.1724138,7.94595238 L23.1724138,18.3397619 C23.1724138,19.0987619 22.5522759,19.7142857 21.7875862,19.7142857" id="XMLID_125_" fill="#F0C41B"></path>
                        <path d="M21.7875862,20.8095238 L6.90206897,20.8095238 C5.53048276,20.8095238 4.4137931,19.7011429 4.4137931,18.3397619 L4.4137931,7.94595238 C4.4137931,6.58457143 5.53048276,5.47619048 6.90206897,5.47619048 L21.7875862,5.47619048 C23.1591724,5.47619048 24.2758621,6.58457143 24.2758621,7.94595238 L24.2758621,18.3397619 C24.2758621,19.7011429 23.1591724,20.8095238 21.7875862,20.8095238 L21.7875862,20.8095238 Z M6.90206897,7.66666667 C6.74537931,7.66666667 6.62068966,7.79152381 6.62068966,7.94595238 L6.62068966,18.3397619 C6.62068966,18.4941905 6.74537931,18.6190476 6.90206897,18.6190476 L21.7875862,18.6190476 C21.9431724,18.6190476 22.0689655,18.4941905 22.0689655,18.3397619 L22.0689655,7.94595238 C22.0689655,7.79152381 21.9431724,7.66666667 21.7875862,7.66666667 L6.90206897,7.66666667 Z" id="XMLID_122_" fill="#F3D55C" fill-rule="nonzero"></path>
                        <path d="M23.1724138,7.94595238 C23.1724138,7.18585714 22.5522759,6.57142857 21.7875862,6.57142857 L16.5517241,6.57142857 L13.5227586,6.57142857 C12.7569655,6.57142857 12.137931,7.18585714 12.137931,7.94595238 L12.137931,10.952381 L12.137931,18.3397619 C12.137931,19.0987619 12.7569655,19.7142857 13.5227586,19.7142857 L15.1668966,19.7142857 C15.9315862,19.7142857 16.5517241,19.0987619 16.5517241,18.3397619 L16.5517241,12.3269048 C16.5517241,11.5679048 17.1707586,10.952381 17.9365517,10.952381 L21.7875862,10.952381 C22.5522759,10.952381 23.1724138,10.3368571 23.1724138,9.57785714 L23.1724138,7.94595238 Z" id="XMLID_121_" fill="#F0C41B"></path>
                        <path d="M15.1668966,20.8095238 L13.5227586,20.8095238 C12.1511724,20.8095238 11.0344828,19.7011429 11.0344828,18.3397619 L11.0344828,7.94595238 C11.0344828,6.58457143 12.1511724,5.47619048 13.5227586,5.47619048 L21.7875862,5.47619048 C23.1591724,5.47619048 24.2758621,6.58457143 24.2758621,7.94595238 L24.2758621,9.57785714 C24.2758621,10.9392381 23.1591724,12.047619 21.7875862,12.047619 L17.9365517,12.047619 C17.7798621,12.047619 17.6551724,12.1724762 17.6551724,12.3269048 L17.6551724,18.3397619 C17.6551724,19.7011429 16.5384828,20.8095238 15.1668966,20.8095238 L15.1668966,20.8095238 Z M13.5227586,7.66666667 C13.366069,7.66666667 13.2413793,7.79152381 13.2413793,7.94595238 L13.2413793,18.3397619 C13.2413793,18.4941905 13.366069,18.6190476 13.5227586,18.6190476 L15.1668966,18.6190476 C15.3224828,18.6190476 15.4482759,18.4941905 15.4482759,18.3397619 L15.4482759,12.3269048 C15.4482759,10.9655238 16.5649655,9.85714286 17.9365517,9.85714286 L21.7875862,9.85714286 C21.9431724,9.85714286 22.0689655,9.73228571 22.0689655,9.57785714 L22.0689655,7.94595238 C22.0689655,7.79152381 21.9431724,7.66666667 21.7875862,7.66666667 L13.5227586,7.66666667 Z" id="XMLID_118_" fill="#F3D55C" fill-rule="nonzero"></path>
                        <path d="M16.5517241,15.3333333 L23.1724138,15.3333333" id="XMLID_117_" fill="#F0C41B"></path>
                        <path d="M23.1724138,16.4285714 L16.5517241,16.4285714 C15.9415172,16.4285714 15.4482759,15.9379048 15.4482759,15.3333333 C15.4482759,14.7287619 15.9415172,14.2380952 16.5517241,14.2380952 L23.1724138,14.2380952 C23.7826207,14.2380952 24.2758621,14.7287619 24.2758621,15.3333333 C24.2758621,15.9379048 23.7826207,16.4285714 23.1724138,16.4285714" id="XMLID_116_" fill="#F3D55C"></path>
                        <path d="M12.137931,10.952381 L5.51724138,10.952381" id="XMLID_115_" fill="#F0C41B"></path>
                        <path d="M12.137931,12.047619 L5.51724138,12.047619 C4.90703448,12.047619 4.4137931,11.5569524 4.4137931,10.952381 C4.4137931,10.3478095 4.90703448,9.85714286 5.51724138,9.85714286 L12.137931,9.85714286 C12.7481379,9.85714286 13.2413793,10.3478095 13.2413793,10.952381 C13.2413793,11.5569524 12.7481379,12.047619 12.137931,12.047619" id="XMLID_114_" fill="#F3D55C"></path>
                        <path d="M12.137931,15.3333333 L5.51724138,15.3333333" id="XMLID_113_" fill="#F0C41B"></path>
                        <path d="M12.137931,16.4285714 L5.51724138,16.4285714 C4.90703448,16.4285714 4.4137931,15.9379048 4.4137931,15.3333333 C4.4137931,14.7287619 4.90703448,14.2380952 5.51724138,14.2380952 L12.137931,14.2380952 C12.7481379,14.2380952 13.2413793,14.7287619 13.2413793,15.3333333 C13.2413793,15.9379048 12.7481379,16.4285714 12.137931,16.4285714" id="XMLID_112_" fill="#F3D55C"></path>
                        <path d="M44.137931,5.47619048 L34.2068966,5.47619048 C33.5966897,5.47619048 33.1034483,5.96685714 33.1034483,6.57142857 C33.1034483,7.176 33.5966897,7.66666667 34.2068966,7.66666667 L44.137931,7.66666667 C44.7481379,7.66666667 45.2413793,7.176 45.2413793,6.57142857 C45.2413793,5.96685714 44.7481379,5.47619048 44.137931,5.47619048" id="XMLID_111_" fill="#498679"></path>
                        <path d="M59.5862069,6.57142857 C59.5862069,5.96685714 59.0929655,5.47619048 58.4827586,5.47619048 L48.5517241,5.47619048 C47.9415172,5.47619048 47.4482759,5.96685714 47.4482759,6.57142857 C47.4482759,7.176 47.9415172,7.66666667 48.5517241,7.66666667 L58.4827586,7.66666667 C59.0929655,7.66666667 59.5862069,7.176 59.5862069,6.57142857" id="XMLID_110_" fill="#498679"></path>
                        <path d="M35.3103448,10.952381 L34.2068966,10.952381 C33.5966897,10.952381 33.1034483,11.4430476 33.1034483,12.047619 C33.1034483,12.6521905 33.5966897,13.1428571 34.2068966,13.1428571 L35.3103448,13.1428571 C35.9205517,13.1428571 36.4137931,12.6521905 36.4137931,12.047619 C36.4137931,11.4430476 35.9205517,10.952381 35.3103448,10.952381" id="XMLID_109_" fill="#498679"></path>
                        <path d="M41.9310345,10.952381 L39.7241379,10.952381 C39.113931,10.952381 38.6206897,11.4430476 38.6206897,12.047619 C38.6206897,12.6521905 39.113931,13.1428571 39.7241379,13.1428571 L41.9310345,13.1428571 C42.5412414,13.1428571 43.0344828,12.6521905 43.0344828,12.047619 C43.0344828,11.4430476 42.5412414,10.952381 41.9310345,10.952381" id="XMLID_108_" fill="#498679"></path>
                        <path d="M47.4482759,10.952381 L46.3448276,10.952381 C45.7346207,10.952381 45.2413793,11.4430476 45.2413793,12.047619 C45.2413793,12.6521905 45.7346207,13.1428571 46.3448276,13.1428571 L47.4482759,13.1428571 C48.0584828,13.1428571 48.5517241,12.6521905 48.5517241,12.047619 C48.5517241,11.4430476 48.0584828,10.952381 47.4482759,10.952381" id="XMLID_107_" fill="#498679"></path>
                        <path d="M54.0689655,10.952381 L51.862069,10.952381 C51.2518621,10.952381 50.7586207,11.4430476 50.7586207,12.047619 C50.7586207,12.6521905 51.2518621,13.1428571 51.862069,13.1428571 L54.0689655,13.1428571 C54.6791724,13.1428571 55.1724138,12.6521905 55.1724138,12.047619 C55.1724138,11.4430476 54.6791724,10.952381 54.0689655,10.952381" id="XMLID_106_" fill="#498679"></path>
                        <path d="M57.6993103,11.27 C57.4995862,11.4780952 57.3793103,11.7628571 57.3793103,12.047619 C57.3793103,12.332381 57.4995862,12.6171429 57.6993103,12.8252381 C57.9078621,13.022381 58.1837241,13.1428571 58.4827586,13.1428571 C58.7696552,13.1428571 59.0554483,13.022381 59.2662069,12.8252381 C59.4648276,12.6171429 59.5862069,12.332381 59.5862069,12.047619 C59.5862069,11.7628571 59.4648276,11.4780952 59.2662069,11.27 C58.8468966,10.8647619 58.1075862,10.8647619 57.6993103,11.27" id="XMLID_105_" fill="#498679"></path>
                    </g>
                </g>
            </g>
        </g>
    </g>
</svg>