<?xml version="1.0" encoding="utf-8"?>
<!-- Generator: Adobe Illustrator 16.0.0, SVG Export Plug-In . SVG Version: 6.00 Build 0)  -->
<!DOCTYPE svg PUBLIC "-//W3C//DTD SVG 1.1//EN" "http://www.w3.org/Graphics/SVG/1.1/DTD/svg11.dtd">
<svg version="1.1" id="Layer_1" xmlns="http://www.w3.org/2000/svg" xmlns:xlink="http://www.w3.org/1999/xlink" x="0px" y="0px"
	 width="60px" height="60px" viewBox="0 0 60 60" enable-background="new 0 0 60 60" xml:space="preserve">
<g>
	<path fill="#FFFFFF" d="M42.458,22.549v-1.22c0-6.806-5.537-12.343-12.343-12.343c-6.806,0-12.343,5.537-12.343,12.343v1.22
		c-2.181,0.096-3.926,1.9-3.926,4.104v18.451c0,2.266,1.843,4.107,4.109,4.107h24.318c2.268,0,4.109-1.843,4.109-4.107V26.653
		C46.384,24.449,44.639,22.645,42.458,22.549z M19.282,21.329c0-5.974,4.86-10.834,10.833-10.834c5.973,0,10.834,4.86,10.834,10.834
		v1.215h-2.854v-1.215c0-4.402-3.58-7.982-7.98-7.982c-4.401,0-7.981,3.58-7.981,7.982v1.215h-2.852V21.329z M36.588,22.544H23.643
		v-1.215c0-3.569,2.903-6.473,6.472-6.473c3.568,0,6.473,2.904,6.473,6.473V22.544z M44.874,45.104c0,1.434-1.166,2.6-2.601,2.6
		H17.956c-1.433,0-2.6-1.166-2.6-2.6V26.653c0-1.372,1.069-2.496,2.417-2.589c0.061-0.005,0.122-0.01,0.183-0.01h1.327h2.852h1.509
		h12.945h1.509h2.854h1.324c0.062,0,0.123,0.005,0.185,0.01c1.349,0.094,2.416,1.218,2.416,2.589v18.451H44.874z"/>
</g>
<g>
	<path fill="#FFFFFF" d="M30.115,41.995c-0.777,0-1.513-0.377-1.969-1.011c-0.299-0.416-0.458-0.905-0.458-1.416
		c0-0.008,0.001-0.278-0.012-0.648c-0.041-1.193-0.168-1.734-0.229-1.854c-0.129-0.221-0.277-0.438-0.421-0.646
		c-0.461-0.672-0.983-1.433-0.983-2.589c0-2.245,1.826-4.072,4.072-4.072s4.072,1.827,4.072,4.072c0,1.156-0.522,1.917-0.983,2.589
		c-0.144,0.209-0.292,0.425-0.423,0.649c-0.061,0.115-0.188,0.654-0.229,1.85c-0.013,0.37-0.012,0.641-0.012,0.645
		c0,0.516-0.158,1.006-0.458,1.422C31.629,41.618,30.893,41.995,30.115,41.995z M30.115,31.438c-1.321,0-2.395,1.074-2.395,2.396
		c0,0.636,0.289,1.058,0.688,1.64c0.161,0.233,0.327,0.477,0.489,0.754c0.106,0.183,0.387,0.664,0.456,2.637
		c0.014,0.406,0.012,0.699,0.012,0.713c0,0.191,0.077,0.341,0.141,0.431c0.144,0.199,0.366,0.313,0.608,0.313
		c0.242,0,0.465-0.114,0.609-0.313c0.063-0.09,0.141-0.237,0.141-0.437c0-0.008-0.002-0.301,0.012-0.706
		c0.068-1.974,0.35-2.456,0.456-2.638c0.161-0.277,0.328-0.521,0.487-0.754c0.399-0.582,0.688-1.004,0.688-1.64
		C32.51,32.512,31.438,31.438,30.115,31.438z"/>
</g>
<g>
	<polygon fill="#FFFFFF" points="52.607,1.573 58.427,1.573 58.427,7.394 60,7.394 60,0 52.607,0 	"/>
	<polygon fill="#FFFFFF" points="1.803,7.394 1.803,1.573 7.624,1.573 7.624,0 0.23,0 0.23,7.394 	"/>
	<polygon fill="#FFFFFF" points="7.624,58.195 1.803,58.195 1.803,52.377 0.23,52.377 0.23,59.77 7.624,59.77 	"/>
	<polygon fill="#FFFFFF" points="58.427,52.377 58.427,58.195 52.607,58.195 52.607,59.77 60,59.77 60,52.377 	"/>
</g>
</svg>
