<?xml version="1.0" encoding="utf-8"?>
<!-- Generator: Adobe Illustrator 16.0.0, SVG Export Plug-In . SVG Version: 6.00 Build 0)  -->
<!DOCTYPE svg PUBLIC "-//W3C//DTD SVG 1.1//EN" "http://www.w3.org/Graphics/SVG/1.1/DTD/svg11.dtd">
<svg version="1.1" id="Layer_1" xmlns="http://www.w3.org/2000/svg" xmlns:xlink="http://www.w3.org/1999/xlink" x="0px" y="0px"
	 width="140px" height="140px" viewBox="160 0 140 140" enable-background="new 160 0 140 140" xml:space="preserve">
<path fill="#FFFFFF" d="M198.812,41.056c-7.817,20.518,15.07,40.858,15.07,40.858l0.502,0.502l4.701,4.701
	c0,0,20.342,22.889,40.859,15.071c0,0,10.259-5.372,7.325-8.792c-2.93-3.418-11.602-11.601-11.602-11.601s-2.676-4.144-9.031,2.448
	c-6.354,6.588-12.896,2.628-14.973,1.042c-1.317-1.01-5.224-4.604-7.898-7.092c-2.894-3.081-7.043-7.542-8.051-8.857
	c-1.587-2.078-5.547-8.619,1.042-14.973c6.589-6.357,2.447-9.032,2.447-9.032s-8.185-8.673-11.603-11.603
	C204.184,30.797,198.812,41.056,198.812,41.056z"/>
</svg>
