<?xml version="1.0" encoding="utf-8"?>
<!-- Generator: Adobe Illustrator 16.0.0, SVG Export Plug-In . SVG Version: 6.00 Build 0)  -->
<!DOCTYPE svg PUBLIC "-//W3C//DTD SVG 1.1//EN" "http://www.w3.org/Graphics/SVG/1.1/DTD/svg11.dtd">
<svg version="1.1" id="Layer_1" xmlns="http://www.w3.org/2000/svg" xmlns:xlink="http://www.w3.org/1999/xlink" x="0px" y="0px"
	 width="140px" height="140px" viewBox="0 0 140 140" enable-background="new 0 0 140 140" xml:space="preserve">
<g>
	<path fill="#FFFFFF" fill-opacity=".4" d="M119.853,20.148C106.538,6.833,88.834-0.5,70.002-0.5S33.465,6.833,20.149,20.149
		c-27.487,27.488-27.487,72.215,0,99.703C33.466,133.167,51.17,140.5,70.001,140.5c18.83,0,36.534-7.333,49.851-20.648
		c13.316-13.316,20.65-31.021,20.65-49.852C140.502,51.168,133.168,33.464,119.853,20.148z M70.001,135.5
		c-16.49,0-32.048-6.058-44.143-17.113l92.529-92.529c11.056,12.093,17.114,27.65,17.114,44.142
		c-0.001,17.497-6.814,33.946-19.186,46.316C103.944,128.688,87.496,135.5,70.001,135.5z M76.198,59.562
		c-2.01-0.504-4.08-0.764-6.197-0.764c-13.885,0-25.348,11.292-25.552,25.145l-0.542,7.91l-22.289,22.289
		c-23.443-25.671-22.759-65.63,2.066-90.457C36.057,11.313,52.506,4.5,70.002,4.5c16.491,0,32.05,6.059,44.143,17.115L76.198,59.562
		z"/>
	<path fill="#FFFFFF" fill-opacity=".4" d="M95.555,83.969c-0.113-7.598-3.586-14.707-9.525-19.503l-0.351-0.282L45.023,104.84l0.238,0.344
		c1.181,1.703,2.816,2.998,4.73,3.745c0.902,0.353,9.123,3.444,20.01,3.444c11.074,0,19.201-3.119,20.092-3.476
		c4.176-1.67,6.773-5.807,6.465-10.293L95.555,83.969z"/>
	<path fill="#FFFFFF" fill-opacity=".4" d="M54.532,41.229c0,8.53,6.939,15.47,15.47,15.47s15.471-6.94,15.471-15.47s-6.94-15.47-15.471-15.47
		S54.532,32.699,54.532,41.229z"/>
</g>
</svg>
