<?xml version="1.0" encoding="utf-8"?>
<!-- Generator: Adobe Illustrator 16.0.0, SVG Export Plug-In . SVG Version: 6.00 Build 0)  -->
<!DOCTYPE svg PUBLIC "-//W3C//DTD SVG 1.1//EN" "http://www.w3.org/Graphics/SVG/1.1/DTD/svg11.dtd">
<svg version="1.1" id="Layer_1" xmlns="http://www.w3.org/2000/svg" xmlns:xlink="http://www.w3.org/1999/xlink" x="0px" y="0px"
	 width="140px" height="140px" viewBox="0 0 140 140" enable-background="new 0 0 140 140" xml:space="preserve">
<g>
	<path fill="#FFFFFF" fill-opacity=".4" d="M70-0.5C31.127-0.5-0.499,31.126-0.5,70c0.001,38.874,31.627,70.5,70.5,70.5
		c38.875,0,70.502-31.626,70.502-70.5S108.875-0.5,70-0.5z M70,135.5c-36.116,0-65.499-29.383-65.5-65.5
		C4.501,33.883,33.884,4.5,70,4.5c36.118,0,65.502,29.383,65.502,65.5C135.502,106.117,106.118,135.5,70,135.5z"/>
	<path fill="#FFFFFF" fill-opacity=".4" d="M95.555,83.969C95.348,70.09,83.884,58.798,70,58.798c-13.884,0-25.348,11.292-25.552,25.145l-1.005,14.662
		c-0.311,4.526,2.32,8.676,6.546,10.324c0.902,0.353,9.123,3.444,20.01,3.444c11.083,0,19.202-3.119,20.091-3.476
		c4.178-1.67,6.776-5.807,6.468-10.293L95.555,83.969z"/>
	<path fill="#FFFFFF" fill-opacity=".4" d="M70,56.7c8.53,0,15.471-6.94,15.471-15.471S78.53,25.758,70,25.758c-8.531,0-15.471,6.94-15.471,15.471
		S61.469,56.7,70,56.7z"/>
</g>
</svg>
