<?xml version="1.0" encoding="utf-8"?>
<!-- Generator: Adobe Illustrator 16.0.0, SVG Export Plug-In . SVG Version: 6.00 Build 0)  -->
<!DOCTYPE svg PUBLIC "-//W3C//DTD SVG 1.1//EN" "http://www.w3.org/Graphics/SVG/1.1/DTD/svg11.dtd">
<svg version="1.1" id="Layer_1" xmlns="http://www.w3.org/2000/svg" xmlns:xlink="http://www.w3.org/1999/xlink" x="0px" y="0px"
	 width="24.142px" height="23.976px" viewBox="0 0 24.142 23.976" enable-background="new 0 0 24.142 23.976" xml:space="preserve">
<g>
	<path fill="#3DA21E" d="M12.142,0.976c6.065,0,11,4.935,11,11s-4.935,11-11,11s-11-4.935-11-11S6.077,0.976,12.142,0.976
		 M12.142-0.024c-6.627,0-12,5.373-12,12s5.373,12,12,12s12-5.373,12-12S18.77-0.024,12.142-0.024L12.142-0.024z"/>
</g>
<g>
	<path fill="#3DA21E" d="M14.024,8.733c-0.927-0.254-2.062-0.419-3.282-0.476c-0.009,0-0.018,0-0.026,0H8.83
		c-0.008,0-0.018,0-0.026,0C7.583,8.314,6.449,8.479,5.521,8.733C5.282,8.799,5.116,9.017,5.116,9.265v5.422
		c0,0.249,0.166,0.466,0.405,0.532c0.927,0.254,2.061,0.419,3.281,0.476c0.009,0,0.018,0,0.026,0h1.891c0.008,0,0.017,0,0.025,0
		c1.219-0.057,2.354-0.222,3.28-0.476c0.24-0.065,0.405-0.283,0.405-0.532V9.265C14.43,9.017,14.263,8.799,14.024,8.733z"/>
	<path fill="#3DA21E" d="M18.877,8.811c-0.181-0.104-0.403-0.104-0.584,0l-3.128,1.806v2.72l3.128,1.806
		c0.09,0.052,0.191,0.078,0.292,0.078c0.101,0,0.201-0.025,0.292-0.078c0.18-0.104,0.291-0.297,0.291-0.506V9.315
		C19.168,9.107,19.057,8.915,18.877,8.811z"/>
</g>
</svg>
