<?xml version="1.0" encoding="utf-8"?>
<!-- Generator: Adobe Illustrator 16.0.0, SVG Export Plug-In . SVG Version: 6.00 Build 0)  -->
<!DOCTYPE svg PUBLIC "-//W3C//DTD SVG 1.1//EN" "http://www.w3.org/Graphics/SVG/1.1/DTD/svg11.dtd">
<svg version="1.1" id="Layer_1" xmlns="http://www.w3.org/2000/svg" xmlns:xlink="http://www.w3.org/1999/xlink" x="0px" y="0px"
	 width="140px" height="140px" viewBox="0 0 140 140" enable-background="new 0 0 140 140" xml:space="preserve">
<path fill="#FFFFFF" d="M114.529,71.363c-8.98-20.036-39.548-18.234-39.548-18.234h-0.71h-6.649c0,0-30.568-1.801-39.548,18.234
	c0,0-3.456,11.053,1.036,11.396c4.489,0.346,16.407,0,16.407,0s4.821,1.037,4.655-8.117c-0.166-9.152,7.26-10.977,9.851-11.324
	c1.645-0.218,6.948-0.438,10.599-0.57c4.225,0.132,10.312,0.353,11.956,0.57c2.591,0.347,10.017,2.172,9.851,11.324
	c-0.164,9.154,4.656,8.117,4.656,8.117s11.92,0.346,16.409,0C117.984,82.416,114.529,71.363,114.529,71.363z"/>
</svg>
