<?xml version="1.0" encoding="utf-8"?>
<!-- Generator: Adobe Illustrator 16.0.0, SVG Export Plug-In . SVG Version: 6.00 Build 0)  -->
<!DOCTYPE svg PUBLIC "-//W3C//DTD SVG 1.1//EN" "http://www.w3.org/Graphics/SVG/1.1/DTD/svg11.dtd">
<svg version="1.1" id="Layer_1" xmlns="http://www.w3.org/2000/svg" xmlns:xlink="http://www.w3.org/1999/xlink" x="0px" y="0px"
	 width="140px" height="140px" viewBox="0 0 140 140" enable-background="new 0 0 140 140" xml:space="preserve">
<g>
	<path fill="#FFFFFF" fill-opacity=".4" d="M70-0.5C31.127-0.5-0.499,31.126-0.5,70c0.001,38.874,31.627,70.5,70.5,70.5
		c38.875,0,70.502-31.626,70.502-70.5S108.875-0.5,70-0.5z M70,135.5c-36.116,0-65.499-29.383-65.5-65.5
		C4.501,33.883,33.884,4.5,70,4.5c36.118,0,65.502,29.383,65.502,65.5C135.502,106.117,106.118,135.5,70,135.5z"/>
	<rect x="47.501" y="47.5" fill="#FFFFFF" fill-opacity=".4" width="45" height="45"/>
	<polygon fill="#FFFFFF" fill-opacity=".4" points="72.501,39.5 100.5,39.5 100.5,68.5 104.5,68.5 104.5,35.5 72.501,35.5 	"/>
	<polygon fill="#FFFFFF" fill-opacity=".4" points="39.501,72.5 35.501,72.5 35.501,104.5 68.5,104.5 68.5,100.5 39.501,100.5 	"/>
</g>
</svg>
