<?xml version="1.0" encoding="utf-8"?>
<!-- Generator: Adobe Illustrator 16.0.0, SVG Export Plug-In . SVG Version: 6.00 Build 0)  -->
<!DOCTYPE svg PUBLIC "-//W3C//DTD SVG 1.1//EN" "http://www.w3.org/Graphics/SVG/1.1/DTD/svg11.dtd">
<svg version="1.1" id="Layer_1" xmlns="http://www.w3.org/2000/svg" xmlns:xlink="http://www.w3.org/1999/xlink" x="0px" y="0px"
	 width="140px" height="140px" viewBox="0 0 140 140" enable-background="new 0 0 140 140" xml:space="preserve">
<g>
	<path fill="#FFFFFF" fill-opacity=".4" d="M119.852,20.148C106.536,6.833,88.832-0.5,70-0.5c-18.833,0-36.537,7.333-49.852,20.649
		C6.833,33.465-0.501,51.169-0.5,70c0,18.832,7.333,36.536,20.649,49.851C33.465,133.167,51.169,140.5,70,140.5
		s36.534-7.333,49.851-20.649c13.316-13.315,20.649-31.02,20.65-49.851C140.501,51.168,133.167,33.464,119.852,20.148z
		 M116.315,116.315C103.943,128.687,87.494,135.5,70,135.5c-17.496,0-33.944-6.813-46.315-19.185S4.5,87.495,4.5,70
		c0-17.496,6.813-33.944,19.185-46.314C36.056,11.313,52.504,4.5,70,4.5s33.945,6.813,46.315,19.185
		C128.688,36.058,135.501,52.506,135.501,70C135.5,87.497,128.687,103.945,116.315,116.315z"/>
	<path fill="#FFFFFF" fill-opacity=".4" d="M70,86.75c9.919,0,17.988-8.07,17.988-17.99V51.99C87.988,42.07,79.919,34,70,34
		c-9.92,0-17.99,8.07-17.99,17.99v16.77C52.01,78.68,60.08,86.75,70,86.75z"/>
	<path fill="#FFFFFF" fill-opacity=".4" d="M96.438,57h-1c-1.379,0-2.5,1.122-2.5,2.5v9.311C92.938,81.46,82.647,91.75,70,91.75
		c-12.648,0-22.939-10.29-22.939-22.939V59.5c0-1.378-1.122-2.5-2.5-2.5h-1c-1.378,0-2.5,1.122-2.5,2.5v9.311
		c0,14.944,11.386,27.278,25.939,28.784V113c0,1.654,1.346,3,3,3s3-1.346,3-3V97.595c14.552-1.506,25.938-13.84,25.938-28.784V59.5
		C98.938,58.122,97.816,57,96.438,57z"/>
</g>
</svg>
