<?xml version="1.0" encoding="utf-8"?>
<!-- Generator: Adobe Illustrator 16.0.0, SVG Export Plug-In . SVG Version: 6.00 Build 0)  -->
<!DOCTYPE svg PUBLIC "-//W3C//DTD SVG 1.1//EN" "http://www.w3.org/Graphics/SVG/1.1/DTD/svg11.dtd">
<svg version="1.1" id="Layer_1" xmlns="http://www.w3.org/2000/svg" xmlns:xlink="http://www.w3.org/1999/xlink" x="0px" y="0px"
	 width="140px" height="140px" viewBox="0 0 140 140" enable-background="new 0 0 140 140" xml:space="preserve">
<g>
	<path fill="#FFFFFF" fill-opacity=".4" d="M119.852,20.148C106.536,6.833,88.832-0.5,70.001-0.5c-18.832,0-36.537,7.333-49.853,20.649
		c-27.486,27.487-27.486,72.214,0,99.702C33.465,133.167,51.169,140.5,70,140.5c18.83,0,36.534-7.333,49.851-20.648
		C133.167,106.535,140.5,88.831,140.501,70C140.501,51.168,133.167,33.464,119.852,20.148z M70,135.5
		c-16.491,0-32.049-6.058-44.143-17.113l92.529-92.529C129.442,37.95,135.501,53.507,135.501,70
		c-0.001,17.495-6.814,33.944-19.186,46.316C103.943,128.688,87.495,135.5,70,135.5z M87.574,48.184C85.822,40.087,78.612,34,70,34
		c-9.92,0-17.99,8.07-17.99,17.99v16.77c0,4.095,1.39,7.998,3.857,11.131l-3.542,3.541c-3.389-4.067-5.265-9.181-5.265-14.621V59.5
		c0-1.378-1.122-2.5-2.5-2.5h-1c-1.378,0-2.5,1.122-2.5,2.5v9.311c0,7.018,2.516,13.652,7.023,18.863l-26.468,26.468
		c-23.442-25.671-22.758-65.63,2.067-90.456C36.056,11.313,52.505,4.5,70.001,4.5c16.491,0,32.05,6.059,44.143,17.115L87.574,48.184
		z"/>
	<path fill="#FFFFFF" fill-opacity=".4" d="M70,86.75c9.919,0,17.988-8.07,17.988-17.99v-6.921L64.07,85.76l0.805,0.239
		C66.551,86.497,68.276,86.75,70,86.75z"/>
	<path fill="#FFFFFF" fill-opacity=".4" d="M96.438,57h-1c-1.379,0-2.5,1.122-2.5,2.5v9.311C92.938,81.46,82.647,91.75,70,91.75
		c-3.273,0-6.445-0.685-9.428-2.035l-0.315-0.144l-4.455,4.454l0.594,0.317c3.282,1.757,6.9,2.85,10.603,3.238V113
		c0,1.654,1.346,3,3,3s3-1.346,3-3V97.595c14.552-1.506,25.938-13.84,25.938-28.784V59.5C98.938,58.122,97.816,57,96.438,57z"/>
</g>
</svg>
