<?xml version="1.0" encoding="utf-8"?>
<!-- Generator: Adobe Illustrator 16.0.0, SVG Export Plug-In . SVG Version: 6.00 Build 0)  -->
<!DOCTYPE svg PUBLIC "-//W3C//DTD SVG 1.1//EN" "http://www.w3.org/Graphics/SVG/1.1/DTD/svg11.dtd">
<svg version="1.1" id="Layer_1" xmlns="http://www.w3.org/2000/svg" xmlns:xlink="http://www.w3.org/1999/xlink" x="0px" y="0px"
	 width="140px" height="140px" viewBox="0 0 140 140" enable-background="new 0 0 140 140" xml:space="preserve">
<path fill="#FFFFFF" stroke="#FFFFFF" fill-opacity=".4" stroke-opacity=".4" stroke-miterlimit="10" d="M69.999,4L69.999,4c36.394,0,66.002,29.607,66.002,66
	s-29.608,66-66.002,66c-36.392,0-65.999-29.607-66-66C4,33.608,33.607,4,69.999,4 M69.999,0C31.34,0,0,31.34-0.001,70
	c0.001,38.66,31.341,70,70,70c38.662,0,70.002-31.34,70.002-70S108.66,0,69.999,0L69.999,0z"/>
<g>
	<path fill="#FFFFFF" stroke="#FFFFFF" fill-opacity=".4" stroke-opacity=".4" stroke-miterlimit="10" d="M99.033,91.416c-0.041-0.087-4.066-8.786-4.951-12.051
		c-1.289-4.751-2.059-19.893-2.104-20.803C91.954,46.463,82.104,36.629,70,36.629s-21.954,9.834-21.979,21.934
		c-0.045,0.911-0.813,16.05-2.103,20.803c-0.885,3.263-4.91,11.964-4.951,12.051c-0.259,0.56-0.215,1.212,0.116,1.731
		c0.332,0.52,0.906,0.833,1.522,0.833h54.789c0.616,0,1.189-0.313,1.522-0.833C99.248,92.628,99.292,91.976,99.033,91.416z"/>
	<path fill="#FFFFFF" stroke="#FFFFFF" fill-opacity=".4" stroke-opacity=".4" stroke-miterlimit="10" d="M61.069,96.869c1.219,3.771,4.754,6.499,8.931,6.499
		c4.176,0,7.712-2.729,8.931-6.499H61.069z"/>
</g>
</svg>
