<?xml version="1.0" encoding="utf-8"?>
<!-- Generator: Adobe Illustrator 16.0.0, SVG Export Plug-In . SVG Version: 6.00 Build 0)  -->
<!DOCTYPE svg PUBLIC "-//W3C//DTD SVG 1.1//EN" "http://www.w3.org/Graphics/SVG/1.1/DTD/svg11.dtd">
<svg version="1.1" id="Layer_1" xmlns="http://www.w3.org/2000/svg" xmlns:xlink="http://www.w3.org/1999/xlink" x="0px" y="0px"
	 width="140px" height="140px" viewBox="0 0 140 140" enable-background="new 0 0 140 140" xml:space="preserve">
<g>
	<path fill="#FFFFFF" fill-opacity=".4" d="M119.852,20.148C106.537,6.833,88.833-0.5,70.001-0.5S33.464,6.833,20.148,20.149
		c-27.487,27.488-27.487,72.215,0,99.703C33.465,133.167,51.169,140.5,70,140.5c18.83,0,36.534-7.333,49.851-20.648
		C133.167,106.535,140.5,88.831,140.501,70C140.501,51.168,133.167,33.464,119.852,20.148z M70,135.5
		c-16.49,0-32.048-6.058-44.143-17.113l92.529-92.529C129.442,37.95,135.501,53.508,135.501,70
		c-0.001,17.496-6.814,33.945-19.186,46.316C103.943,128.688,87.495,135.5,70,135.5z M89.04,46.719
		c-4.048-6.432-11.217-10.59-19.039-10.59c-12.37,0-22.454,10.063-22.479,22.41c-0.032,0.649-0.798,15.953-2.086,20.697
		c-0.866,3.193-4.881,11.884-4.922,11.972c-0.332,0.718-0.276,1.544,0.148,2.211c0.222,0.347,0.528,0.615,0.88,0.799l-19.925,19.925
		c-23.443-25.671-22.759-65.63,2.066-90.457C36.056,11.313,52.505,4.5,70.001,4.5c16.491,0,32.05,6.059,44.143,17.115L89.04,46.719z
		"/>
	<path fill="#FFFFFF" fill-opacity=".4" d="M94.565,79.234c-1.288-4.749-2.056-20.048-2.087-20.676v-1.207L55.35,94.48h42.046
		c0.79,0,1.517-0.398,1.943-1.065c0.425-0.667,0.48-1.492,0.146-2.212C99.447,91.118,95.432,82.429,94.565,79.234z"/>
	<path fill="#FFFFFF" fill-opacity=".4" d="M60.594,97.022c1.323,4.095,5.104,6.846,9.407,6.846s8.083-2.751,9.406-6.845l0.212-0.654H60.383
		L60.594,97.022z"/>
</g>
</svg>
