<?xml version="1.0" encoding="utf-8"?>
<!-- Generator: Adobe Illustrator 16.0.0, SVG Export Plug-In . SVG Version: 6.00 Build 0)  -->
<!DOCTYPE svg PUBLIC "-//W3C//DTD SVG 1.1//EN" "http://www.w3.org/Graphics/SVG/1.1/DTD/svg11.dtd">
<svg version="1.1" id="Layer_1" xmlns="http://www.w3.org/2000/svg" xmlns:xlink="http://www.w3.org/1999/xlink" x="0px" y="0px"
	 width="140px" height="140px" viewBox="0 0 140 140" enable-background="new 0 0 140 140" xml:space="preserve">
<g>
	<path fill="#FFFFFF" fill-opacity=".4" d="M119.852,20.148C106.537,6.833,88.833-0.5,70.001-0.5S33.464,6.833,20.148,20.149
		c-27.487,27.488-27.487,72.215,0,99.703C33.465,133.167,51.169,140.5,70,140.5c18.83,0,36.534-7.333,49.851-20.648
		C133.167,106.535,140.5,88.831,140.501,70C140.501,51.168,133.167,33.464,119.852,20.148z M70,135.5
		c-16.49,0-32.048-6.058-44.143-17.113l92.529-92.529C129.442,37.95,135.501,53.508,135.501,70
		c-0.001,17.496-6.814,33.945-19.186,46.316C103.943,128.688,87.495,135.5,70,135.5z M82.672,53.086
		c-0.368-0.301-0.795-0.539-1.274-0.67c-5.077-1.393-11.292-2.294-17.975-2.607l-10.427-0.003l-0.165,0.003
		c-6.675,0.312-12.89,1.214-17.971,2.607c-1.516,0.415-2.574,1.803-2.574,3.375v29.507c0,1.571,1.058,2.96,2.574,3.377
		c3.058,0.838,6.533,1.495,10.268,1.955l-23.51,23.511c-23.443-25.671-22.759-65.63,2.066-90.457
		C36.056,11.313,52.505,4.5,70.001,4.5c16.491,0,32.05,6.059,44.143,17.115L82.672,53.086z"/>
	<path fill="#FFFFFF" fill-opacity=".4" d="M63.272,91.285l0.165-0.004c6.672-0.312,12.883-1.215,17.961-2.607c1.516-0.415,2.573-1.803,2.573-3.376
		V65.859L58.545,91.285H63.272z"/>
	<path fill="#FFFFFF" fill-opacity=".4" d="M107.922,52.883c-1.115-0.644-2.561-0.644-3.676,0l-17.275,9.975v15.375l17.275,9.974
		c0.558,0.322,1.193,0.493,1.838,0.493c0.643,0,1.277-0.17,1.838-0.493c1.133-0.654,1.836-1.873,1.836-3.183V56.066
		C109.758,54.758,109.055,53.539,107.922,52.883z"/>
</g>
</svg>
