<?xml version="1.0" encoding="utf-8"?>
<!-- Generator: Adobe Illustrator 16.0.0, SVG Export Plug-In . SVG Version: 6.00 Build 0)  -->
<!DOCTYPE svg PUBLIC "-//W3C//DTD SVG 1.1//EN" "http://www.w3.org/Graphics/SVG/1.1/DTD/svg11.dtd">
<svg version="1.1" id="Layer_1" xmlns="http://www.w3.org/2000/svg" xmlns:xlink="http://www.w3.org/1999/xlink" x="0px" y="0px"
	 width="140px" height="140px" viewBox="0 0 140 140" enable-background="new 0 0 140 140" xml:space="preserve">
<g>
	<path fill="#FFFFFF" fill-opacity=".4" d="M119.852,20.148C106.537,6.833,88.833-0.5,70.001-0.5S33.464,6.833,20.148,20.149
		c-27.487,27.488-27.487,72.215,0,99.703C33.465,133.167,51.169,140.5,70,140.5c18.83,0,36.534-7.333,49.851-20.648
		C133.167,106.535,140.5,88.831,140.501,70C140.501,51.168,133.167,33.464,119.852,20.148z M116.315,116.316
		C103.943,128.688,87.495,135.5,70,135.5c-17.495,0-33.944-6.812-46.316-19.184c-25.537-25.539-25.537-67.093,0-92.632
		C36.056,11.313,52.505,4.5,70.001,4.5c17.495,0,33.944,6.813,46.315,19.185C128.688,36.055,135.501,52.503,135.501,70
		C135.5,87.496,128.687,103.945,116.315,116.316z"/>
	<path fill="#FFFFFF" fill-opacity=".4" d="M81.53,51.935c-5.112-1.402-11.365-2.31-18.082-2.625c-0.066-0.002-0.127-0.004-0.188-0.004H52.996
		c-0.061,0-0.122,0.001-0.183,0.004c-6.716,0.314-12.969,1.222-18.085,2.625c-1.732,0.474-2.942,2.061-2.942,3.857v29.507
		c0,1.796,1.209,3.383,2.941,3.858c5.11,1.401,11.359,2.309,18.071,2.625c0.066,0.003,0.127,0.004,0.188,0.004h10.287
		c0.061,0,0.122-0.001,0.183-0.004c6.718-0.316,12.966-1.224,18.075-2.624c1.732-0.476,2.942-2.062,2.942-3.859V55.792
		C84.47,53.995,83.26,52.409,81.53,51.935z"/>
	<path fill="#FFFFFF" fill-opacity=".4" d="M108.173,52.451c-0.635-0.367-1.356-0.56-2.089-0.56s-1.454,0.193-2.088,0.559l-17.025,9.83l-0.5,0.289
		v0.577v14.797v0.577l0.5,0.289l17.025,9.83c0.634,0.366,1.355,0.56,2.088,0.56c0.729,0,1.451-0.193,2.087-0.559
		c1.288-0.744,2.087-2.13,2.087-3.617V56.066C110.258,54.581,109.459,53.195,108.173,52.451z"/>
</g>
</svg>
