<svg width="141" height="134" xmlns="http://www.w3.org/2000/svg">
  <g fill="none" fill-rule="evenodd">
    <path d="M113.9805247 20.016993l-34.7620062 84.418992-8.9003148-35.6224165c-.6347293-2.524812-2.6094425-4.4995252-5.1342545-5.1342545L29.561532 54.7789992l84.4189927-34.7620062zM77.5823275 134.000264c2.8351241 0 5.423409-1.713769 6.5165538-4.372579L133.4667132 9.73437887c1.0860923-2.62354763.47957322-5.65614302-1.53745534-7.66611903-2.00997601-2.0240811-5.0425714-2.6164951-7.66611903-1.53745534L4.369833 49.8986364C1.548814 51.0552541-.200218 53.8974307.018411 56.9300261c.225682 3.039648 2.369656 5.5926701 5.324673 6.3331876l52.3157971 13.0754229L70.734304 128.661486c.7405175 2.947965 3.2935396 5.091939 6.3331876 5.317621.1692611.007052.3455748.021157.5148359.021157z" fill="#CFD8E0"/>
    <path d="M131.585898 36.0090929c-2.428173-2.4284987-5.169305-4.3505626-8.089611-5.7833912-11.327654-5.558362-25.3978722-3.6362982-34.8176751 5.7833912-6.6289803 6.6285642-9.5464196 15.5614072-8.7575739 24.220011.6206607 6.8177606 3.5381 13.4654355 8.7575739 18.6845817 11.8484541 11.8481882 31.0588321 11.8477105 42.9072861 0 11.848932-11.8477104 11.848932-31.0568823 0-42.9045927" fill="#FFF"/>
    <path d="M126.970475 40.6251983c9.299625 9.2986662 9.299625 24.3749698 0 33.6736361-9.29925 9.2986663-24.3765 9.2990413-33.67575 0-4.0965-4.0962428-6.38625-9.3136653-6.873375-14.6645794-.619125-6.7956984 1.670625-13.8066333 6.873375-19.0090567 7.393125-7.3930359 18.436125-8.9015662 27.326625-4.5390901 2.292 1.1245544 4.443375 2.6330847 6.349125 4.5390901zm-27.74925 27.7475081c6.02625 6.0258717 15.7965 6.0258717 21.82275 0 6.02625-6.0258717 6.02625-15.7955084 0-21.8213801-1.116375-1.116305-2.36175-2.0248729-3.68775-2.7275788-5.8305-3.090181-13.225125-2.1819881-18.135 2.7275788-4.653375 4.6530829-5.70975 11.5372757-3.176625 17.2076697.747375 1.67277 1.80375 3.2409216 3.176625 4.6137104z" fill="#EA1F46"/>
    <path fill="#EA1F46" d="M120.413112 72.5145464L94.6922375 46.7952859l4.773-4.7727004L125.186112 67.741846z"/>
  </g>
</svg>
