<svg width="42px" height="42px" viewBox="0 0 42 42" version="1.1" xmlns="http://www.w3.org/2000/svg" xmlns:xlink="http://www.w3.org/1999/xlink">
    <g stroke="none" stroke-width="1" fill="none" fill-rule="evenodd">
        <g transform="translate(-276.000000, -610.000000)">
            <g transform="translate(276.000000, 610.000000)">
                <circle id="btn" stroke="#CCD1D7" stroke-width="2" cx="21" cy="21" r="20"></circle>
                <path d="M21.6299729,20.03125 C25.1480515,20.03125 28,22.6265603 28,25.8280576 L28,26.804972 C26.0022711,27.5743886 23.8057494,28 21.4999699,28 C19.1941904,28 16.9976688,27.574498 15,26.8050268 L15,25.8280576 C15,22.6265603 17.8519485,20.03125 21.3700271,20.03125 L21.6299729,20.03125 Z M21.5,13 C23.2094787,13 24.5952381,14.4308814 24.5952381,16.1960227 C24.5952381,17.961164 23.2094787,19.3920455 21.5,19.3920455 C19.7905747,19.3920455 18.4047619,17.961164 18.4047619,16.1960227 C18.4047619,14.4308814 19.7905747,13 21.5,13 Z" id="user-ico-passive" fill="#CCD1D7"></path>
            </g>
        </g>
    </g>
</svg>