<svg width="194" height="158" xmlns="http://www.w3.org/2000/svg">
  <g fill-rule="nonzero" fill="none">
    <g fill="#CFD9E1">
      <path d="M71.1069388 75.2683415c-13.342449 4.0889447-25.9326531 11.3140703-36.5036735 21.8738693l18.4497959 18.4994975c5.5032653-5.5180905 11.9171429-9.8452261 18.8457143-12.9020101l-.7918367-27.4713567zM69.602449 25.01005C44.0657143 30.17085402 19.7563265 42.6361807 0 62.4457284l18.4497959 18.4994975c14.8469388-14.8869347 32.9008163-24.5733669 51.9444898-29.257789L69.602449 25.01005zM124.239184 25.01005l-.791837 26.7170854c19.043673 4.6844221 37.097551 14.3708543 51.94449 29.257789l18.449796-18.4994975c-19.716735-19.8492462-44.065715-32.31457288-69.602449-37.4753769zM121.903265 102.7396982c6.928572 3.056784 13.342449 7.3839196 18.885306 12.9417086l18.449796-18.4994975c-10.531428-10.559799-23.161224-17.8246231-36.503673-21.9135678l-.831429 27.4713567z"/>
    </g>
    <ellipse fill="#FF554D" cx="96.9208163" cy="141.803015" rx="15.8367347" ry="15.879397"/>
    <path d="M103.176327 112.902513H90.6257143c-3.2861225 0-5.9783674-2.620101-6.057551-5.915076L81.5591837 6.43115578c-.1187755-3.41407035 2.652653-6.27236181 6.057551-6.27236181h18.6081633c3.404898 0 6.176326 2.81859296 6.057551 6.27236181L109.233878 106.987437c-.079184 3.294975-2.771429 5.915076-6.057551 5.915076z" fill="#FF554D"/>
  </g>
</svg>
