<svg width="56" height="56" xmlns="http://www.w3.org/2000/svg" xmlns:xlink="http://www.w3.org/1999/xlink">
  <defs>
    <path id="a" d="M27.9368104 55.7098446H0V.1256373h55.8736208v55.5842073z"/>
  </defs>
  <g fill="none" fill-rule="evenodd">
    <g transform="translate(0 .164518)">
      <mask id="b" fill="#fff">
        <use xlink:href="#a"/>
      </mask>
      <path d="M27.9369125 53.9689119c-14.4395417 0-26.187-11.6863005-26.187-26.051316 0-14.3647254 11.7474583-26.05102595 26.187-26.05102595 14.4395417 0 26.1867083 11.68630055 26.1867083 26.05102595 0 14.3650155-11.7471666 26.051316-26.1867083 26.051316m0-53.8432746c-15.404375 0-27.937 12.467399-27.937 27.7919586 0 15.3245595 12.532625 27.7922487 27.937 27.7922487 15.404375 0 27.9367083-12.4676892 27.9367083-27.7922487 0-15.3245596-12.5323333-27.7919586-27.9367083-27.7919586" fill="#0076FF" mask="url(#b)"/>
    </g>
    <path d="M42.8377833 21.0120124c-.09275-.3238134-.4351666-.5132849-.7606666-.4210155l-6.9545 1.9721865c-.0029167.0008705-.00525.0023213-.0081667.0031917-.014.0043524-.027125.0110259-.0408333.0162487-.1009167.0383006-.188125.0986529-.25375.1769949-.014.016829-.025375.0362694-.037625.0548393-.009625.0142176-.0207084.0272746-.028875.0423627-.00875.0156684-.014875.0333679-.0221667.0501969-.0090417.0206011-.0189583.0406218-.0259583.0620933-.0005834.0023212-.00175.0040622-.002625.0060932-.0035.0124767-.004375.0249534-.0072917.0374301-.006125.0255337-.01225.0510674-.014875.0774715-.0014583.0127668-.0005833.0252435-.000875.0377202-.0014583.0284352-.0020417.0565803.000875.0850156.000875.0087046.0032083.016829.004375.0252435.0037917.0272746.007.0545492.0145833.0818238.0352917.1233161.1070417.2266114.1997917.3026321.00525.0043524.0116667.0075441.0172083.0118964.0256667.0194404.051625.0383005.079625.0536788.014.007544.0294584.0124766.0440417.0191502.0224583.0098653.0443333.0206011.0679583.0278549.0023334.0008705.004375.0020311.0067084.0029016l6.92475 2.0731606c.3240416.0972021.6690833-.0873368.7667916-.4096995.0974167-.3226528-.0877916-.6659067-.412125-.7628186l-4.9128333-1.4707979 4.93325-1.3991296c.3255-.0922694.5159583-.4329119.4232083-.7567254M19.1584167 22.8413845c-.580125 0-1.0502917-.4677306-1.0502917-1.0448498 0-.4912331.3424167-.9006425.8017917-1.0120622-.3987084-.2312538-.8607084-.3661761-1.3556667-.3661761-1.490125 0-2.6979167 1.2018238-2.6979167 2.6839378 0 1.4824041 1.2077917 2.6839378 2.6979167 2.6839378s2.6979167-1.2015337 2.6979167-2.6839378c0-.302342-.0525-.5922073-.1455417-.8635026-.1674167.3551503-.527625.6026529-.9482083.6026529M27.9369417 39.562056c3.5 0 6.3370416-2.8226322 6.3370416-6.3042073H21.5999c0 3.4815751 2.8370417 6.3042073 6.3370417 6.3042073" fill="#0076FF"/>
  </g>
</svg>
