<svg width="116" height="117" xmlns="http://www.w3.org/2000/svg" xmlns:xlink="http://www.w3.org/1999/xlink">
  <defs>
    <path id="a" d="M57.8691073 116.393782H0V.26249223h115.738215V116.393782z"/>
  </defs>
  <g fill="none" fill-rule="evenodd">
    <g transform="translate(0 .343725)">
      <mask id="b" fill="#fff">
        <use xlink:href="#a"/>
      </mask>
      <path d="M57.8693188 112.756477c-29.9104792 0-54.24450005-24.416021-54.24450005-54.4286428 0-30.0120155 24.33402085-54.42803627 54.24450005-54.42803627 29.9104791 0 54.2438962 24.41602077 54.2438962 54.42803627 0 30.0126218-24.3334171 54.4286428-54.2438962 54.4286428m0-112.49398477c-31.9090625 0-57.86950005 26.04795857-57.86950005 58.06534197S25.9602563 116.393782 57.8693188 116.393782c31.9090625 0 57.8688962-26.0485644 57.8688962-58.0659478S89.7783813.26249223 57.8693188.26249223" fill="#C3C8CD" mask="url(#b)"/>
    </g>
    <path d="M88.7354083 43.9000974c-.192125-.6765389-.9014166-1.072399-1.5756666-.8796218l-14.40575 4.1204612c-.0060417.0018186-.010875.0048497-.0169167.0066684-.029.0090932-.0561875.0230363-.0845833.0339482-.2090417.0800207-.3896875.206114-.525625.3697927-.029.0351606-.0525625.0757772-.0779375.1145751-.0199375.0297047-.0428959.0569845-.0598125.0885078-.018125.0327358-.0308125.069715-.0459167.1048757-.0187292.0430414-.0392708.0848704-.0537708.1297305-.0012084.0048498-.003625.0084871-.0054375.0127306-.00725.0260674-.0090625.0521347-.0151042.0782021-.0126875.0533471-.025375.1066943-.0308125.1618601-.0030208.0266736-.0012083.0527409-.0018125.0788083-.0030208.0594093-.0042292.1182124.0018125.1776217.0018125.0181866.0066458.0351607.0090625.052741.0078542.0569844.0145.1139689.0302083.1709533.0731042.2576425.2217292.473456.4138542.632285.010875.0090933.0241667.0157617.0356458.0248549.0531667.0406166.1069375.0800208.1649375.1121503.029.0157616.0610209.0260673.0912292.0400103.0465208.0206114.0918333.0430415.1407708.0581969.0048334.0018187.0090625.0042436.0138959.0060622l14.344125 4.3314249c.6712291.2030829 1.3859583-.1824715 1.5883541-.8559793.2017917-.674114-.1818541-1.3912694-.8536875-1.5937461l-10.1765833-3.0729171 10.218875-2.9231813c.67425-.1927772 1.0687708-.9044767.8766458-1.5810156M39.6852917 47.7221782c-1.2016875 0-2.1756042-.9772228-2.1756042-2.1829896 0-1.0263264.7092917-1.8816995 1.6608542-2.114487-.8258959-.4831555-1.7828959-.7650467-2.8081667-.7650467-3.0866875 0-5.5885417 2.5109534-5.5885417 5.607513 0 3.0971658 2.5018542 5.6075129 5.5885417 5.6075129 3.0866875 0 5.5885417-2.5103471 5.5885417-5.6075129 0-.6316788-.10875-1.2372902-.3014792-1.8041037-.3467917.7420104-1.0929375 1.259114-1.9641458 1.259114M57.8693792 82.6564383c7.25 0 13.1267291-5.8972849 13.1267291-13.1712901H44.74265c0 7.2740052 5.8767292 13.1712901 13.1267292 13.1712901" fill="#C3C8CD"/>
  </g>
</svg>
