<?xml version="1.0" encoding="UTF-8"?>
<svg width="29px" height="78px" viewBox="0 0 29 78" version="1.1" xmlns="http://www.w3.org/2000/svg" xmlns:xlink="http://www.w3.org/1999/xlink">
    <!-- Generator: Sketch 49.2 (51160) - http://www.bohemiancoding.com/sketch -->
    <title>ic_Add_group</title>
    <desc>Created with Sketch.</desc>
    <defs></defs>
    <g id="Page-1" stroke="none" stroke-width="1" fill="none" fill-rule="evenodd">
        <g id="ic_Add_group" transform="translate(-3.000000, -1.000000)" fill-rule="nonzero">
            <g id="Layer_1" transform="translate(3.000000, 1.000000)">
                <path d="M5.25,7.817 C5.25,4.839 7.673,2.417 10.65,2.417 C13.627,2.417 16.05,4.84 16.05,7.817 C16.05,9.048 15.631,10.18 14.935,11.089 C15.387,11.306 15.821,11.561 16.232,11.856 C17.057,10.719 17.55,9.326 17.55,7.817 C17.55,4.012 14.454,0.917 10.65,0.917 C6.846,0.917 3.75,4.013 3.75,7.817 C3.75,9.442 4.318,10.936 5.263,12.116 C5.659,11.802 6.076,11.52 6.514,11.282 C5.727,10.344 5.25,9.136 5.25,7.817 Z" id="Shape" fill="#AAAAAA"></path>
                <path d="M15.213,12.98 C14.77,12.674 14.29,12.416 13.771,12.216 C12.889,12.844 11.814,13.217 10.651,13.217 C9.579,13.217 8.582,12.9 7.741,12.359 C7.235,12.585 6.766,12.864 6.337,13.194 C7.52,14.145 9.02,14.717 10.651,14.717 C12.4,14.718 13.995,14.058 15.213,12.98 Z" id="Shape" fill="#AAAAAA"></path>
                <path d="M6.514,11.282 C6.076,11.52 5.66,11.802 5.263,12.116 C5.58,12.513 5.94,12.875 6.336,13.194 C6.766,12.864 7.234,12.585 7.74,12.359 C7.279,12.062 6.865,11.701 6.514,11.282 Z" id="Shape" fill="#AAAAAA"></path>
                <path d="M21.744,26.18 C21.618,24.847 21.118,21.806 20.708,19.636 C20.125,16.561 18.818,14.113 17.011,12.485 C16.711,12.892 16.374,13.269 16.003,13.612 C17.751,15.208 18.796,17.605 19.233,19.916 C19.638,22.052 20.129,25.032 20.25,26.321 C20.346,27.342 20.149,28.106 19.648,28.656 C18.445,29.977 15.592,30.087 12.525,30.087 L10.65,30.085 L9.319,30.087 C6.252,30.087 3.399,29.978 2.196,28.656 C1.695,28.106 1.499,27.343 1.594,26.321 C1.715,25.032 2.205,22.051 2.611,19.916 C3.026,17.725 3.984,15.452 5.572,13.862 C5.184,13.536 4.829,13.173 4.51,12.778 C2.868,14.401 1.685,16.745 1.137,19.636 C0.727,21.806 0.227,24.847 0.101,26.18 C-0.034,27.625 0.297,28.798 1.087,29.665 C2.702,31.439 5.903,31.586 9.319,31.586 L10.65,31.584 L12.525,31.586 C15.942,31.586 19.142,31.44 20.757,29.665 C21.548,28.798 21.879,27.626 21.744,26.18 Z" id="Shape" fill="#AAAAAA"></path>
                <path d="M13.771,12.217 C14.291,12.416 14.77,12.675 15.213,12.981 C15.593,12.645 15.935,12.269 16.233,11.857 C15.822,11.562 15.388,11.307 14.936,11.09 C14.605,11.521 14.214,11.901 13.771,12.217 Z" id="Shape" fill="#AAAAAA"></path>
                <path d="M17.551,7.817 C17.551,4.012 14.455,0.917 10.651,0.917 C6.847,0.917 3.751,4.013 3.751,7.817 C3.751,9.442 4.319,10.936 5.264,12.116 C5.581,12.513 5.941,12.875 6.337,13.194 C7.52,14.145 9.02,14.717 10.651,14.717 C12.401,14.717 13.996,14.057 15.213,12.98 C15.593,12.644 15.935,12.268 16.233,11.856 C17.058,10.72 17.551,9.326 17.551,7.817 Z M14.936,11.09 C14.606,11.522 14.214,11.902 13.771,12.217 C12.889,12.845 11.814,13.218 10.651,13.218 C9.579,13.218 8.582,12.901 7.741,12.36 C7.28,12.063 6.866,11.702 6.514,11.283 C5.727,10.344 5.25,9.136 5.25,7.817 C5.25,4.839 7.673,2.417 10.65,2.417 C13.627,2.417 16.05,4.84 16.05,7.817 C16.051,9.049 15.632,10.181 14.936,11.09 Z" id="Shape" fill="#AAAAAA"></path>
                <path d="M19.238,3.805 C18.582,3.805 17.954,3.924 17.367,4.131 C17.567,4.488 17.794,4.956 17.981,5.521 C18.38,5.393 18.797,5.305 19.238,5.305 C21.514,5.305 23.367,7.158 23.367,9.434 C23.367,11.711 21.514,13.564 19.238,13.564 C19.197,13.564 19.158,13.553 19.117,13.551 C19.397,13.963 19.708,14.459 19.999,15.006 C22.743,14.632 24.867,12.279 24.867,9.434 C24.867,6.33 22.342,3.805 19.238,3.805 Z" id="Shape" fill="#AAAAAA"></path>
                <path d="M28.194,23.987 C28.092,22.923 27.695,20.505 27.37,18.781 C26.92,16.406 25.893,14.47 24.485,13.148 C24.198,13.553 23.865,13.921 23.495,14.249 C24.787,15.49 25.563,17.309 25.895,19.061 C26.208,20.713 26.605,23.122 26.7,24.128 C26.772,24.893 26.629,25.46 26.262,25.861 C25.608,26.58 24.221,26.823 22.64,26.904 C22.616,27.331 22.544,27.86 22.378,28.417 C24.47,28.337 26.318,28.027 27.371,26.872 C28.029,26.15 28.306,25.18 28.194,23.987 Z" id="Shape" fill="#AAAAAA"></path>
                <path d="M5.25,53.817 C5.25,50.839 7.673,48.417 10.65,48.417 C13.627,48.417 16.05,50.84 16.05,53.817 C16.05,55.048 15.631,56.18 14.935,57.089 C15.387,57.306 15.821,57.561 16.232,57.856 C17.057,56.719 17.55,55.326 17.55,53.817 C17.55,50.012 14.454,46.917 10.65,46.917 C6.846,46.917 3.75,50.013 3.75,53.817 C3.75,55.442 4.318,56.936 5.263,58.116 C5.659,57.802 6.076,57.52 6.514,57.282 C5.727,56.344 5.25,55.136 5.25,53.817 Z" id="Shape" fill="#84765B"></path>
                <path d="M15.213,58.98 C14.77,58.674 14.29,58.416 13.771,58.216 C12.889,58.844 11.814,59.217 10.651,59.217 C9.579,59.217 8.582,58.9 7.741,58.359 C7.235,58.585 6.766,58.864 6.337,59.194 C7.52,60.145 9.02,60.717 10.651,60.717 C12.4,60.718 13.995,60.058 15.213,58.98 Z" id="Shape" fill="#84765B"></path>
                <path d="M6.514,57.282 C6.076,57.52 5.66,57.802 5.263,58.116 C5.58,58.513 5.94,58.875 6.336,59.194 C6.766,58.864 7.234,58.585 7.74,58.359 C7.279,58.062 6.865,57.701 6.514,57.282 Z" id="Shape" fill="#84765B"></path>
                <path d="M21.744,72.18 C21.618,70.847 21.118,67.806 20.708,65.636 C20.125,62.561 18.818,60.113 17.011,58.485 C16.711,58.892 16.374,59.269 16.003,59.612 C17.751,61.208 18.796,63.605 19.233,65.916 C19.638,68.052 20.129,71.032 20.25,72.321 C20.346,73.342 20.149,74.106 19.648,74.656 C18.445,75.977 15.592,76.087 12.525,76.087 L10.65,76.085 L9.319,76.087 C6.252,76.087 3.399,75.978 2.196,74.656 C1.695,74.106 1.499,73.343 1.594,72.321 C1.715,71.032 2.205,68.051 2.611,65.916 C3.026,63.725 3.984,61.452 5.572,59.862 C5.184,59.536 4.829,59.173 4.51,58.778 C2.868,60.401 1.685,62.745 1.137,65.636 C0.727,67.806 0.227,70.847 0.101,72.18 C-0.034,73.625 0.297,74.798 1.087,75.665 C2.702,77.439 5.903,77.586 9.319,77.586 L10.65,77.584 L12.525,77.586 C15.942,77.586 19.142,77.44 20.757,75.665 C21.548,74.798 21.879,73.626 21.744,72.18 Z" id="Shape" fill="#84765B"></path>
                <path d="M13.771,58.217 C14.291,58.416 14.77,58.675 15.213,58.981 C15.593,58.645 15.935,58.269 16.233,57.857 C15.822,57.562 15.388,57.307 14.936,57.09 C14.605,57.521 14.214,57.901 13.771,58.217 Z" id="Shape" fill="#84765B"></path>
                <path d="M17.551,53.817 C17.551,50.012 14.455,46.917 10.651,46.917 C6.847,46.917 3.751,50.013 3.751,53.817 C3.751,55.442 4.319,56.936 5.264,58.116 C5.581,58.513 5.941,58.875 6.337,59.194 C7.52,60.145 9.02,60.717 10.651,60.717 C12.401,60.717 13.996,60.057 15.213,58.98 C15.593,58.644 15.935,58.268 16.233,57.856 C17.058,56.72 17.551,55.326 17.551,53.817 Z M14.936,57.09 C14.606,57.522 14.214,57.902 13.771,58.217 C12.889,58.845 11.814,59.218 10.651,59.218 C9.579,59.218 8.582,58.901 7.741,58.36 C7.28,58.063 6.866,57.702 6.514,57.283 C5.727,56.345 5.25,55.137 5.25,53.818 C5.25,50.84 7.673,48.418 10.65,48.418 C13.627,48.418 16.05,50.841 16.05,53.818 C16.051,55.049 15.632,56.181 14.936,57.09 Z" id="XMLID_1_" fill="#84765B"></path>
                <path d="M19.238,49.805 C18.582,49.805 17.954,49.924 17.367,50.131 C17.567,50.488 17.794,50.956 17.981,51.521 C18.38,51.393 18.797,51.305 19.238,51.305 C21.514,51.305 23.367,53.158 23.367,55.434 C23.367,57.711 21.514,59.564 19.238,59.564 C19.197,59.564 19.158,59.553 19.117,59.551 C19.397,59.963 19.708,60.459 19.999,61.006 C22.743,60.632 24.867,58.279 24.867,55.434 C24.867,52.33 22.342,49.805 19.238,49.805 Z" id="Shape" fill="#84765B"></path>
                <path d="M28.194,69.987 C28.092,68.923 27.695,66.505 27.37,64.781 C26.92,62.406 25.893,60.47 24.485,59.148 C24.198,59.553 23.865,59.921 23.495,60.249 C24.787,61.49 25.563,63.309 25.895,65.061 C26.208,66.713 26.605,69.122 26.7,70.128 C26.772,70.893 26.629,71.46 26.262,71.861 C25.608,72.58 24.221,72.823 22.64,72.904 C22.616,73.331 22.544,73.86 22.378,74.417 C24.47,74.337 26.318,74.027 27.371,72.872 C28.029,72.15 28.306,71.18 28.194,69.987 Z" id="Shape" fill="#84765B"></path>
            </g>
        </g>
    </g>
</svg>