<?xml version="1.0" encoding="UTF-8"?>
<svg width="16px" height="16px" viewBox="0 0 16 16" version="1.1" xmlns="http://www.w3.org/2000/svg" xmlns:xlink="http://www.w3.org/1999/xlink">
    <!-- Generator: Sketch 49.2 (51160) - http://www.bohemiancoding.com/sketch -->
    <title>ic_attach</title>
    <desc>Created with Sketch.</desc>
    <defs></defs>
    <g id="Page-1" stroke="none" stroke-width="1" fill="none" fill-rule="evenodd">
        <g id="ThemeStyles" transform="translate(-1109.000000, -1997.000000)" fill="#84765B">
            <g id="ic_attach" transform="translate(1109.000000, 1997.000000)">
                <path d="M0.814,12.583 C0.897,11.852 1.253,11.172 1.88,10.545 L8.024,4.401 C9.279,3.168 10.406,2.99 11.409,3.869 C12.309,4.788 11.93,5.746 10.656,7.063 L4.981,12.706 L4.105,11.738 L9.716,6.126 C9.737,6.126 10.125,5.721 10.198,5.626 C10.414,5.369 10.552,5.198 10.339,4.951 C10.087,4.679 9.706,4.944 9.12,5.53 L3.008,11.643 C2.611,12.019 2.391,12.384 2.349,12.741 C2.307,13.158 2.495,13.577 2.914,13.995 C3.352,14.349 3.724,14.501 4.026,14.449 C4.33,14.396 4.711,14.15 5.171,13.712 C6.048,12.856 7.213,11.702 8.666,10.264 C10.119,8.823 11.159,7.778 11.786,7.13 C11.807,7.109 12.307,6.65 12.82,5.975 C13.194,5.485 13.505,5.034 13.572,4.747 C13.719,4.049 13.561,3.482 13.04,2.772 C12.519,2.062 11.9,1.664 11.189,1.581 C10.459,1.498 9.642,1.884 8.745,2.741 L2.036,9.45 L0.939,8.384 L7.648,1.644 C8.693,0.62 9.759,0.082 10.846,0.029 C11.933,-0.023 12.946,0.421 13.886,1.362 C15.014,2.511 15.411,3.776 15.077,5.155 C14.868,5.949 14.367,6.754 13.572,7.569 C12.652,8.468 11.336,9.774 9.622,11.488 L6.269,14.84 C5.517,15.591 4.712,15.98 3.855,16 C3.124,16 2.455,15.696 1.845,15.091 C1.093,14.338 0.748,13.502 0.81,12.583" id="Shape"></path>
            </g>
        </g>
    </g>
</svg>