<?xml version="1.0" encoding="UTF-8"?>
<svg width="32px" height="78px" viewBox="0 0 32 78" version="1.1" xmlns="http://www.w3.org/2000/svg" xmlns:xlink="http://www.w3.org/1999/xlink">
    <!-- Generator: Sketch 49.2 (51160) - http://www.bohemiancoding.com/sketch -->
    <title>ic_Add_forum</title>
    <desc>Created with Sketch.</desc>
    <defs></defs>
    <g id="Page-1" stroke="none" stroke-width="1" fill="none" fill-rule="evenodd">
        <g id="ic_Add_forum" transform="translate(-1.000000, -1.000000)" fill-rule="nonzero">
            <g id="Layer_2" transform="translate(1.000000, 1.000000)">
                <path d="M17.299,19.083 L17.299,21.679 C17.299,22.016 16.994,22.29 16.62,22.29 L8.222,22.29 C7.63,22.29 7.072,22.524 6.672,22.927 L3.122,26.354 C2.98,26.496 2.801,26.57 2.601,26.57 C2.402,26.57 2.217,26.492 2.073,26.349 C1.929,26.205 1.854,26.024 1.854,25.823 L1.854,12.654 C1.854,12.316 2.159,12.042 2.533,12.042 L5.387,12.042 L5.387,10.542 L2.532,10.542 C1.331,10.542 0.353,11.488 0.353,12.654 L0.353,25.822 C0.353,26.42 0.586,26.984 1.011,27.409 C1.441,27.834 2.004,28.069 2.6,28.069 C3.197,28.069 3.758,27.837 4.18,27.417 L7.713,24.006 C7.855,23.863 8.032,23.79 8.221,23.79 L16.619,23.79 C17.821,23.79 18.798,22.844 18.798,21.679 L18.798,19.083 L17.299,19.083 Z" id="Shape" fill="#AAAAAA"></path>
                <path d="M28.425,1.5 C29.374,1.5 30.146,2.229 30.146,3.122 L30.146,22.588 C30.146,23.072 29.957,23.528 29.62,23.866 C29.266,24.217 28.806,24.409 28.325,24.409 C27.843,24.409 27.388,24.221 27.031,23.866 L21.83,18.845 C21.341,18.355 20.697,18.084 20.017,18.084 L7.6,18.084 C6.651,18.084 5.879,17.356 5.879,16.463 L5.879,9.121 L5.879,7.242 L5.879,3.122 C5.879,2.229 6.65,1.5 7.6,1.5 L12.957,1.5 L14.836,1.5 L28.425,1.5 Z M28.425,0 L14.836,0 L12.957,0 L7.6,0 C5.823,0 4.379,1.399 4.379,3.122 L4.379,7.242 L4.379,9.121 L4.379,16.463 C4.379,18.186 5.823,19.584 7.6,19.584 L20.016,19.584 C20.294,19.584 20.556,19.692 20.766,19.903 L25.989,24.945 C26.613,25.566 27.442,25.909 28.325,25.909 C29.206,25.909 30.038,25.561 30.674,24.933 C31.301,24.305 31.647,23.471 31.647,22.587 L31.647,3.122 C31.646,1.399 30.201,0 28.425,0 Z" id="Shape" fill="#AAAAAA"></path>
                <g id="Group" transform="translate(10.000000, 6.000000)" fill="#AAAAAA">
                    <path d="M1.043,1.646 C0.638,1.646 0.307,1.316 0.307,0.908 C0.307,0.5 0.638,0.168 1.043,0.17 L14.979,0.17 C15.387,0.168 15.718,0.5 15.718,0.908 C15.718,1.316 15.387,1.645 14.981,1.646 L1.043,1.646 Z" id="Shape"></path>
                    <path d="M3.043,4.843 C2.638,4.843 2.307,4.513 2.307,4.105 C2.307,3.697 2.638,3.367 3.043,3.367 L12.979,3.367 C13.387,3.367 13.718,3.697 13.718,4.105 C13.718,4.513 13.387,4.843 12.981,4.843 L3.043,4.843 Z" id="Shape"></path>
                    <path d="M1.043,8.042 C0.638,8.042 0.307,7.71 0.307,7.304 C0.307,6.894 0.638,6.564 1.043,6.566 L14.979,6.566 C15.387,6.564 15.718,6.894 15.718,7.304 C15.718,7.71 15.387,8.042 14.981,8.042 L1.043,8.042 Z" id="Shape"></path>
                </g>
                <path d="M17.299,68.083 L17.299,70.679 C17.299,71.016 16.994,71.29 16.62,71.29 L8.222,71.29 C7.63,71.29 7.072,71.524 6.672,71.927 L3.122,75.354 C2.98,75.496 2.801,75.57 2.601,75.57 C2.402,75.57 2.217,75.492 2.073,75.349 C1.929,75.205 1.854,75.024 1.854,74.823 L1.854,61.654 C1.854,61.316 2.159,61.042 2.533,61.042 L5.387,61.042 L5.387,59.542 L2.532,59.542 C1.331,59.542 0.353,60.488 0.353,61.654 L0.353,74.822 C0.353,75.42 0.586,75.984 1.011,76.409 C1.441,76.834 2.004,77.069 2.6,77.069 C3.197,77.069 3.758,76.837 4.18,76.417 L7.713,73.006 C7.855,72.863 8.032,72.79 8.221,72.79 L16.619,72.79 C17.821,72.79 18.798,71.844 18.798,70.679 L18.798,68.083 L17.299,68.083 Z" id="Shape" fill="#84765B"></path>
                <path d="M28.425,50.5 C29.374,50.5 30.146,51.229 30.146,52.122 L30.146,71.588 C30.146,72.072 29.957,72.528 29.62,72.866 C29.266,73.217 28.806,73.409 28.325,73.409 C27.843,73.409 27.388,73.221 27.031,72.866 L21.83,67.845 C21.341,67.355 20.697,67.084 20.017,67.084 L7.6,67.084 C6.651,67.084 5.879,66.356 5.879,65.463 L5.879,58.121 L5.879,56.242 L5.879,52.122 C5.879,51.228 6.65,50.5 7.6,50.5 L12.957,50.5 L14.836,50.5 L28.425,50.5 Z M28.425,49 L14.836,49 L12.957,49 L7.6,49 C5.824,49 4.379,50.399 4.379,52.122 L4.379,56.242 L4.379,58.121 L4.379,65.463 C4.379,67.186 5.823,68.584 7.6,68.584 L20.016,68.584 C20.294,68.584 20.556,68.692 20.766,68.903 L25.989,73.945 C26.613,74.566 27.442,74.909 28.325,74.909 C29.206,74.909 30.038,74.561 30.674,73.933 C31.301,73.305 31.647,72.471 31.647,71.587 L31.647,52.122 C31.646,50.399 30.201,49 28.425,49 Z" id="Shape" fill="#84765B"></path>
                <g id="Group" transform="translate(10.000000, 55.000000)" fill="#84765B">
                    <path d="M1.043,1.646 C0.638,1.646 0.307,1.316 0.307,0.908 C0.307,0.5 0.638,0.168 1.043,0.17 L14.979,0.17 C15.387,0.168 15.718,0.5 15.718,0.908 C15.718,1.316 15.387,1.645 14.981,1.646 L1.043,1.646 Z" id="Shape"></path>
                    <path d="M3.043,4.843 C2.638,4.843 2.307,4.513 2.307,4.105 C2.307,3.697 2.638,3.367 3.043,3.367 L12.979,3.367 C13.387,3.367 13.718,3.697 13.718,4.105 C13.718,4.513 13.387,4.843 12.981,4.843 L3.043,4.843 Z" id="Shape"></path>
                    <path d="M1.043,8.042 C0.638,8.042 0.307,7.71 0.307,7.304 C0.307,6.894 0.638,6.564 1.043,6.566 L14.979,6.566 C15.387,6.564 15.718,6.894 15.718,7.304 C15.718,7.71 15.387,8.042 14.981,8.042 L1.043,8.042 Z" id="Shape"></path>
                </g>
            </g>
        </g>
    </g>
</svg>