<?xml version="1.0" encoding="UTF-8"?>
<svg width="32px" height="79px" viewBox="0 0 32 79" version="1.1" xmlns="http://www.w3.org/2000/svg" xmlns:xlink="http://www.w3.org/1999/xlink">
    <!-- Generator: Sketch 49.2 (51160) - http://www.bohemiancoding.com/sketch -->
    <title>ic_Add_photo</title>
    <desc>Created with Sketch.</desc>
    <defs></defs>
    <g id="Page-1" stroke="none" stroke-width="1" fill="none" fill-rule="evenodd">
        <g id="ic_Add_photo" transform="translate(-1.000000, 0.000000)" fill-rule="nonzero">
            <g id="Layer_4" transform="translate(1.000000, 0.000000)">
                <path d="M30.119,2.343 L30.119,31.316 L1.882,31.316 L1.882,2.343 L30.119,2.343 Z M30.119,0.843 L1.882,0.843 C1.054,0.843 0.382,1.515 0.382,2.343 L0.382,31.316 C0.382,32.144 1.054,32.816 1.882,32.816 L30.119,32.816 C30.947,32.816 31.619,32.144 31.619,31.316 L31.619,2.343 C31.619,1.515 30.947,0.843 30.119,0.843 Z" id="Shape" fill="#AAAAAA"></path>
                <path d="M26.688,5.777 L26.688,24.881 L5.313,24.881 L5.313,5.777 L26.688,5.777 Z M28.188,4.277 L26.688,4.277 L5.313,4.277 L3.813,4.277 L3.813,5.777 L3.813,24.881 L3.813,26.381 L5.313,26.381 L26.687,26.381 L28.187,26.381 L28.187,24.881 L28.187,5.777 L28.187,4.277 L28.188,4.277 Z" id="Shape" fill="#AAAAAA"></path>
                <path d="M11.923,23.206 C14.818,20.338 17.712,17.471 20.608,14.603 C20.313,14.603 20.018,14.603 19.723,14.603 C22.015,16.644 24.307,18.686 26.598,20.728 C27.199,21.262 28.085,20.381 27.483,19.843 C25.191,17.802 22.899,15.76 20.608,13.718 C20.352,13.491 19.976,13.468 19.723,13.718 C16.828,16.586 13.934,19.453 11.038,22.321 C10.465,22.89 11.35,23.773 11.923,23.206 Z" id="Shape" fill="#AAAAAA"></path>
                <path d="M5.45,22.234 C7.557,20.146 9.666,18.058 11.774,15.97 C11.479,15.97 11.184,15.97 10.889,15.97 C12.548,17.448 14.207,18.925 15.866,20.404 C16.467,20.938 17.353,20.057 16.751,19.519 C15.092,18.041 13.433,16.564 11.774,15.085 C11.518,14.858 11.142,14.835 10.889,15.085 C8.782,17.173 6.673,19.261 4.565,21.349 C3.992,21.918 4.877,22.802 5.45,22.234 Z" id="Shape" fill="#AAAAAA"></path>
                <circle id="Oval" fill="#AAAAAA" cx="15.477" cy="11.277" r="2.688"></circle>
                <path d="M30.119,48.343 L30.119,77.316 L1.882,77.316 L1.882,48.343 L30.119,48.343 Z M30.119,46.843 L1.882,46.843 C1.053,46.843 0.382,47.515 0.382,48.343 L0.382,77.316 C0.382,78.144 1.053,78.816 1.882,78.816 L30.119,78.816 C30.947,78.816 31.619,78.144 31.619,77.316 L31.619,48.343 C31.619,47.515 30.947,46.843 30.119,46.843 Z" id="Shape" fill="#84765B"></path>
                <path d="M26.688,51.777 L26.688,70.881 L5.313,70.881 L5.313,51.777 L26.688,51.777 Z M28.188,50.277 L26.688,50.277 L5.313,50.277 L3.813,50.277 L3.813,51.777 L3.813,70.881 L3.813,72.381 L5.313,72.381 L26.687,72.381 L28.187,72.381 L28.187,70.881 L28.187,51.777 L28.187,50.277 L28.188,50.277 Z" id="Shape" fill="#84765B"></path>
                <path d="M11.922,69.206 C14.817,66.338 17.712,63.471 20.607,60.603 C20.312,60.603 20.017,60.603 19.722,60.603 C22.014,62.644 24.306,64.686 26.597,66.728 C27.198,67.262 28.084,66.381 27.482,65.843 C25.19,63.802 22.898,61.76 20.607,59.718 C20.351,59.491 19.975,59.468 19.722,59.718 C16.827,62.586 13.933,65.453 11.038,68.321 C10.465,68.89 11.35,69.773 11.922,69.206 Z" id="Shape" fill="#84765B"></path>
                <path d="M5.45,68.234 C7.558,66.146 9.666,64.058 11.774,61.97 C11.48,61.97 11.185,61.97 10.89,61.97 C12.549,63.448 14.208,64.925 15.867,66.404 C16.467,66.938 17.354,66.057 16.751,65.519 C15.092,64.041 13.433,62.564 11.774,61.085 C11.519,60.858 11.143,60.835 10.89,61.085 C8.782,63.173 6.674,65.261 4.566,67.349 C3.993,67.918 4.876,68.802 5.45,68.234 Z" id="Shape" fill="#84765B"></path>
                <circle id="Oval" fill="#84765B" cx="15.477" cy="57.277" r="2.688"></circle>
            </g>
        </g>
    </g>
</svg>