<?xml version="1.0" encoding="UTF-8"?>
<svg width="32px" height="77px" viewBox="0 0 32 77" version="1.1" xmlns="http://www.w3.org/2000/svg" xmlns:xlink="http://www.w3.org/1999/xlink">
    <!-- Generator: Sketch 49.2 (51160) - http://www.bohemiancoding.com/sketch -->
    <title>ic_Add_event</title>
    <desc>Created with Sketch.</desc>
    <defs></defs>
    <g id="Page-1" stroke="none" stroke-width="1" fill="none" fill-rule="evenodd">
        <g id="ic_Add_event" transform="translate(-1.000000, -1.000000)" fill-rule="nonzero">
            <g id="Layer_6" transform="translate(1.000000, 1.000000)">
                <g id="Group" fill="#AAAAAA">
                    <g transform="translate(6.000000, 12.000000)" id="Shape">
                        <path d="M1.485,1.844 C1.104,1.844 0.794,1.533 0.793,1.153 C0.794,0.768 1.105,0.458 1.485,0.46 L17.805,0.46 C18.187,0.458 18.497,0.769 18.498,1.153 C18.497,1.534 18.187,1.844 17.806,1.844 L1.485,1.844 Z"></path>
                        <path d="M1.485,6.844 C1.104,6.844 0.794,6.533 0.793,6.153 C0.794,5.768 1.105,5.458 1.485,5.46 L17.805,5.46 C18.187,5.458 18.497,5.769 18.498,6.153 C18.497,6.534 18.187,6.844 17.806,6.844 L1.485,6.844 Z"></path>
                        <path d="M1.485,11.844 C1.104,11.844 0.794,11.533 0.793,11.153 C0.794,10.768 1.105,10.458 1.485,10.46 L17.805,10.46 C18.187,10.458 18.497,10.769 18.498,11.153 C18.497,11.534 18.187,11.844 17.806,11.844 L1.485,11.844 Z"></path>
                    </g>
                    <path d="M25.09,2.213 L25.09,3.729 C27.706,3.889 29.792,6.047 29.792,8.704 L29.792,27.6 C29.792,30.36 27.546,32.606 24.786,32.606 L6.507,32.606 C3.746,32.606 1.5,30.36 1.5,27.6 L1.5,8.703 C1.5,6.047 3.585,3.89 6.201,3.728 L6.201,2.213 C2.75,2.373 0,5.213 0,8.703 L0,27.6 C0,31.194 2.913,34.106 6.507,34.106 L24.786,34.106 C28.38,34.106 31.292,31.194 31.292,27.6 L31.292,8.703 C31.292,5.213 28.541,2.372 25.09,2.213 Z" id="Shape"></path>
                    <rect id="Rectangle-path" x="10.939" y="2.197" width="9.412" height="1.5"></rect>
                    <path d="M8.57,0 C7.814,0 7.201,0.613 7.201,1.369 L7.201,4.717 C7.201,5.473 7.814,6.086 8.57,6.086 C9.326,6.086 9.939,5.473 9.939,4.717 L9.939,1.369 C9.939,0.613 9.326,0 8.57,0 Z" id="Shape"></path>
                    <path d="M22.721,0 C21.965,0 21.352,0.613 21.352,1.369 L21.352,4.717 C21.352,5.473 21.965,6.086 22.721,6.086 C23.477,6.086 24.09,5.473 24.09,4.717 L24.09,1.369 C24.09,0.613 23.477,0 22.721,0 Z" id="Shape"></path>
                </g>
                <g id="Group" transform="translate(0.000000, 42.000000)" fill="#84765B">
                    <g transform="translate(6.000000, 13.000000)" id="Shape">
                        <path d="M1.485,1.738 C1.104,1.738 0.794,1.427 0.793,1.047 C0.794,0.662 1.105,0.352 1.485,0.354 L17.805,0.354 C18.187,0.352 18.497,0.663 18.498,1.047 C18.497,1.428 18.187,1.738 17.806,1.738 L1.485,1.738 Z"></path>
                        <path d="M1.485,6.738 C1.104,6.738 0.794,6.427 0.793,6.047 C0.794,5.662 1.105,5.352 1.485,5.354 L17.805,5.354 C18.187,5.352 18.497,5.663 18.498,6.047 C18.497,6.428 18.187,6.738 17.806,6.738 L1.485,6.738 Z"></path>
                        <path d="M1.485,11.738 C1.104,11.738 0.794,11.427 0.793,11.047 C0.794,10.662 1.105,10.352 1.485,10.354 L17.805,10.354 C18.187,10.352 18.497,10.663 18.498,11.047 C18.497,11.428 18.187,11.738 17.806,11.738 L1.485,11.738 Z"></path>
                    </g>
                    <path d="M25.09,3.107 L25.09,4.623 C27.706,4.783 29.792,6.941 29.792,9.598 L29.792,28.494 C29.792,31.254 27.546,33.5 24.786,33.5 L6.507,33.5 C3.746,33.5 1.5,31.254 1.5,28.494 L1.5,9.598 C1.5,6.942 3.585,4.785 6.201,4.623 L6.201,3.107 C2.75,3.268 0,6.107 0,9.598 L0,28.494 C0,32.088 2.913,35 6.507,35 L24.786,35 C28.38,35 31.292,32.088 31.292,28.494 L31.292,9.598 C31.292,6.107 28.541,3.267 25.09,3.107 Z" id="Shape"></path>
                    <rect id="Rectangle-path" x="10.939" y="3.092" width="9.412" height="1.5"></rect>
                    <path d="M8.57,0.895 C7.814,0.895 7.201,1.508 7.201,2.264 L7.201,5.612 C7.201,6.368 7.814,6.981 8.57,6.981 C9.326,6.981 9.939,6.368 9.939,5.612 L9.939,2.264 C9.939,1.508 9.326,0.895 8.57,0.895 Z" id="Shape"></path>
                    <path d="M22.721,0.895 C21.965,0.895 21.352,1.508 21.352,2.264 L21.352,5.612 C21.352,6.368 21.965,6.981 22.721,6.981 C23.477,6.981 24.09,6.368 24.09,5.612 L24.09,2.264 C24.09,1.508 23.477,0.895 22.721,0.895 Z" id="Shape"></path>
                </g>
            </g>
        </g>
    </g>
</svg>