<?xml version="1.0" encoding="UTF-8"?>
<svg width="32px" height="78px" viewBox="0 0 32 78" version="1.1" xmlns="http://www.w3.org/2000/svg" xmlns:xlink="http://www.w3.org/1999/xlink">
    <!-- Generator: Sketch 49.2 (51160) - http://www.bohemiancoding.com/sketch -->
    <title>ic_Add_blog</title>
    <desc>Created with Sketch.</desc>
    <defs></defs>
    <g id="Page-1" stroke="none" stroke-width="1" fill="none" fill-rule="evenodd">
        <g id="ic_Add_blog" transform="translate(-1.000000, -1.000000)" fill-rule="nonzero">
            <g id="Layer_5" transform="translate(0.000000, 1.000000)">
                <path d="M24.396,1.432 C24.58,1.432 24.763,1.502 24.904,1.643 L30.621,7.359 C30.898,7.638 30.898,8.092 30.621,8.372 L11.078,27.913 C10.983,28.009 10.863,28.075 10.732,28.104 L3.31,29.811 C3.258,29.822 3.204,29.83 3.15,29.83 C2.962,29.83 2.779,29.755 2.643,29.621 C2.468,29.444 2.397,29.193 2.452,28.954 L4.158,21.529 C4.187,21.4 4.254,21.279 4.349,21.185 L23.891,1.643 C24.031,1.502 24.213,1.432 24.396,1.432 Z M24.396,0 C23.822,0 23.283,0.224 22.878,0.63 L3.335,20.171 C3.047,20.459 2.848,20.821 2.76,21.216 L1.055,28.632 C0.888,29.359 1.103,30.107 1.63,30.632 C2.036,31.038 2.575,31.261 3.15,31.261 C3.31,31.261 3.47,31.241 3.627,31.208 L11.053,29.501 C11.442,29.413 11.802,29.214 12.09,28.927 L31.632,9.383 C32.47,8.546 32.47,7.184 31.632,6.347 L25.916,0.63 C25.512,0.225 24.973,0 24.396,0 Z" id="Shape" fill="#AAAAAA"></path>
                <rect id="Rectangle-path" fill="#AAAAAA" transform="translate(5.316476, 26.678504) rotate(45.000000) translate(-5.316476, -26.678504) " x="1.52701259" y="26.0665097" width="7.57892732" height="1.22398826"></rect>
                <rect id="Rectangle-path" fill="#AAAAAA" transform="translate(24.346772, 7.857956) rotate(45.000000) translate(-24.346772, -7.857956) " x="18.9758234" y="7.24496138" width="10.741897" height="1.22598824"></rect>
                <path d="M7.612,23.132 C7.35,23.394 6.925,23.394 6.662,23.132 C6.4,22.868 6.4,22.443 6.662,22.182 L20.588,8.256 C20.851,7.993 21.277,7.993 21.537,8.256 C21.801,8.518 21.801,8.943 21.537,9.205 L7.612,23.132 Z" id="Shape" fill="#AAAAAA"></path>
                <path d="M16.024,31.118 C15.655,31.118 15.354,30.817 15.353,30.448 C15.354,30.075 15.655,29.774 16.024,29.776 L31.842,29.776 C32.213,29.774 32.514,30.075 32.514,30.448 C32.514,30.817 32.213,31.118 31.844,31.118 L16.024,31.118 Z" id="Shape" fill="#AAAAAA"></path>
                <path d="M18.932,27.241 C18.563,27.241 18.262,26.94 18.261,26.571 C18.262,26.198 18.563,25.897 18.932,25.899 L31.842,25.899 C32.213,25.897 32.514,26.198 32.514,26.571 C32.514,26.94 32.213,27.241 31.844,27.241 L18.932,27.241 Z" id="Shape" fill="#AAAAAA"></path>
                <path d="M22.809,23.364 C22.44,23.364 22.139,23.063 22.139,22.694 C22.139,22.321 22.44,22.02 22.809,22.022 L31.842,22.022 C32.213,22.02 32.514,22.321 32.514,22.694 C32.514,23.063 32.213,23.364 31.844,23.364 L22.809,23.364 Z" id="Shape" fill="#AAAAAA"></path>
                <path d="M10.081,25.599 C9.819,25.863 9.394,25.863 9.132,25.599 C8.87,25.337 8.87,24.911 9.132,24.651 L23.057,10.725 C23.319,10.463 23.745,10.463 24.006,10.725 C24.27,10.987 24.27,11.412 24.006,11.675 L10.081,25.599 Z" id="Shape" fill="#AAAAAA"></path>
                <path d="M24.396,48.171 C24.58,48.171 24.763,48.241 24.904,48.382 L30.621,54.098 C30.898,54.377 30.898,54.831 30.621,55.111 L11.078,74.652 C10.983,74.748 10.863,74.814 10.732,74.843 L3.31,76.55 C3.258,76.561 3.204,76.569 3.15,76.569 C2.962,76.569 2.779,76.494 2.643,76.36 C2.468,76.183 2.397,75.932 2.452,75.693 L4.158,68.268 C4.187,68.139 4.254,68.018 4.349,67.924 L23.891,48.382 C24.031,48.241 24.213,48.171 24.396,48.171 Z M24.396,46.739 C23.822,46.739 23.283,46.963 22.878,47.369 L3.335,66.91 C3.047,67.198 2.848,67.56 2.76,67.955 L1.055,75.371 C0.888,76.098 1.103,76.846 1.63,77.371 C2.036,77.777 2.576,78 3.15,78 C3.31,78 3.47,77.98 3.627,77.947 L11.053,76.24 C11.442,76.152 11.802,75.953 12.09,75.666 L31.632,56.122 C32.47,55.285 32.47,53.923 31.632,53.086 L25.915,47.369 C25.512,46.964 24.973,46.739 24.396,46.739 Z" id="Shape" fill="#84765B"></path>
                <rect id="Rectangle-path" fill="#84765B" transform="translate(5.318529, 73.418751) rotate(45.000000) translate(-5.318529, -73.418751) " x="1.52906569" y="72.8067566" width="7.57892732" height="1.22398826"></rect>
                <rect id="Rectangle-path" fill="#84765B" transform="translate(24.347225, 54.596702) rotate(45.000000) translate(-24.347225, -54.596702) " x="18.9762765" y="53.9837083" width="10.741897" height="1.22598824"></rect>
                <path d="M7.612,69.871 C7.35,70.133 6.925,70.133 6.662,69.871 C6.4,69.607 6.4,69.182 6.662,68.921 L20.588,54.995 C20.851,54.732 21.277,54.732 21.537,54.995 C21.801,55.257 21.801,55.682 21.537,55.944 L7.612,69.871 Z" id="Shape" fill="#84765B"></path>
                <path d="M16.024,77.857 C15.655,77.857 15.354,77.556 15.353,77.187 C15.354,76.814 15.655,76.513 16.024,76.515 L31.842,76.515 C32.213,76.513 32.514,76.814 32.514,77.187 C32.514,77.556 32.213,77.857 31.844,77.857 L16.024,77.857 Z" id="Shape" fill="#84765B"></path>
                <path d="M18.932,73.98 C18.563,73.98 18.262,73.679 18.261,73.31 C18.262,72.937 18.563,72.636 18.932,72.638 L31.842,72.638 C32.213,72.636 32.514,72.937 32.514,73.31 C32.514,73.679 32.213,73.98 31.844,73.98 L18.932,73.98 Z" id="Shape" fill="#84765B"></path>
                <path d="M22.809,70.104 C22.44,70.104 22.139,69.803 22.139,69.434 C22.139,69.061 22.44,68.76 22.809,68.762 L31.842,68.762 C32.213,68.76 32.514,69.061 32.514,69.434 C32.514,69.803 32.213,70.104 31.844,70.104 L22.809,70.104 Z" id="Shape" fill="#84765B"></path>
                <path d="M10.081,72.338 C9.819,72.602 9.394,72.602 9.132,72.338 C8.87,72.076 8.87,71.65 9.132,71.39 L23.057,57.464 C23.319,57.201 23.745,57.201 24.006,57.464 C24.27,57.726 24.27,58.151 24.006,58.413 L10.081,72.338 Z" id="Shape" fill="#84765B"></path>
            </g>
        </g>
    </g>
</svg>