<?xml version="1.0" encoding="UTF-8"?>
<svg width="32px" height="77px" viewBox="0 0 32 77" version="1.1" xmlns="http://www.w3.org/2000/svg" xmlns:xlink="http://www.w3.org/1999/xlink">
    <!-- Generator: Sketch 49.2 (51160) - http://www.bohemiancoding.com/sketch -->
    <title>ic_Add_video</title>
    <desc>Created with Sketch.</desc>
    <defs></defs>
    <g id="Page-1" stroke="none" stroke-width="1" fill="none" fill-rule="evenodd">
        <g id="ic_Add_video" transform="translate(-1.000000, -1.000000)" fill-rule="nonzero">
            <g id="Layer_3" transform="translate(1.000000, 1.000000)">
                <path d="M25.14,0 L6.86,0 C3.267,0 0.354,2.912 0.354,6.506 L0.354,17.56 L0.354,25.386 C0.354,28.98 3.267,31.893 6.861,31.893 L25.14,31.893 C28.734,31.893 31.646,28.98 31.646,25.386 L31.646,17.56 L31.646,6.506 C31.646,2.912 28.733,0 25.14,0 Z M30.146,25.386 C30.146,28.148 27.9,30.393 25.14,30.393 L6.861,30.393 C4.1,30.393 1.854,28.148 1.854,25.386 L1.854,17.56 L1.854,6.506 C1.854,3.744 4.101,1.5 6.86,1.5 L25.14,1.5 C27.901,1.5 30.147,3.744 30.147,6.506 L30.147,17.56 L30.147,25.386 L30.146,25.386 Z" id="Shape" fill="#AAAAAA"></path>
                <path d="M21.646,14.824 L13.651,10.206 C13.451,10.089 13.226,10.033 13.004,10.033 C12.779,10.033 12.555,10.089 12.356,10.206 C11.955,10.438 11.709,10.865 11.709,11.328 L11.709,20.563 C11.709,21.026 11.955,21.453 12.356,21.684 C12.555,21.801 12.78,21.858 13.004,21.858 C13.227,21.858 13.451,21.801 13.651,21.684 L21.646,17.067 C22.047,16.837 22.293,16.409 22.293,15.946 C22.294,15.482 22.048,15.055 21.646,14.824 Z" id="Shape" fill="#AAAAAA"></path>
                <path d="M25.14,45 L6.86,45 C3.266,45 0.354,47.912 0.354,51.506 L0.354,62.56 L0.354,70.386 C0.354,73.98 3.267,76.893 6.861,76.893 L25.14,76.893 C28.734,76.893 31.646,73.98 31.646,70.386 L31.646,62.56 L31.646,51.506 C31.646,47.912 28.733,45 25.14,45 Z M30.146,70.386 C30.146,73.148 27.9,75.393 25.14,75.393 L6.861,75.393 C4.1,75.393 1.854,73.148 1.854,70.386 L1.854,62.56 L1.854,51.506 C1.854,48.744 4.1,46.5 6.86,46.5 L25.14,46.5 C27.901,46.5 30.147,48.744 30.147,51.506 L30.147,62.56 L30.147,70.386 L30.146,70.386 Z" id="Shape" fill="#84765B"></path>
                <path d="M21.646,59.824 L13.651,55.206 C13.451,55.089 13.226,55.033 13.004,55.033 C12.779,55.033 12.555,55.089 12.356,55.206 C11.955,55.438 11.709,55.865 11.709,56.328 L11.709,65.563 C11.709,66.026 11.955,66.453 12.356,66.684 C12.555,66.801 12.78,66.858 13.004,66.858 C13.227,66.858 13.451,66.801 13.651,66.684 L21.646,62.067 C22.047,61.837 22.293,61.409 22.293,60.946 C22.294,60.482 22.048,60.055 21.646,59.824 Z" id="Shape" fill="#84765B"></path>
            </g>
        </g>
    </g>
</svg>