<?xml version="1.0" encoding="UTF-8"?>
<svg width="16px" height="16px" viewBox="0 0 16 16" version="1.1" xmlns="http://www.w3.org/2000/svg" xmlns:xlink="http://www.w3.org/1999/xlink">
    <!-- Generator: Sketch 49.2 (51160) - http://www.bohemiancoding.com/sketch -->
    <title>ic_birthday</title>
    <desc>Created with Sketch.</desc>
    <defs></defs>
    <g id="Page-1" stroke="none" stroke-width="1" fill="none" fill-rule="evenodd">
        <g id="ThemeStyles" transform="translate(-633.000000, -2000.000000)" fill="#84765B">
            <g id="ic_birthday" transform="translate(633.000000, 2000.000000)">
                <g id="Group">
                    <polygon id="Shape" points="0 4 7 4 7 7 0 7"></polygon>
                    <polygon id="Shape" points="9 4 16 4 16 7 9 7"></polygon>
                    <polygon id="Shape" points="1 8 7 8 7 16 1 16"></polygon>
                    <polygon id="Shape" points="9 8 15 8 15 16 9 16"></polygon>
                    <path d="M10,1 C10.552,1 11,1.449 11,2 C11,2.551 10.552,3 10,3 C9.767,3 9.376,3.005 9,3.012 L9,2 C9,1.449 9.448,1 10,1 L10,1 Z M10,0 C8.896,0 8,0.896 8,2 L8,4.031 C8,4.031 9.447,4 10,4 C11.104,4 12,3.104 12,2 C12,0.896 11.104,4.4408921e-16 10,4.4408921e-16 L10,0 Z" id="Shape"></path>
                    <path d="M6,1 C6.551,1 7,1.449 7,2 L7,3.012 C6.624,3.005 6.233,3 6,3 C5.449,3 5,2.551 5,2 C5,1.449 5.449,1 6,1 L6,1 Z M6,8.8817842e-16 C4.896,8.8817842e-16 4,0.896 4,2 C4,3.104 4.896,4 6,4 C6.553,4 8,4.031 8,4.031 L8,2 C8,0.896 7.104,0 6,0 L6,8.8817842e-16 Z" id="Shape"></path>
                </g>
            </g>
        </g>
    </g>
</svg>