<?xml version="1.0" encoding="UTF-8"?>
<svg width="16px" height="16px" viewBox="0 0 16 16" version="1.1" xmlns="http://www.w3.org/2000/svg" xmlns:xlink="http://www.w3.org/1999/xlink">
    <!-- Generator: Sketch 49.2 (51160) - http://www.bohemiancoding.com/sketch -->
    <title>ic_clock</title>
    <desc>Created with Sketch.</desc>
    <defs></defs>
    <g id="Page-1" stroke="none" stroke-width="1" fill="none" fill-rule="evenodd">
        <g id="ThemeStyles" transform="translate(-537.000000, -2001.000000)" fill="#84765B">
            <g id="ic_clock" transform="translate(537.000000, 2001.000000)">
                <g id="Group">
                    <path d="M8,2 C11.309,2 14,4.691 14,8 C14,11.309 11.309,14 8,14 C4.691,14 2,11.309 2,8 C2,4.691 4.691,2 8,2 L8,2 Z M8,0 C3.582,0 0,3.582 0,8 C0,12.418 3.582,16 8,16 C12.418,16 16,12.418 16,8 C16,3.582 12.418,0 8,0 Z" id="Shape"></path>
                    <path d="M9,4 C9,3.448 8.553,3 8,3 C7.448,3 7,3.448 7,4 L7,8 C7,8.552 7.448,9 8,9 C8.553,9 9,8.552 9,8 L9,4" id="Shape"></path>
                    <path d="M9.414,10.831 C9.805,11.222 10.437,11.222 10.828,10.831 C11.219,10.44 11.219,9.808 10.828,9.416 L8.707,7.295 C8.316,6.904 7.683,6.904 7.292,7.295 C6.901,7.686 6.901,8.318 7.292,8.709 L9.414,10.831" id="Shape"></path>
                </g>
            </g>
        </g>
    </g>
</svg>