<?xml version="1.0" encoding="UTF-8"?>
<svg width="17px" height="16px" viewBox="0 0 17 16" version="1.1" xmlns="http://www.w3.org/2000/svg" xmlns:xlink="http://www.w3.org/1999/xlink">
    <!-- Generator: Sketch 49.2 (51160) - http://www.bohemiancoding.com/sketch -->
    <title>ic_cart</title>
    <desc>Created with Sketch.</desc>
    <defs></defs>
    <g id="Page-1" stroke="none" stroke-width="1" fill="none" fill-rule="evenodd">
        <g id="ThemeStyles" transform="translate(-662.000000, -2030.000000)" fill="#84765B">
            <g id="ic_cart" transform="translate(662.000000, 2029.000000)">
                <g id="Group">
                    <path d="M15.547,12.422 C15.156,11.995 14.062,12 14.062,12 L4.002,12 C4.002,12 3.737,10.99 5.002,10.834 C8.188,10.431 14.992,10.37 15.44,8.313 C15.705,7.091 16.002,3 16.002,3 L4.002,3 C4.002,3 4.149,1.979 3.44,1.521 C2.45,0.881 0.003,1 0.003,1 L0.003,3 C0.003,3 1.3,2.906 1.587,3.188 C2.028,3.621 2.003,4.313 2.003,4.313 L2.003,12 L2.003,14 L16.003,14 C16.003,14 16.141,13.066 15.55,12.422" id="Shape"></path>
                    <circle id="Oval" cx="3" cy="15.959" r="1"></circle>
                    <circle id="Oval" cx="13" cy="15.959" r="1"></circle>
                </g>
            </g>
        </g>
    </g>
</svg>