<?xml version="1.0" encoding="UTF-8"?>
<svg width="16px" height="14px" viewBox="0 0 16 14" version="1.1" xmlns="http://www.w3.org/2000/svg" xmlns:xlink="http://www.w3.org/1999/xlink">
    <!-- Generator: Sketch 49.2 (51160) - http://www.bohemiancoding.com/sketch -->
    <title>ic_cut</title>
    <desc>Created with Sketch.</desc>
    <defs></defs>
    <g id="Page-1" stroke="none" stroke-width="1" fill="none" fill-rule="evenodd">
        <g id="ThemeStyles" transform="translate(-223.000000, -2028.000000)" fill="#84765B">
            <g id="ic_cut" transform="translate(223.000000, 2028.000000)">
                <g id="Group">
                    <path d="M15.938,3.01 C15.938,3.01 15.091,1.623 12.971,2.11 C11.012,2.557 10.684,3.678 3.221,7.725 C3.112,7.786 2.783,7.966 2.783,7.966 L1.724,8.539 L1.359,8.741 C0.148,9.406 -0.295,10.935 0.371,12.142 C1.037,13.355 2.563,13.8 3.774,13.132 L5.198,12.358 C6.408,11.693 6.852,10.166 6.187,8.955 C6.104,8.803 6.008,8.666 5.9,8.539 L15.94,3.01 L15.938,3.01 Z M12.974,2.109 C10.99,2.562 11.144,3.429 3.224,7.724 L12.974,2.109 Z M4.734,9.755 C4.918,10.087 4.835,10.484 4.551,10.643 L2.675,11.665 C2.39,11.82 2.011,11.678 1.827,11.343 C1.644,11.013 1.725,10.614 2.01,10.459 L2.44,10.221 L3.888,9.435 C4.172,9.277 4.551,9.421 4.734,9.755 L4.734,9.755 Z" id="Shape"></path>
                    <path d="M9.316,7.04 L7.153,8.205 C7.507,8.417 7.831,8.615 8.129,8.8 L7.827,8.626 C9.677,9.771 10.638,10.481 11.403,10.938 C11.923,11.256 12.336,11.441 12.961,11.584 C15.081,12.07 15.928,10.684 15.928,10.684 L9.316,7.04" id="Shape"></path>
                    <path d="M6.469,5.475 L5.89,5.156 C5.998,5.03 6.093,4.893 6.176,4.74 C6.841,3.529 6.398,2.002 5.187,1.337 L3.764,0.562 C2.553,-0.105 1.027,0.339 0.361,1.552 C-0.305,2.76 0.138,4.289 1.349,4.954 L1.714,5.156 L2.773,5.729 C2.773,5.729 3.102,5.91 3.211,5.97 C3.633,6.199 4.025,6.415 4.402,6.624 L6.469,5.475 M2.429,3.475 L1.999,3.236 C1.715,3.083 1.634,2.683 1.817,2.353 C2.001,2.017 2.38,1.875 2.665,2.03 L4.541,3.053 C4.824,3.21 4.907,3.608 4.723,3.94 C4.54,4.274 4.161,4.418 3.877,4.26 L2.429,3.475" id="Shape"></path>
                </g>
            </g>
        </g>
    </g>
</svg>