<?xml version="1.0" encoding="UTF-8"?>
<svg width="16px" height="16px" viewBox="0 0 16 16" version="1.1" xmlns="http://www.w3.org/2000/svg" xmlns:xlink="http://www.w3.org/1999/xlink">
    <!-- Generator: Sketch 49.2 (51160) - http://www.bohemiancoding.com/sketch -->
    <title>ic_friends</title>
    <desc>Created with Sketch.</desc>
    <defs></defs>
    <g id="Page-1" stroke="none" stroke-width="1" fill="none" fill-rule="evenodd">
        <g id="ThemeStyles" transform="translate(-473.000000, -2028.000000)" fill="#84765B">
            <g id="ic_friends" transform="translate(473.000000, 2028.000000)">
                <g id="Group">
                    <path d="M7.96,1.994 C7.514,0.831 6.394,0 5.077,0 C3.37,0 1.981,1.389 1.981,3.096 C1.981,4.803 3.369,6.192 5.076,6.192 C5.655,6.192 6.192,6.022 6.656,5.744 C6.734,4.758 7.021,3.293 7.96,1.994" id="Shape"></path>
                    <path d="M14.686,6.787 C14.686,6.787 14.945,4.15 13.281,2.228 C12.88,1.765 12.316,1.458 11.685,1.345 C11.686,1.344 11.686,1.344 11.687,1.343 C11.52,1.311 11.346,1.292 11.165,1.292 C10.984,1.292 10.811,1.311 10.643,1.343 C10.644,1.344 10.644,1.344 10.645,1.345 C10.015,1.458 9.451,1.765 9.049,2.228 C7.384,4.15 7.645,6.787 7.645,6.787 C7.645,6.787 8.288,6.5 8.988,6.5 C9.158,6.5 9.332,6.517 9.5,6.559 C9.498,6.56 9.496,6.562 9.493,6.564 C9.829,6.691 10.102,6.804 10.374,6.886 C10.446,6.907 10.519,6.924 10.594,6.939 C10.773,6.979 10.955,7.008 11.164,7.008 C11.373,7.008 11.557,6.979 11.735,6.939 C11.81,6.924 11.882,6.907 11.956,6.886 C12.227,6.805 12.5,6.692 12.835,6.565 C12.833,6.563 12.831,6.561 12.828,6.56 C12.997,6.518 13.171,6.5 13.341,6.5 C14.042,6.5 14.686,6.787 14.686,6.787" id="Shape"></path>
                    <path d="M5.439,15.427 C5.537,14.585 5.666,13.522 5.797,12.556 C6.021,10.904 6.76,9.485 7.855,8.526 C7.682,8.388 7.501,8.261 7.31,8.15 C6.681,7.783 5.956,7.566 5.15,7.551 C4.323,7.567 3.582,7.793 2.942,8.177 C1.545,9.014 0.632,10.602 0.387,12.403 C0.246,13.446 0.106,14.596 0,15.507 C1.659,15.832 3.372,16.004 5.125,16.004 C5.208,16.004 5.29,15.999 5.372,15.998 L5.439,15.431" id="Shape"></path>
                    <path d="M13.15,8.781 C12.572,8.445 11.906,8.246 11.165,8.231 C10.405,8.246 9.724,8.454 9.136,8.806 C7.852,9.576 7.013,11.035 6.788,12.69 C6.658,13.649 6.53,14.71 6.432,15.543 C7.957,15.842 9.53,16 11.143,16 C12.77,16 14.361,15.839 15.898,15.535 C15.8,14.699 15.672,13.646 15.544,12.69 C15.315,11.017 14.46,9.543 13.15,8.781" id="Shape"></path>
                </g>
            </g>
        </g>
    </g>
</svg>