<?xml version="1.0" encoding="UTF-8"?>
<svg width="18px" height="17px" viewBox="0 0 18 17" version="1.1" xmlns="http://www.w3.org/2000/svg" xmlns:xlink="http://www.w3.org/1999/xlink">
    <!-- Generator: Sketch 49.2 (51160) - http://www.bohemiancoding.com/sketch -->
    <title>ic_gear_wheel</title>
    <desc>Created with Sketch.</desc>
    <defs></defs>
    <g id="Page-1" stroke="none" stroke-width="1" fill="none" fill-rule="evenodd">
        <g id="ThemeStyles" transform="translate(-946.000000, -1998.000000)" fill="#84765B">
            <g id="ic_gear_wheel" transform="translate(946.000000, 1997.000000)">
                <path d="M17.02,10.02 L17.02,8.02 L14.91,8.02 C14.757,7.109 14.401,6.27 13.887,5.547 L15.379,4.055 L13.964,2.641 L12.473,4.132 C11.749,3.618 10.909,3.263 9.999,3.109 L9.999,0.999 L7.999,0.999 L7.999,3.109 C7.088,3.263 6.249,3.618 5.526,4.132 L4.035,2.641 L2.621,4.055 L4.112,5.546 C3.598,6.269 3.242,7.109 3.088,8.02 L0.978,8.02 L0.978,10.02 L3.088,10.02 C3.241,10.93 3.597,11.771 4.111,12.493 L2.62,13.984 L4.034,15.399 L5.526,13.908 C6.249,14.421 7.088,14.776 7.999,14.93 L7.999,17.04 L9.999,17.04 L9.999,14.93 C10.909,14.777 11.749,14.421 12.472,13.908 L13.963,15.399 L15.378,13.984 L13.886,12.493 C14.401,11.77 14.756,10.931 14.909,10.02 L17.02,10.02 M9,12.02 C7.343,12.02 6,10.677 6,9.02 C6,7.363 7.343,6.02 9,6.02 C10.657,6.02 12,7.363 12,9.02 C12,10.677 10.657,12.02 9,12.02" id="Shape"></path>
            </g>
        </g>
    </g>
</svg>