<?xml version="1.0" encoding="UTF-8"?>
<svg width="17px" height="16px" viewBox="0 0 17 16" version="1.1" xmlns="http://www.w3.org/2000/svg" xmlns:xlink="http://www.w3.org/1999/xlink">
    <!-- Generator: Sketch 49.2 (51160) - http://www.bohemiancoding.com/sketch -->
    <title>ic_groups</title>
    <desc>Created with Sketch.</desc>
    <defs></defs>
    <g id="Page-1" stroke="none" stroke-width="1" fill="none" fill-rule="evenodd">
        <g id="ThemeStyles" transform="translate(-408.000000, -2000.000000)" fill="#84765B">
            <g id="ic_groups" transform="translate(408.000000, 2000.000000)">
                <g id="Group">
                    <path d="M8,6.192 C6.293,6.192 4.905,4.803 4.905,3.096 C4.905,1.389 6.293,0 8,0 C9.707,0 11.096,1.389 11.096,3.096 C11.096,4.803 9.707,6.192 8,6.192" id="Shape"></path>
                    <path d="M11.512,1.108 C11.338,1.108 11.17,1.126 11.008,1.157 C11.369,1.716 11.582,2.381 11.582,3.096 C11.582,4.363 10.918,5.475 9.924,6.116 C10.371,6.434 10.918,6.623 11.512,6.623 C13.033,6.623 14.268,5.389 14.268,3.867 C14.268,2.344 13.033,1.111 11.512,1.111" id="Shape"></path>
                    <path d="M4.418,3.096 C4.418,2.39 4.626,1.733 4.98,1.178 C4.783,1.134 4.58,1.108 4.37,1.108 C2.848,1.108 1.614,2.342 1.614,3.864 C1.614,5.386 2.849,6.62 4.371,6.62 C4.987,6.62 5.554,6.416 6.013,6.074 C5.052,5.43 4.418,4.336 4.418,3.096" id="Shape"></path>
                    <path d="M13.318,12.332 C13.4,12.94 13.489,13.636 13.583,14.407 C14.413,14.247 15.23,14.054 16.033,13.826 C15.968,13.291 15.895,12.731 15.824,12.201 C15.508,9.863 13.926,7.928 11.585,7.882 C11.33,7.887 11.086,7.918 10.85,7.968 C12.156,8.897 13.068,10.494 13.318,12.332" id="Shape"></path>
                    <path d="M5.269,7.986 C5.006,7.925 4.732,7.888 4.444,7.882 C2.103,7.928 0.522,9.863 0.205,12.201 C0.135,12.72 0.065,13.268 0,13.792 C0.84,14.035 1.696,14.239 2.564,14.407 C2.658,13.635 2.747,12.938 2.829,12.332 C3.082,10.48 3.963,8.922 5.269,7.986" id="Shape"></path>
                    <path d="M10.233,8.145 C9.604,7.779 8.879,7.562 8.073,7.547 C7.246,7.563 6.505,7.789 5.865,8.173 C4.468,9.01 3.555,10.598 3.31,12.399 C3.168,13.443 3.029,14.592 2.923,15.503 C4.582,15.828 6.295,16 8.049,16 C9.82,16 11.55,15.825 13.223,15.494 C13.117,14.585 12.978,13.439 12.837,12.398 C12.59,10.577 11.658,8.974 10.233,8.145" id="Shape"></path>
                </g>
            </g>
        </g>
    </g>
</svg>