<?xml version="1.0" encoding="UTF-8"?>
<svg width="16px" height="16px" viewBox="0 0 16 16" version="1.1" xmlns="http://www.w3.org/2000/svg" xmlns:xlink="http://www.w3.org/1999/xlink">
    <!-- Generator: Sketch 49.2 (51160) - http://www.bohemiancoding.com/sketch -->
    <title>ic_help</title>
    <desc>Created with Sketch.</desc>
    <defs></defs>
    <g id="Page-1" stroke="none" stroke-width="1" fill="none" fill-rule="evenodd">
        <g id="ThemeStyles" transform="translate(-504.000000, -2029.000000)" fill="#84765B">
            <g id="ic_help" transform="translate(504.000000, 2028.000000)">
                <path d="M13.657,3.343 C10.532,0.218 5.467,0.218 2.343,3.343 C-0.781,6.467 -0.782,11.532 2.343,14.657 C5.467,17.781 10.533,17.781 13.657,14.657 C16.781,11.532 16.781,6.467 13.657,3.343 M13.711,12.101 L10.773,10.142 C11.074,9.413 11.074,8.589 10.773,7.858 L13.71,5.9 C14.758,7.828 14.758,10.172 13.711,12.101 M6.939,10.061 C6.354,9.476 6.353,8.526 6.939,7.94 C7.524,7.355 8.475,7.355 9.06,7.94 C9.646,8.526 9.646,9.476 9.06,10.061 C8.475,10.646 7.525,10.646 6.939,10.061 M11.1,3.289 L9.142,6.227 C8.412,5.927 7.589,5.927 6.859,6.227 L4.9,3.289 C6.828,2.242 9.172,2.242 11.1,3.289 M2.29,5.9 L5.228,7.858 C4.927,8.588 4.927,9.412 5.228,10.142 L2.29,12.101 C1.242,10.172 1.242,7.828 2.29,5.9 M4.899,14.711 L6.857,11.773 C7.587,12.074 8.411,12.074 9.142,11.773 L11.1,14.711 C9.172,15.758 6.828,15.758 4.899,14.711" id="Shape"></path>
            </g>
        </g>
    </g>
</svg>