<?xml version="1.0" encoding="UTF-8"?>
<svg width="16px" height="16px" viewBox="0 0 16 16" version="1.1" xmlns="http://www.w3.org/2000/svg" xmlns:xlink="http://www.w3.org/1999/xlink">
    <!-- Generator: Sketch 49.2 (51160) - http://www.bohemiancoding.com/sketch -->
    <title>ic_info</title>
    <desc>Created with Sketch.</desc>
    <defs></defs>
    <g id="Page-1" stroke="none" stroke-width="1" fill="none" fill-rule="evenodd">
        <g id="ThemeStyles" transform="translate(-1012.000000, -1997.000000)" fill="#84765B">
            <g id="ic_info" transform="translate(1012.000000, 1997.000000)">
                <g id="Group">
                    <path d="M8,2 C11.309,2 14,4.691 14,8 C14,11.309 11.309,14 8,14 C4.691,14 2,11.309 2,8 C2,4.691 4.691,2 8,2 L8,2 Z M8,0 C3.582,0 0,3.582 0,8 C0,12.418 3.582,16 8,16 C12.418,16 16,12.418 16,8 C16,3.582 12.418,0 8,0 Z" id="Shape"></path>
                    <path d="M9,8 C9,7.448 8.553,7 8,7 C7.448,7 7,7.448 7,8 L7,11 C7,11.553 7.448,12 8,12 C8.553,12 9,11.553 9,11 L9,8" id="Shape"></path>
                    <circle id="Oval" cx="8" cy="5" r="1.5"></circle>
                </g>
            </g>
        </g>
    </g>
</svg>