<?xml version="1.0" encoding="UTF-8"?>
<svg width="16px" height="14px" viewBox="0 0 16 14" version="1.1" xmlns="http://www.w3.org/2000/svg" xmlns:xlink="http://www.w3.org/1999/xlink">
    <!-- Generator: Sketch 49.2 (51160) - http://www.bohemiancoding.com/sketch -->
    <title>ic_link</title>
    <desc>Created with Sketch.</desc>
    <defs></defs>
    <g id="Page-1" stroke="none" stroke-width="1" fill="none" fill-rule="evenodd">
        <g id="ThemeStyles" transform="translate(-600.000000, -2029.000000)" fill="#84765B">
            <g id="ic_link" transform="translate(600.000000, 2029.000000)">
                <g id="Group">
                    <path d="M9.914,4.919 L8.606,6.227 C8.613,6.286 8.623,6.344 8.623,6.404 C8.623,6.803 8.468,7.178 8.185,7.461 L7.914,7.732 L7.76,7.886 L6.038,9.609 L4.523,11.124 C4.241,11.406 3.866,11.562 3.467,11.562 C3.068,11.562 2.693,11.407 2.41,11.124 L2.098,10.81 C1.815,10.528 1.66,10.153 1.66,9.753 C1.66,9.355 1.815,8.98 2.098,8.696 L5.76,5.035 C6.042,4.753 6.417,4.598 6.816,4.598 C6.857,4.598 6.897,4.606 6.938,4.61 L8.26,3.288 C7.819,3.06 7.327,2.938 6.816,2.938 C5.974,2.938 5.182,3.266 4.586,3.862 L0.924,7.524 C0.328,8.118 0,8.911 0,9.753 C0,10.596 0.328,11.389 0.924,11.984 L1.237,12.296 C1.833,12.892 2.625,13.22 3.467,13.22 C4.31,13.22 5.102,12.892 5.697,12.296 L7.217,10.777 L8.951,9.042 L9.36,8.634 C9.955,8.038 10.284,7.247 10.284,6.404 C10.284,5.878 10.155,5.371 9.914,4.919" id="Shape"></path>
                    <path d="M7.873,5.04 L8.186,5.353 C8.331,5.498 8.441,5.668 8.516,5.853 L9.737,4.633 C9.627,4.472 9.501,4.32 9.361,4.179 L9.048,3.866 C8.897,3.715 8.732,3.581 8.558,3.465 L7.325,4.696 C7.528,4.77 7.715,4.883 7.873,5.04" id="Shape"></path>
                    <path d="M15.09,2.02 L14.778,1.707 C14.181,1.111 13.389,0.783 12.547,0.783 C11.705,0.783 10.912,1.111 10.317,1.707 L8.797,3.226 L8.797,3.226 L7.495,4.527 L6.654,5.368 C6.058,5.964 5.73,6.756 5.73,7.598 C5.73,8.124 5.858,8.632 6.1,9.083 L7.408,7.775 C7.401,7.716 7.391,7.658 7.391,7.597 C7.391,7.199 7.546,6.823 7.829,6.54 L8.519,5.851 L8.626,5.744 L8.687,5.683 L9.977,4.393 L11.491,2.878 C11.774,2.596 12.149,2.44 12.548,2.44 C12.947,2.44 13.322,2.595 13.605,2.878 L13.918,3.191 C14.2,3.473 14.356,3.849 14.356,4.247 C14.356,4.646 14.201,5.021 13.918,5.304 L10.256,8.965 C9.974,9.248 9.599,9.403 9.199,9.403 C9.158,9.403 9.119,9.394 9.078,9.391 L7.756,10.713 C8.197,10.941 8.689,11.063 9.199,11.063 C10.042,11.063 10.834,10.735 11.429,10.139 L15.091,6.477 C15.687,5.882 16.015,5.089 16.015,4.247 C16.014,3.408 15.686,2.616 15.09,2.02" id="Shape"></path>
                </g>
            </g>
        </g>
    </g>
</svg>