<?xml version="1.0" encoding="UTF-8"?>
<svg width="14px" height="16px" viewBox="0 0 14 16" version="1.1" xmlns="http://www.w3.org/2000/svg" xmlns:xlink="http://www.w3.org/1999/xlink">
    <!-- Generator: Sketch 49.2 (51160) - http://www.bohemiancoding.com/sketch -->
    <title>ic_lock</title>
    <desc>Created with Sketch.</desc>
    <defs></defs>
    <g id="Page-1" stroke="none" stroke-width="1" fill="none" fill-rule="evenodd">
        <g id="ThemeStyles" transform="translate(-634.000000, -2028.000000)" fill="#84765B">
            <g id="ic_lock" transform="translate(634.000000, 2028.000000)">
                <g id="Group">
                    <path d="M7,2 C8.654,2 10,3.346 10,5 C10,6.654 8.654,8 7,8 C5.346,8 4,6.654 4,5 C4,3.346 5.346,2 7,2 L7,2 Z M7,0 C4.239,0 2,2.239 2,5 C2,7.762 4.239,10 7,10 C9.762,10 12,7.762 12,5 C12,2.239 9.762,0 7,0 Z" id="Shape"></path>
                    <polygon id="Shape" points="0 5 14 5 14 16 0 16"></polygon>
                </g>
            </g>
        </g>
    </g>
</svg>