<?xml version="1.0" encoding="UTF-8"?>
<svg width="16px" height="16px" viewBox="0 0 16 16" version="1.1" xmlns="http://www.w3.org/2000/svg" xmlns:xlink="http://www.w3.org/1999/xlink">
    <!-- Generator: Sketch 49.2 (51160) - http://www.bohemiancoding.com/sketch -->
    <title>ic_lens</title>
    <desc>Created with Sketch.</desc>
    <defs></defs>
    <g id="Page-1" stroke="none" stroke-width="1" fill="none" fill-rule="evenodd">
        <g id="ThemeStyles" transform="translate(-601.000000, -2000.000000)" fill="#84765B">
            <g id="ic_lens" transform="translate(601.000000, 2000.000000)">
                <g id="Group">
                    <path d="M6.5,2 C8.981,2 11,4.019 11,6.5 C11,8.981 8.981,11 6.5,11 C4.019,11 2,8.981 2,6.5 C2,4.019 4.019,2 6.5,2 L6.5,2 Z M6.5,0 C2.91,0 0,2.91 0,6.5 C0,10.09 2.91,13 6.5,13 C10.09,13 13,10.09 13,6.5 C13,2.91 10.09,0 6.5,0 L6.5,0 Z" id="Shape"></path>
                    <path d="M15.706,15.703 C15.315,16.095 14.683,16.095 14.292,15.703 L10.05,11.461 C9.658,11.07 9.658,10.438 10.05,10.047 C10.441,9.655 11.073,9.655 11.464,10.047 L15.706,14.289 C16.098,14.68 16.098,15.312 15.706,15.703" id="Shape"></path>
                </g>
            </g>
        </g>
    </g>
</svg>