<?xml version="1.0" encoding="UTF-8"?>
<svg width="16px" height="16px" viewBox="0 0 16 16" version="1.1" xmlns="http://www.w3.org/2000/svg" xmlns:xlink="http://www.w3.org/1999/xlink">
    <!-- Generator: Sketch 49.2 (51160) - http://www.bohemiancoding.com/sketch -->
    <title>ic_male</title>
    <desc>Created with Sketch.</desc>
    <defs></defs>
    <g id="Page-1" stroke="none" stroke-width="1" fill="none" fill-rule="evenodd">
        <g id="ThemeStyles" transform="translate(-315.000000, -2028.000000)" fill="#84765B">
            <g id="ic_male" transform="translate(315.000000, 2028.000000)">
                <g id="Group">
                    <path d="M3.25176471,11.8070588 C1.93035294,10.4865882 1.93035294,8.336 3.25176471,7.01458824 C4.57317647,5.69223529 6.72282353,5.69223529 8.04517647,7.01458824 C9.36752941,8.336 9.36752941,10.4856471 8.04517647,11.8070588 C6.72376471,13.1284706 4.57317647,13.1284706 3.25176471,11.8070588 L3.25176471,11.8070588 Z M1.65458824,13.4061176 C3.85976471,15.6112941 7.43811765,15.6112941 9.64329412,13.4061176 C11.8494118,11.1990588 11.8494118,7.62164706 9.64329412,5.41647059 C7.43623529,3.21035294 3.85976471,3.21035294 1.65458824,5.41647059 C-0.551529412,7.62258824 -0.551529412,11.1990588 1.65458824,13.4061176 L1.65458824,13.4061176 Z" id="Shape"></path>
                    <polygon id="Shape" transform="translate(11.309592, 3.740816) rotate(225.000000) translate(-11.309592, -3.740816) " points="10.3684242 -0.345262602 12.2507591 -0.345262602 12.2507591 7.82689432 10.3684242 7.82689432"></polygon>
                    <polygon id="Shape" points="13.1764706 0 15.0588235 0 15.0588235 6.63529412 13.1764706 6.63529412"></polygon>
                    <polygon id="Shape" points="8.42635294 0 15.0616471 0 15.0616471 1.88235294 8.42635294 1.88235294"></polygon>
                </g>
            </g>
        </g>
    </g>
</svg>