<?xml version="1.0" encoding="UTF-8"?>
<svg width="16px" height="12px" viewBox="0 0 16 12" version="1.1" xmlns="http://www.w3.org/2000/svg" xmlns:xlink="http://www.w3.org/1999/xlink">
    <!-- Generator: Sketch 49.2 (51160) - http://www.bohemiancoding.com/sketch -->
    <title>ic_moderator</title>
    <desc>Created with Sketch.</desc>
    <defs></defs>
    <g id="Page-1" stroke="none" stroke-width="1" fill="none" fill-rule="evenodd">
        <g id="ThemeStyles" transform="translate(-782.000000, -2031.000000)" fill="#84765B">
            <g id="ic_moderator" transform="translate(782.000000, 2031.000000)">
                <path d="M13,0 L3,0 L0,3 L8,12 L16,3 L13,0 Z M5.004,7.124 L3.402,5.322 C3.466,5.358 3.528,5.391 3.589,5.421 C4.074,5.664 7.195,5.825 7.787,5.825 C8.379,5.825 11.932,6.013 10.828,6.81 C9.724,7.607 7.894,7.467 7.894,7.467 C7.625,6.508 6.145,6.471 5.473,6.659 C5.214,6.731 5.042,6.908 5.004,7.124 Z M12.686,5.017 C12.469,3.887 10.235,3.484 7.572,3.484 C4.908,3.484 4.908,2.703 4.935,2.461 C4.961,2.22 5.23,1.196 7.84,1.196 C10.45,1.196 10.584,3.187 10.584,3.187 L13.007,3.187 L13.007,1.421 L14.626,3.041 L12.69,5.218 C12.697,5.148 12.697,5.081 12.686,5.017 Z M10.16,1 L11.836,1 C11.822,1.03 11.803,1.052 11.796,1.089 C11.782,1.168 11.635,2.192 11.311,1.869 C11.104,1.663 10.913,1.271 10.16,1 Z M3.414,1 L5.264,1 C5.097,1.057 4.908,1.123 4.665,1.196 C3.427,1.573 2.809,3.026 2.62,3.887 C2.574,4.097 2.581,4.282 2.622,4.444 L1.374,3.041 L3.414,1 Z M5.906,8.139 C5.969,8.165 6.02,8.196 6.092,8.22 C7.491,8.705 10.021,8.22 10.021,8.22 C10.021,8.22 10.026,8.216 10.027,8.216 L8,10.495 L5.906,8.139 Z" id="Shape"></path>
            </g>
        </g>
    </g>
</svg>