<?xml version="1.0" encoding="UTF-8"?>
<svg width="17px" height="12px" viewBox="0 0 17 12" version="1.1" xmlns="http://www.w3.org/2000/svg" xmlns:xlink="http://www.w3.org/1999/xlink">
    <!-- Generator: Sketch 49.2 (51160) - http://www.bohemiancoding.com/sketch -->
    <title>ic_mail</title>
    <desc>Created with Sketch.</desc>
    <defs></defs>
    <g id="Page-1" stroke="none" stroke-width="1" fill="none" fill-rule="evenodd">
        <g id="ThemeStyles" transform="translate(-691.000000, -2031.000000)" fill="#84765B">
            <g id="ic_mail" transform="translate(691.000000, 2031.000000)">
                <path d="M13.562,0.538 L2.492,0.538 C1.133,0.538 0.031,1.64 0.031,2.999 L0.031,8.742 C0.031,10.101 1.133,11.203 2.492,11.203 L13.572,11.203 C14.931,11.203 16.033,10.101 16.033,8.742 L16.033,2.999 C16.033,1.64 14.932,0.538 13.57,0.538 M14.92,9.678 L14.67,9.928 C14.531,10.067 14.307,10.067 14.17,9.928 L10.783,6.386 L8.534,8.636 L8.283,8.888 C8.214,8.956 8.124,8.99 8.032,8.99 C7.942,8.99 7.851,8.957 7.782,8.888 L7.531,8.636 L5.395,6.5 L1.898,9.84 C1.759,9.98 1.535,9.98 1.397,9.84 L1.147,9.59 C1.008,9.45 1.008,9.227 1.148,9.089 L4.645,5.748 L1.523,2.624 C1.385,2.485 1.385,2.262 1.523,2.124 L1.773,1.873 C1.912,1.734 2.136,1.734 2.274,1.873 L8.034,7.635 L13.796,1.873 C13.935,1.734 14.157,1.734 14.298,1.873 L14.546,2.124 C14.687,2.262 14.687,2.486 14.546,2.624 L11.536,5.634 L14.921,9.177 C15.059,9.314 15.059,9.54 14.92,9.678" id="Shape"></path>
            </g>
        </g>
    </g>
</svg>