<?xml version="1.0" encoding="UTF-8"?>
<svg width="12px" height="16px" viewBox="0 0 12 16" version="1.1" xmlns="http://www.w3.org/2000/svg" xmlns:xlink="http://www.w3.org/1999/xlink">
    <!-- Generator: Sketch 49.2 (51160) - http://www.bohemiancoding.com/sketch -->
    <title>ic_newsfeed</title>
    <desc>Created with Sketch.</desc>
    <defs></defs>
    <g id="Page-1" stroke="none" stroke-width="1" fill="none" fill-rule="evenodd">
        <g id="ThemeStyles" transform="translate(-380.000000, -2000.000000)" fill="#84765B">
            <g id="ic_newsfeed" transform="translate(380.000000, 2000.000000)">
                <path d="M0,0 L0,16 L12,16 L12,0 L0,0 M3,13 L1,13 L1,11 L3,11 L3,13 M3,9 L1,9 L1,7 L3,7 L3,9 M11,14 L4,14 L4,13 L11,13 L11,14 M11,12 L4,12 L4,11 L11,11 L11,12 M11,10 L4,10 L4,9 L11,9 L11,10 M11,8 L4,8 L4,7 L11,7 L11,8 M11,6 L1,6 L1,2 L11,2 L11,6" id="Shape"></path>
            </g>
        </g>
    </g>
</svg>