<?xml version="1.0" encoding="UTF-8"?>
<svg width="12px" height="16px" viewBox="0 0 12 16" version="1.1" xmlns="http://www.w3.org/2000/svg" xmlns:xlink="http://www.w3.org/1999/xlink">
    <!-- Generator: Sketch 49.2 (51160) - http://www.bohemiancoding.com/sketch -->
    <title>ic_new</title>
    <desc>Created with Sketch.</desc>
    <defs></defs>
    <g id="Page-1" stroke="none" stroke-width="1" fill="none" fill-rule="evenodd">
        <g id="ThemeStyles" transform="translate(-193.000000, -2058.000000)" fill="#84765B">
            <g id="ic_new" transform="translate(193.000000, 2058.000000)">
                <g id="Group">
                    <path d="M6,6 L10,6 L10,14 L2,14 L2,2 L6,2 L6,6 L6,6 Z M8,0 L0,0 L0,16 L12,16 L12,4 L8,0 Z" id="Shape"></path>
                    <path d="M7,12 C7,12.553 6.552,13 6,13 C5.448,13 5,12.553 5,12 L5,8 C5,7.448 5.448,7 6,7 C6.552,7 7,7.448 7,8 L7,12" id="Shape"></path>
                    <path d="M4,11 C3.447,11 3,10.553 3,10 C3,9.447 3.447,9 4,9 L8,9 C8.553,9 9,9.447 9,10 C9,10.553 8.553,11 8,11 L4,11" id="Shape"></path>
                </g>
            </g>
        </g>
    </g>
</svg>