<?xml version="1.0" encoding="UTF-8"?>
<svg width="10px" height="16px" viewBox="0 0 10 16" version="1.1" xmlns="http://www.w3.org/2000/svg" xmlns:xlink="http://www.w3.org/1999/xlink">
    <!-- Generator: Sketch 49.2 (51160) - http://www.bohemiancoding.com/sketch -->
    <title>ic_question</title>
    <desc>Created with Sketch.</desc>
    <defs></defs>
    <g id="Page-1" stroke="none" stroke-width="1" fill="none" fill-rule="evenodd">
        <g id="ThemeStyles" transform="translate(-665.000000, -2000.000000)" fill="#84765B">
            <g id="ic_question" transform="translate(665.000000, 2000.000000)">
                <path d="M3.32591721,11.5363828 C3.33319085,10.5030371 3.45788179,9.76422462 3.69999004,9.32093715 C3.94209829,8.87665799 4.47930844,8.31932565 5.3105814,7.64695674 C5.90078521,7.09854965 6.37149352,6.57295153 6.71854998,6.07115408 C7.06768463,5.56935664 7.24121286,5.01499938 7.24121286,4.40907401 C7.24121286,3.70794595 7.04274644,3.16449733 6.64477451,2.77872815 C6.24888076,2.39196727 5.68257605,2.19858684 4.94793857,2.19858684 C4.32032749,2.19858684 3.7872737,2.36320813 3.34773812,2.69145903 C2.91028073,3.02070162 2.68999339,3.50564026 2.68999339,4.14726664 L0.0340762798,4.14726664 L0.000825361283,4.0828065 C-0.0220346452,2.79757035 0.429970028,1.79595884 1.35683938,1.07797198 C2.28370873,0.359985125 3.4807418,0 4.94897767,0 C6.53670902,0 7.77842301,0.386760878 8.6658069,1.15929094 C9.55526897,1.931821 10,3.00483451 10,4.37634808 C10,5.29366555 9.72152356,6.14453948 9.16560976,6.92698649 C8.60969597,7.71141688 7.90727032,8.42742035 7.0593719,9.07797198 C6.62814905,9.4389488 6.35902443,9.78108343 6.24991985,10.1063592 C6.13873709,10.4306434 6.08470435,10.9076484 6.08470435,11.5363828 L3.32591721,11.5363828 L3.32591721,11.5363828 Z M6.13042436,16 L3.31448721,16 L3.31448721,13.4751457 L6.12938527,13.4751457 L6.12938527,16 L6.13042436,16 Z" id="Shape"></path>
            </g>
        </g>
    </g>
</svg>