<?xml version="1.0" encoding="UTF-8"?>
<svg width="16px" height="16px" viewBox="0 0 16 16" version="1.1" xmlns="http://www.w3.org/2000/svg" xmlns:xlink="http://www.w3.org/1999/xlink">
    <!-- Generator: Sketch 49.2 (51160) - http://www.bohemiancoding.com/sketch -->
    <title>ic_restrict</title>
    <desc>Created with Sketch.</desc>
    <defs></defs>
    <g id="Page-1" stroke="none" stroke-width="1" fill="none" fill-rule="evenodd">
        <g id="ThemeStyles" transform="translate(-252.000000, -2057.000000)" fill="#84765B">
            <g id="ic_restrict" transform="translate(252.000000, 2057.000000)">
                <path d="M13.657,2.343 C12.095,0.781 10.047,0 8,0 C5.953,0 3.905,0.781 2.343,2.343 C-0.781,5.467 -0.782,10.532 2.343,13.657 C3.905,15.22 5.953,16 8,16 C10.047,16 12.095,15.22 13.657,13.657 C16.781,10.532 16.781,5.467 13.657,2.343 M3.758,3.757 C4.891,2.624 6.397,2 8,2 C9.089,2 10.131,2.294 11.044,2.835 L2.848,11.031 C1.498,8.732 1.787,5.728 3.758,3.757 M12.243,12.243 C11.109,13.376 9.604,14 8,14 C6.911,14 5.869,13.705 4.956,13.165 L13.152,4.968 C14.503,7.268 14.214,10.271 12.243,12.243" id="Shape"></path>
            </g>
        </g>
    </g>
</svg>