<?xml version="1.0" encoding="UTF-8"?>
<svg width="16px" height="16px" viewBox="0 0 16 16" version="1.1" xmlns="http://www.w3.org/2000/svg" xmlns:xlink="http://www.w3.org/1999/xlink">
    <!-- Generator: Sketch 49.2 (51160) - http://www.bohemiancoding.com/sketch -->
    <title>ic_right_arrow</title>
    <desc>Created with Sketch.</desc>
    <defs></defs>
    <g id="Page-1" stroke="none" stroke-width="1" fill="none" fill-rule="evenodd">
        <g id="ThemeStyles" transform="translate(-348.000000, -2000.000000)" fill="#84765B">
            <g id="ic_right_arrow" transform="translate(348.000000, 2000.000000)">
                <g id="Layer_1">
                    <path d="M16,8 C16,7.9 16,7.7 15.9,7.6 C15.8,7.5 15.8,7.4 15.7,7.3 L8.8,0.4 C8.4,-9.09411435e-14 7.8,-9.09411435e-14 7.4,0.4 C7,0.8 7,1.4 7.4,1.8 L12.5,7 L1,7 C0.4,7 0,7.4 0,8 C0,8.6 0.4,9 1,9 L12.6,9 L7.4,14.2 C7,14.6 7,15.2 7.4,15.6 C7.8,16 8.4,16 8.8,15.6 L15.7,8.7 C15.8,8.6 15.9,8.5 15.9,8.4 C15.9,8.3 16,8.1 16,8 Z" id="Shape"></path>
                </g>
            </g>
        </g>
    </g>
</svg>