<?xml version="1.0" encoding="UTF-8"?>
<svg width="16px" height="16px" viewBox="0 0 16 16" version="1.1" xmlns="http://www.w3.org/2000/svg" xmlns:xlink="http://www.w3.org/1999/xlink">
    <!-- Generator: Sketch 49.2 (51160) - http://www.bohemiancoding.com/sketch -->
    <title>ic_up_arrow</title>
    <desc>Created with Sketch.</desc>
    <defs></defs>
    <g id="Page-1" stroke="none" stroke-width="1" fill="none" fill-rule="evenodd">
        <g id="ThemeStyles" transform="translate(-283.000000, -2000.000000)" fill="#84765B">
            <g id="ic_up_arrow" transform="translate(283.000000, 2000.000000)">
                <g id="Group">
                    <path d="M6.958,1 C6.958,0.447 7.406,0 7.958,0 C8.51,0 8.958,0.447 8.958,1 L8.958,15 C8.958,15.552 8.51,16 7.958,16 C7.406,16 6.958,15.552 6.958,15 L6.958,1" id="Shape"></path>
                    <path d="M7.251,0.293 C7.642,-0.098 8.275,-0.098 8.665,0.293 C9.054,0.683 9.055,1.316 8.665,1.707 L1.766,8.606 C1.375,8.997 0.741,8.996 0.352,8.606 C-0.039,8.216 -0.039,7.583 0.352,7.192 L7.251,0.293" id="Shape"></path>
                    <path d="M7.251,1.708 C6.86,1.317 6.86,0.684 7.251,0.294 C7.641,-0.097 8.274,-0.097 8.665,0.294 L15.564,7.193 C15.955,7.584 15.954,8.217 15.564,8.607 C15.173,8.997 14.541,8.998 14.15,8.607 L7.251,1.708" id="Shape"></path>
                </g>
            </g>
        </g>
    </g>
</svg>