<?xml version="1.0" encoding="UTF-8"?>
<svg width="16px" height="14px" viewBox="0 0 16 14" version="1.1" xmlns="http://www.w3.org/2000/svg" xmlns:xlink="http://www.w3.org/1999/xlink">
    <!-- Generator: Sketch 49.2 (51160) - http://www.bohemiancoding.com/sketch -->
    <title>ic_wall</title>
    <desc>Created with Sketch.</desc>
    <defs></defs>
    <g id="Page-1" stroke="none" stroke-width="1" fill="none" fill-rule="evenodd">
        <g id="ThemeStyles" transform="translate(-505.000000, -2001.000000)" fill="#84765B">
            <g id="ic_wall" transform="translate(505.000000, 2001.000000)">
                <g id="Group">
                    <polygon id="Shape" points="0 5 5 5 5 9 0 9"></polygon>
                    <polygon id="Shape" points="0 0 9 0 9 4 0 4"></polygon>
                    <polygon id="Shape" points="6 10 5 10 0 10 0 14 9 14 9 10"></polygon>
                    <polygon id="Shape" points="10 0 16 0 16 4 10 4"></polygon>
                    <polygon id="Shape" points="9 5 6 5 6 9 9 9 10 9 16 9 16 5 10 5"></polygon>
                    <polygon id="Shape" points="10 10 16 10 16 14 10 14"></polygon>
                </g>
            </g>
        </g>
    </g>
</svg>