<?xml version="1.0" encoding="UTF-8"?>
<svg width="61px" height="53px" viewBox="0 0 61 53" version="1.1" xmlns="http://www.w3.org/2000/svg" xmlns:xlink="http://www.w3.org/1999/xlink">
    <!-- Generator: Sketch 49.2 (51160) - http://www.bohemiancoding.com/sketch -->
    <title>Group 4</title>
    <desc>Created with Sketch.</desc>
    <defs></defs>
    <g id="Page-1" stroke="none" stroke-width="1" fill="none" fill-rule="evenodd">
        <g id="ThemeStyles" transform="translate(-697.000000, -2423.000000)">
            <g id="Group-4" transform="translate(697.000000, 2423.000000)">
                <g id="Speech_x5F_Balloon_x5F_Empty" transform="translate(37.000000, 0.000000)" fill="#A2ACB3">
                    <path d="M21.844,0 L2.156,0 C0.968,0 0,0.925 0,2.062 L0,21.728 C0,22.326 0.233,22.889 0.661,23.318 C1.088,23.744 1.653,23.978 2.251,23.978 C2.852,23.978 3.416,23.744 3.832,23.328 L8.78,18.55 C9.134,18.196 9.605,18 10.105,18 L21.843,18 C23.032,18 24,17.075 24,15.938 L24,2.062 C24,0.925 23.032,0 21.844,0 Z M22.5,15.938 C22.5,16.249 22.205,16.5 21.844,16.5 L10.105,16.5 C9.205,16.5 8.356,16.852 7.729,17.479 L2.781,22.258 C2.495,22.542 2.008,22.543 1.721,22.257 C1.577,22.111 1.5,21.928 1.5,21.728 L1.501,9 L1.5,9 L1.5,2.062 C1.5,1.751 1.794,1.5 2.156,1.5 L21.844,1.5 C22.205,1.5 22.5,1.752 22.5,2.062 L22.5,15.938 L22.5,15.938 Z" id="Shape"></path>
                </g>
                <path d="M12.7437571,21.271 C12.5607571,21.271 12.3767571,21.205 12.2337571,21.071 L1.99375709,11.56 C-0.661242911,8.905 -0.661242911,4.615 1.97375709,1.979 C3.25075709,0.703 4.94975709,0 6.75475709,0 C8.55975709,0 10.2577571,0.703 11.5347571,1.979 C12.0217571,2.466 12.4287571,3.021 12.7427571,3.624 C13.0577571,3.021 13.4647571,2.467 13.9517571,1.979 C15.2287571,0.703 16.9267571,0 18.7327571,0 C20.5387571,0 22.2367571,0.703 23.5127571,1.979 C26.1487571,4.615 26.1487571,8.905 23.5127571,11.541 L13.2537571,21.071 C13.1107571,21.205 12.9267571,21.271 12.7437571,21.271 Z M6.75475709,1.5 C5.34975709,1.5 4.02775709,2.047 3.03375709,3.04 C0.982757089,5.092 0.982757089,8.43 3.03375709,10.48 L12.7427571,19.498 L22.4717571,10.461 C24.5027571,8.43 24.5027571,5.092 22.4517571,3.04 C21.4587571,2.047 20.1377571,1.5 18.7317571,1.5 C17.3257571,1.5 16.0047571,2.047 15.0117571,3.04 C14.1367571,3.914 13.5967571,5.072 13.4907571,6.301 C13.4687571,6.623 13.2417571,6.905 12.9207571,6.984 C12.5617571,7.071 12.1937571,6.89 12.0507571,6.549 C12.0207571,6.477 12.0017571,6.395 11.9947571,6.313 L11.9947571,6.313 C11.8907571,5.081 11.3507571,3.918 10.4737571,3.041 C9.48075709,2.047 8.16075709,1.5 6.75475709,1.5 Z" id="Shape" fill="#A2ACB3"></path>
                <g id="Speech_x5F_Balloon_x5F_Empty_2_" transform="translate(37.000000, 29.000000)" fill="#84765B">
                    <path d="M21.844,0 L2.156,0 C0.968,0 0,0.926 0,2.062 L0,21.728 C0,22.326 0.233,22.889 0.661,23.318 C1.088,23.744 1.653,23.978 2.251,23.978 C2.852,23.978 3.416,23.744 3.832,23.328 L8.78,18.55 C9.134,18.196 9.605,18 10.105,18 L21.843,18 C23.032,18 24,17.075 24,15.938 L24,2.062 C24,0.926 23.032,0 21.844,0 Z M22.5,15.938 C22.5,16.249 22.205,16.5 21.844,16.5 L10.105,16.5 C9.205,16.5 8.356,16.852 7.729,17.479 L2.781,22.258 C2.495,22.542 2.008,22.543 1.721,22.257 C1.577,22.111 1.5,21.928 1.5,21.728 L1.501,9 L1.5,9 L1.5,2.062 C1.5,1.751 1.794,1.5 2.156,1.5 L21.844,1.5 C22.205,1.5 22.5,1.752 22.5,2.062 L22.5,15.938 L22.5,15.938 Z" id="Shape"></path>
                </g>
                <path d="M12.7437571,51.271 C12.5607571,51.271 12.3767571,51.205 12.2337571,51.071 L1.99375709,41.56 C-0.661242911,38.905 -0.661242911,34.615 1.97375709,31.979 C3.25075709,30.703 4.94975709,30 6.75475709,30 C8.55975709,30 10.2577571,30.703 11.5347571,31.979 C12.0217571,32.466 12.4287571,33.021 12.7427571,33.624 C13.0577571,33.021 13.4647571,32.467 13.9517571,31.979 C15.2287571,30.703 16.9267571,30 18.7327571,30 C20.5387571,30 22.2367571,30.703 23.5127571,31.979 C26.1487571,34.615 26.1487571,38.905 23.5127571,41.541 L13.2537571,51.071 C13.1107571,51.205 12.9267571,51.271 12.7437571,51.271 Z M6.75475709,31.5 C5.34975709,31.5 4.02775709,32.047 3.03375709,33.04 C0.982757089,35.092 0.982757089,38.43 3.03375709,40.48 L12.7427571,49.498 L22.4717571,40.461 C24.5027571,38.43 24.5027571,35.092 22.4517571,33.04 C21.4587571,32.047 20.1377571,31.5 18.7317571,31.5 C17.3257571,31.5 16.0047571,32.047 15.0117571,33.04 C14.1367571,33.914 13.5967571,35.072 13.4907571,36.301 C13.4687571,36.623 13.2417571,36.905 12.9207571,36.984 C12.5617571,37.071 12.1937571,36.89 12.0507571,36.549 C12.0207571,36.477 12.0017571,36.395 11.9947571,36.313 L11.9947571,36.313 C11.8907571,35.081 11.3507571,33.918 10.4737571,33.041 C9.48075709,32.047 8.16075709,31.5 6.75475709,31.5 Z" id="Shape" fill="#84765B"></path>
            </g>
        </g>
    </g>
</svg>