<svg width="120" height="120" xmlns="http://www.w3.org/2000/svg">
  <defs>
    <linearGradient x1="0%" y1="-9.29130979%" x2="84.899353%" y2="88.1787478%" id="a">
      <stop stop-color="#F08D31" offset="0%"/>
      <stop stop-color="#EE0E5C" offset="100%"/>
    </linearGradient>
  </defs>
  <g fill="none" fill-rule="evenodd">
    <rect fill="url(#a)" width="120" height="120" rx="60"/>
    <path d="M85.7793018 74.0882494c.2057598-9.1704676-2.942931-17.1554568-8.3323268-24.3985782-5.5253105-7.4300041-12.2795165-13.6650915-19.1658618-19.777478-.8702317-.7720711-1.7725544-1.5101635-2.7805885-2.3671812-.1585671.4964662-.2661663.785285-.3416745 1.0797669-1.5422544 6.0991726-4.130297 11.7509593-7.3752607 17.1120395-2.8957384 4.7834427-5.9406054 9.4781633-8.7211939 14.325788-2.8655351 4.998641-4.4870731 10.4050261-3.6319431 16.2285939 1.1043071 7.5281648 5.5404122 11.9850346 11.6056061 14.8883239 1.9065814 1.3817995 4.1661634 2.4313631 6.65227 3.2600653-.2944819-.2793802-.5870761-.5625359-.8815579-.8419161-4.060452-3.862243-4.8608386-7.6319885-2.5899303-12.755218 1.2817512-2.8881876 2.7050802-5.714081 4.0925429-8.6286964 2.2765714 1.8593887 3.5130177 4.4153404 4.0944306 7.6621918 1.8405117-2.7975778 3.0033376-5.5328614 3.7716332-8.4512522.7456432-2.8391073.9306383-5.7310703.6135039-8.9099643 3.8679062 2.8391072 6.8920085 6.2124348 8.8136915 10.4710958 3.5092423 7.7867802 1.6498535 16.0190587-4.8211968 21.4801873-.1415779.120813-.2548401.2737171-.415295.4492736.1774442.0453049.2586155.0943852.3303483.083059 2.1840738-.3152467 4.2548855-1.1779275 6.0802955-2.4275878 7.2978649-2.9674711 12.8231754-10.5107375 13.0025073-18.4825128v2.2029509" fill="#000"/>
  </g>
</svg>
