<svg width="32" height="24" xmlns="http://www.w3.org/2000/svg" xmlns:xlink="http://www.w3.org/1999/xlink">
  <defs>
    <path id="a" d="M25.4920335.02210321H.00000756V23.5431413H25.4920335V.02210321z"/>
    <path id="c" d="M.00128532 16.6314087H18.9030853V.02213201H.00128532V16.6314087z"/>
  </defs>
  <g fill="none" fill-rule="evenodd">
    <g transform="translate(0 .049894)">
      <mask id="b" fill="#fff">
        <use xlink:href="#a"/>
      </mask>
      <path d="M14.5137925 8.01214152c2.0367823-1.57746391 4.7234086-2.44625702 7.5648027-2.44625702 1.1761456 0 2.3255263.14932269 3.4134383.43565651-.6564217-1.08320148-1.556601-2.08022203-2.6790655-2.94951913C20.2901825 1.09815535 16.941464.02208161 13.3837673.02208161c-3.55769684 0-6.90641532 1.07607374-9.42920076 3.02994027C1.4044113 5.02705566.00000756 7.66086601.00000756 10.4681902c0 1.6735085.49106876 3.2719237 1.45959699 4.7509671.87553138 1.3369204 2.13393761 2.529702 3.64971075 3.4614929l-.02978923 4.4277706c-.0010585.1550105.0851337.2986453.22591431.3764026.0703903.0388786.14902179.0583179.22772888.0583179.07855589 0 .15718737-.0193673.22757768-.0582459l5.01381586-2.7693816c.8564783.1319714 1.7333706.198857 2.6092045.198857.4910687 0 .9778279-.0212393 1.4592945-.0617738-.1113694-.0794852-.2214535-.1605543-.3292693-.2440713-2.1426325-1.659397-3.322634-3.8961415-3.322634-6.2981921 0-2.4019786 1.1800015-4.63872308 3.322634-6.29819208z" fill="#ffffff" mask="url(#b)"/>
    </g>
    <g opacity=".99247901" transform="translate(12.626402 6.961648)">
      <mask id="d" fill="#fff">
        <use xlink:href="#c"/>
      </mask>
      <path d="M13.6708402.7930086C12.3767474.28881053 10.9403618.02213201 9.4521853.02213201c-2.51227604 0-4.87689121.75978899-6.65842366 2.13954793C.99302496 3.55634235.00128532 5.41618022.00128532 7.39855774c0 1.98244951.99173964 3.84228736 2.79247632 5.23694976.48426412.3751067 1.01200237.703919 1.57376386.984565 1.50458328.7517253 3.2553436 1.154983 5.0846598 1.154983.6184669 0 1.2376899-.0472304 1.8424719-.140395l3.5404583 1.9555944c.0497495.027431.1052452.0411826.1607409.0411826.0555713 0 .111067-.0138235.1608165-.0412546.0993479-.054862.1602873-.1563784.1595312-.2657425l-.0210188-3.1267049c1.0703711-.6579126 1.9589826-1.5002106 2.5772226-2.444313.6838672-1.04439491 1.0306774-2.17309878 1.0306774-3.35486476 0-1.98237752-.9917397-3.84221539-2.7924763-5.2368778-.7261316-.562444-1.5492672-1.02171567-2.4397688-1.36867134z" fill="#ffffff" mask="url(#d)"/>
    </g>
  </g>
</svg>
