<?xml version="1.0" standalone="no"?>
<!DOCTYPE svg PUBLIC "-//W3C//DTD SVG 1.1//EN" "http://www.w3.org/Graphics/SVG/1.1/DTD/svg11.dtd" >
<svg xmlns="http://www.w3.org/2000/svg">
<metadata></metadata>
<defs>
<font id="pf_adamant_probold" horiz-adv-x="1269" >
<font-face units-per-em="2048" ascent="1577" descent="-471" />
<missing-glyph horiz-adv-x="542" />
<glyph unicode="&#xfb01;" horiz-adv-x="1474" d="M88 0q-9 41 0 82l145 41v819h-145q-9 38 0 76l145 47v72q0 95 31 169t81.5 120.5t122 76t146 41.5t160.5 12q218 0 393 -69v-248q-103 -15 -200 0l-56 164q-49 14 -110 14q-116 0 -186 -62.5t-70 -193.5v-96h583q78 0 108 -25.5t30 -103.5v-813l145 -41q9 -38 0 -82h-592 q-9 41 0 82l135 41v819h-409v-819l135 -41q9 -38 0 -82h-592z" />
<glyph unicode="&#xfb02;" horiz-adv-x="1474" d="M88 0q-9 41 0 82l145 41v827h-145q-9 38 0 76l145 47v86q0 85 30 153t80 113t119.5 75t146 43t161.5 13q137 0 271.5 -34.5t224.5 -89.5v-1309l145 -41q9 -38 0 -82h-592q-9 41 0 82l135 41v1278q-61 18 -133 18q-54 0 -101.5 -12.5t-87.5 -38.5t-63.5 -72.5 t-23.5 -107.5v-115h235q6 -30 6 -59q0 -34 -6 -64h-235v-827l135 -41q9 -38 0 -82h-592z" />
<glyph unicode="&#xfb03;" horiz-adv-x="2195" d="M88 0q-9 41 0 82l145 41v819h-145q-9 38 0 76l145 47v94q0 104 44.5 182.5t121.5 124t169.5 68t197.5 22.5q208 0 377 -75q134 75 352 75t393 -69v-248q-103 -15 -200 0l-56 164q-49 14 -110 14q-116 0 -186 -62.5t-70 -193.5v-96h583q78 0 108 -25.5t30 -103.5v-813 l145 -41q9 -38 0 -82h-592q-9 41 0 82l135 41v819h-409v-819l135 -41q9 -38 0 -82h-582q-9 41 0 82l135 41v819h-409v-819l135 -41q9 -38 0 -82h-592zM545 1065h409v72q0 141 68 237q-88 45 -205 45q-54 0 -101.5 -13t-86.5 -39.5t-61.5 -72t-22.5 -106.5v-123z" />
<glyph unicode="&#xfb04;" horiz-adv-x="2195" d="M88 0q-9 41 0 82l145 41v827h-145q-9 38 0 76l145 47v86q0 104 44.5 182.5t121.5 124t169.5 68t197.5 22.5q211 0 377 -75q139 75 348 75q137 0 271.5 -34.5t224.5 -89.5v-1309l145 -41q9 -38 0 -82h-592q-9 41 0 82l135 41v1278q-61 18 -133 18q-54 0 -101.5 -12.5 t-87.5 -38.5t-63.5 -72.5t-23.5 -107.5v-115h235q6 -30 6 -59q0 -34 -6 -64h-235v-827l135 -41q9 -38 0 -82h-582q-9 41 0 82l135 41v827h-409v-827l135 -41q9 -38 0 -82h-592zM545 1073h409v86q0 126 66 215q-88 45 -203 45q-54 0 -101.5 -13t-86.5 -39.5t-61.5 -72 t-22.5 -106.5v-115z" />
<glyph horiz-adv-x="2048" />
<glyph horiz-adv-x="2048" />
<glyph unicode="&#xd;" horiz-adv-x="2048" />
<glyph unicode=" "  horiz-adv-x="542" />
<glyph unicode="&#x09;" horiz-adv-x="542" />
<glyph unicode="&#xa0;" horiz-adv-x="542" />
<glyph unicode="!" horiz-adv-x="727" d="M184 1434q98 10 181 10q80 0 178 -10l-107 -965q-38 -6 -74 -6t-73 6zM217 135q0 67 12 135q70 13 133 13q62 0 138 -13q12 -70 12 -137q0 -69 -12 -133q-68 -12 -135 -12q-69 0 -136 12q-12 68 -12 135z" />
<glyph unicode="&#x22;" horiz-adv-x="827" d="M98 1548q78 8 127 8q47 0 125 -8l-53 -569q-38 -6 -74 -6q-33 0 -71 6zM477 1548q78 8 127 8q47 0 125 -8l-53 -569q-38 -6 -74 -6q-34 0 -72 6z" />
<glyph unicode="#" d="M37 479q0 35 6 76h295l80 336h-264q-7 44 -7 76q0 28 7 75h299l94 392q35 6 69 6t72 -6l-94 -392h237l95 392q34 6 69 6t72 -6l-94 -392h252q6 -40 6 -75q0 -39 -6 -76h-287l-80 -336h256q6 -41 6 -76q0 -39 -6 -76h-293l-94 -403q-35 -6 -72 -6q-39 0 -69 6l94 403h-238 l-94 -403q-34 -6 -72 -6q-39 0 -69 6l94 403h-258q-6 37 -6 76zM479 555h238l80 336h-238z" />
<glyph unicode="$" d="M119 145v299q35 7 55 7q27 0 62 -7l94 -249q80 -25 202 -25q65 0 122.5 11t107.5 34.5t79 66t29 99.5q0 25 -9 47t-22 38t-35 30.5t-41 23.5t-48.5 18.5t-47.5 14l-48 12t-41 10.5q-77 19 -135.5 39.5t-121.5 55t-104 76.5t-67.5 104.5t-26.5 138.5q0 92 35 165.5t98 121 t142 75.5t173 38v182q35 6 72 6q35 0 72 -6v-180q225 -9 399 -97v-288q-35 -7 -59 -7q-23 0 -58 7l-86 215q-95 30 -206 30q-73 0 -136.5 -19t-110 -66.5t-46.5 -114.5q0 -29 10.5 -54.5t24 -43t39.5 -34t45 -26t54 -20t51.5 -15t51.5 -12.5q63 -15 106 -26.5t97.5 -30.5 t91 -39t74 -49.5t60 -63.5t36.5 -80t14 -100q0 -90 -36 -164.5t-99.5 -125.5t-143 -84t-173.5 -48v-180q-44 -7 -72 -7q-32 0 -72 7v170q-126 0 -245.5 32t-206.5 88z" />
<glyph unicode="%" horiz-adv-x="1828" d="M72 1036q0 199 93 308.5t261 109.5q169 0 261.5 -109.5t92.5 -308.5q0 -207 -92 -314.5t-262 -107.5q-169 0 -261 107.5t-93 314.5zM315 1036q0 -315 111 -315t111 315q0 312 -111 312t-111 -312zM414 -6l872 1495q72 -25 121 -72l-870 -1497q-66 17 -123 74zM1049 401 q0 199 93 308.5t261 109.5q169 0 261.5 -109.5t92.5 -308.5q0 -207 -91.5 -314t-262.5 -107q-169 0 -261 107t-93 314zM1292 401q0 -315 111 -315q110 0 110 315q0 312 -110 312q-111 0 -111 -312z" />
<glyph unicode="&#x26;" horiz-adv-x="1595" d="M92 365q0 136 75 234t208 175q-137 160 -137 332q0 121 67.5 211.5t169 134t217.5 43.5q74 0 144.5 -19.5t131 -57.5t97.5 -102t37 -145q0 -87 -50.5 -168.5t-123.5 -136.5t-158 -88l315 -358q68 130 68 285l-104 40q-9 41 0 82h479q9 -41 0 -82l-166 -43 q-30 -224 -166 -405l156 -174l176 -41q9 -41 0 -82h-467l-86 96q-187 -116 -412 -116q-92 0 -175 24t-150 70.5t-106.5 121.5t-39.5 169zM379 432q0 -127 82 -212t207 -85q114 0 219 62l-418 473q-90 -99 -90 -238zM528 1163q0 -110 127 -256l29 -35q70 42 110 117.5 t40 159.5q0 78 -39.5 142.5t-114.5 64.5q-71 0 -111.5 -55.5t-40.5 -137.5z" />
<glyph unicode="'" horiz-adv-x="448" d="M98 1548q78 8 127 8q47 0 125 -8l-53 -569q-38 -6 -74 -6q-33 0 -71 6z" />
<glyph unicode="(" horiz-adv-x="774" d="M152 573q0 142 12.5 258.5t45.5 231t87 203.5t139.5 165t200.5 128q43 -46 61 -97q-83 -51 -143.5 -126.5t-96 -158t-56.5 -188.5t-28 -201t-7 -213q0 -99 4.5 -178.5t17 -167.5t36 -161t59 -144t90 -131.5t124.5 -109.5q-22 -62 -61 -95q-115 52 -201 128.5t-139.5 165 t-86.5 202.5t-45.5 230t-12.5 259z" />
<glyph unicode=")" horiz-adv-x="774" d="M76 -317q70 49 124.5 109.5t90 131t59.5 144t36.5 161.5t17 168t4.5 178q0 118 -7 213.5t-28 201t-56.5 188t-96.5 158t-144 126.5q18 51 61 97q115 -52 200.5 -128t139.5 -165t87 -203.5t46 -231t13 -258.5q0 -143 -12.5 -259t-45.5 -230t-87 -202.5t-140 -165 t-201 -128.5q-39 33 -61 95z" />
<glyph unicode="*" horiz-adv-x="1060" d="M86 911l326 168q40 -43 55 -96l-309 -195q-47 56 -72 123zM86 1257q28 70 72 123l307 -196q-16 -54 -55 -97zM459 612l14 365q60 12 113 0l16 -365q-37 -6 -72 -6q-36 0 -71 6zM459 1554q44 7 73 7q30 0 70 -7l-16 -364q-56 -12 -113 0zM594 981q19 58 57 96l324 -168 q-23 -64 -72 -123zM596 1186l307 194q44 -52 72 -123l-324 -170q-43 46 -55 99z" />
<glyph unicode="+" horiz-adv-x="1327" d="M104 553q0 37 7 84h471v467q38 6 82 6t81 -6v-467h472q6 -37 6 -80t-6 -78h-472v-479q-43 -6 -81 -6q-42 0 -82 6v479h-471q-7 40 -7 74z" />
<glyph unicode="," horiz-adv-x="569" d="M98 -264q123 184 123 448q0 33 -4 103q72 10 131 10q61 0 123 -10q2 -23 2 -68q0 -190 -73 -325t-218 -230q-56 26 -84 72z" />
<glyph unicode="-" horiz-adv-x="831" d="M113 608q0 40 6 84h594q6 -44 6 -82q0 -42 -6 -82h-594q-6 41 -6 80z" />
<glyph unicode="." horiz-adv-x="569" d="M150 143q0 75 14 144q82 14 141 14q67 0 146 -14q12 -73 12 -144q0 -73 -12 -143q-70 -12 -142 -12t-145 12q-14 66 -14 143z" />
<glyph unicode="/" horiz-adv-x="841" d="M41 -106l584 1642h172l4 -6l-584 -1643h-172z" />
<glyph unicode="0" d="M94 717q0 354 136.5 545.5t404.5 191.5t404.5 -191.5t136.5 -545.5t-136.5 -545.5t-404.5 -191.5q-269 0 -405 191t-136 546zM410 717q0 -136 10.5 -239t35.5 -186t70 -126t109 -43t109 43t70 126t35.5 186t10.5 239t-10.5 239t-35.5 186t-70 126t-109 43t-109 -43 t-70 -126t-35.5 -186t-10.5 -239z" />
<glyph unicode="1" d="M246 1264q-12 51 0 102l338 76q49 12 90 12q127 0 127 -141v-1176l239 -51q9 -43 0 -86h-790q-9 43 0 86l239 51v1127h-243z" />
<glyph unicode="2" d="M72 0v123l397 375q63 59 107 109t88.5 115t67 137t22.5 149q0 148 -76.5 220t-200.5 72q-77 0 -153 -24l-91 -279q-58 -12 -116 0v299q78 75 200 116.5t254 41.5q100 0 189 -24.5t162 -73t116 -129t43 -183.5q0 -43 -7 -83.5t-17 -74t-31 -69.5t-37 -61.5t-48 -60 t-52.5 -54.5t-61.5 -55t-62.5 -52t-68.5 -54q-10 -9 -16 -13l-219 -172v-8h643q8 -86 8 -144q0 -57 -8 -143h-1032z" />
<glyph unicode="3" d="M117 86v309q58 12 116 0l78 -223q108 -41 211 -41q142 0 222.5 75.5t80.5 215.5q0 74 -23.5 124t-69.5 76.5t-102 37t-134 10.5h-144q-8 39 -8 71q0 33 8 72h129q142 0 220.5 67.5t78.5 196.5q0 115 -67 175.5t-183 60.5q-99 0 -192 -41l-68 -211q-58 -12 -116 0v299 q196 94 440 94q75 0 144 -11.5t135 -38.5t115 -67.5t78.5 -102.5t29.5 -140q0 -128 -76.5 -216.5t-208.5 -111.5v-8q145 -9 237.5 -106t92.5 -238q0 -91 -34.5 -165t-92 -123t-134.5 -83t-158.5 -48.5t-168.5 -14.5q-256 0 -436 106z" />
<glyph unicode="4" d="M14 393v123l729 938h250v-917h199q6 -35 6 -70q0 -37 -6 -74h-199v-256l199 -51q9 -43 0 -86h-709q-9 43 0 86l199 51v256h-668zM225 537h457v581h-8l-449 -573v-8z" />
<glyph unicode="5" d="M168 82v309q58 12 117 0l84 -235q98 -25 170 -25q147 0 234 88.5t87 241.5q0 146 -82.5 212t-240.5 66q-38 0 -84.5 -3.5t-77 -7.5t-80 -10.5t-64.5 -8.5l-16 14v694l14 17h869q8 -90 8 -144q0 -57 -8 -143h-736v-279q164 21 256 21q116 0 212 -22.5t175.5 -70.5 t124 -134t44.5 -203q0 -98 -33.5 -178.5t-91 -135.5t-136 -93t-167 -55t-185.5 -17q-217 0 -393 102z" />
<glyph unicode="6" d="M133 571q0 141 30.5 271t92.5 241.5t150 194t210 129.5t265 47q99 0 204 -31q3 -70 -26 -139q-64 21 -133 21q-177 0 -298 -119t-163 -303l8 -2q98 65 242 65q206 0 333.5 -131t127.5 -346q0 -218 -139 -353.5t-375 -135.5q-116 0 -207 31.5t-151 86t-99 131t-55.5 160.5 t-16.5 182zM453 463q0 -97 19 -170t67 -121.5t123 -48.5q198 0 198 340q0 338 -198 338q-75 0 -123 -48t-67 -120.5t-19 -169.5z" />
<glyph unicode="7" d="M143 1032v402h1014v-123l-661 -1334q-114 41 -193 103l615 1061l-3 6h-616l-39 -115q-58 -12 -117 0z" />
<glyph unicode="8" d="M100 371q0 109 63 194t169 137v9q-93 65 -146 151t-53 207q0 118 74 207.5t187.5 133.5t244.5 44q118 0 214.5 -30t157.5 -81t93.5 -115.5t32.5 -135.5q0 -209 -234 -316v-8q61 -31 105.5 -62.5t83 -75t58 -100.5t19.5 -127q0 -98 -45 -179.5t-120 -134t-171 -81 t-200 -28.5q-108 0 -203 25t-169.5 72t-117.5 123t-43 171zM406 387q0 -113 60 -187.5t169 -74.5q94 0 156.5 58.5t62.5 150.5q0 29 -9.5 54.5t-21 44.5t-37 39.5t-42 32t-52 29t-50.5 24t-54 22.5q-18 7 -54 22.5t-42 18.5q-86 -83 -86 -234zM440 1118q0 -27 4.5 -50 t18.5 -44t25 -36t37.5 -33.5t42 -28.5t53.5 -28.5t55.5 -26.5t64.5 -29q86 100 86 248q0 95 -48 159t-142 64q-81 0 -139 -56t-58 -139z" />
<glyph unicode="9" d="M109 956q0 219 139.5 358.5t374.5 139.5q116 0 207 -32t150.5 -86t98.5 -130.5t55.5 -161t16.5 -182.5q0 -149 -32.5 -282.5t-96.5 -243t-154.5 -189t-212.5 -123.5t-264 -44q-107 0 -213 28q-3 65 27 139q62 -22 137 -22q182 0 308 124t161 312l-8 2q-92 -63 -234 -63 q-204 0 -332 121t-128 335zM424 977q0 -332 199 -332q75 0 123 46.5t66.5 117.5t18.5 168t-18.5 168.5t-66.5 118.5t-123 47q-199 0 -199 -334z" />
<glyph unicode=":" horiz-adv-x="569" d="M150 143q0 75 14 144q82 14 141 14q67 0 146 -14q12 -73 12 -144q0 -73 -12 -143q-70 -12 -142 -12t-145 12q-14 66 -14 143zM150 942q0 74 14 143q88 15 141 15q62 0 146 -15q12 -74 12 -143q0 -72 -12 -143q-76 -13 -142 -13q-65 0 -145 13q-14 66 -14 143z" />
<glyph unicode=";" horiz-adv-x="569" d="M92 -264q123 184 123 448q0 33 -4 103q72 10 131 10q61 0 123 -10q2 -23 2 -68q0 -190 -73 -325t-218 -230q-56 26 -84 72zM164 942q0 74 14 143q88 15 141 15q62 0 146 -15q12 -74 12 -143q0 -72 -12 -143q-76 -13 -141 -13q-66 0 -146 13q-14 66 -14 143z" />
<glyph unicode="&#x3c;" horiz-adv-x="1327" d="M102 543q0 34 7 88l1048 475q46 -73 68 -156l-910 -403v-8l910 -404q-20 -83 -70 -155l-1046 477q-7 47 -7 86z" />
<glyph unicode="=" horiz-adv-x="1327" d="M104 379q0 33 7 80h1103q7 -47 7 -80q0 -31 -7 -78h-1103q-7 47 -7 78zM104 735q0 33 7 80h1103q7 -47 7 -80q0 -31 -7 -78h-1103q-7 47 -7 78z" />
<glyph unicode="&#x3e;" horiz-adv-x="1327" d="M102 135l910 404v8l-910 403q22 83 68 156l1049 -475q6 -46 6 -88q0 -46 -6 -86l-1047 -477q-50 72 -70 155z" />
<glyph unicode="?" horiz-adv-x="1015" d="M66 1016v291q92 71 210 109t244 38q215 0 333 -94t118 -238q0 -82 -26 -144.5t-68.5 -102.5t-94.5 -73t-106.5 -63.5t-102.5 -64.5t-84 -86t-49 -119q-38 -6 -71 -6q-37 0 -72 6q-7 81 8 144t45.5 103t68.5 73t78 62t73 60t54 77.5t21 105.5q0 109 -59 162t-154 53 q-82 0 -170 -43l-80 -250q-55 -12 -116 0zM238 135q0 67 12 135q70 13 133 13q61 0 137 -13q12 -68 12 -135t-12 -135q-68 -12 -133 -12q-69 0 -137 12q-12 68 -12 135z" />
<glyph unicode="@" horiz-adv-x="1781" d="M86 451q0 153 44 289.5t125 242.5t191.5 182.5t247.5 117t289 40.5q142 0 271 -44t228.5 -123t158.5 -199.5t59 -264.5q0 -108 -36 -208t-102.5 -179t-169.5 -126.5t-227 -47.5q-146 0 -178 117q-15 56 -6 133h-8q-48 -105 -130.5 -178.5t-183.5 -73.5q-43 0 -78 15 t-57 39.5t-36.5 58.5t-20.5 69t-6 74q0 102 34.5 203t94.5 182t150.5 131.5t193.5 50.5q95 0 174 -39q15 25 44 32t75 7h71l-79 -432q-21 -110 -21 -162q0 -110 82 -110q68 0 121 42.5t81 108.5t42 134t14 131q0 258 -153.5 403t-419.5 145q-150 0 -278.5 -52t-222.5 -146.5 t-147 -236t-53 -312.5q0 -270 159 -435t413 -165q210 0 335 72q28 -48 31 -99q-160 -90 -389 -90q-156 0 -290.5 52t-230.5 144t-151 223t-55 284zM690 397q0 -121 51 -121q57 0 120.5 81t111 195.5t71.5 229.5l13 60q-35 12 -82 12q-72 0 -130 -48.5t-90 -122t-48.5 -148 t-16.5 -138.5z" />
<glyph unicode="A" horiz-adv-x="1671" d="M27 0q-4 22 -4.5 43t4.5 43l161 51l510 1338h279l506 -1338l162 -51q4 -23 4.5 -44.5t-4.5 -41.5h-687q-4 22 -4 43t4 43l183 51l-119 316h-547l-121 -316l183 -51q4 -22 4.5 -43t-4.5 -43h-510zM535 608h428l-207 551h-11z" />
<glyph unicode="B" horiz-adv-x="1445" d="M82 0q-4 22 -4 43t4 43l182 51v1200l-182 52q-4 22 -4 43.5t4 42.5h590q79 0 143 -5t137.5 -17.5t128 -38.5t100.5 -65t70.5 -100t24.5 -139q0 -120 -73 -203t-197 -108v-8q157 -11 257.5 -105.5t100.5 -243.5q0 -83 -25 -151t-71 -115.5t-106 -82.5t-135 -55t-152.5 -29 t-163.5 -9h-629zM584 156h110q63 0 111.5 7t92.5 25t72.5 48t45 78t16.5 112t-16.5 112t-45 78t-72.5 48t-92.5 25t-111.5 7h-110v-540zM584 852h82q144 0 211 58t67 175t-67 175.5t-211 58.5h-82v-467z" />
<glyph unicode="C" horiz-adv-x="1435" d="M94 737q0 179 59.5 324t165.5 239t249.5 144.5t312.5 50.5q259 0 450 -113v-319q-30 -6 -61 -6q-32 0 -62 6l-94 240q-80 38 -190 38q-133 0 -231.5 -45.5t-157 -128.5t-86 -190t-27.5 -240q0 -283 122 -439.5t380 -156.5q112 0 194 33l101 272q35 7 61 7t61 -7v-331 q-107 -64 -243.5 -99.5t-276.5 -35.5q-162 0 -295 49t-229.5 143t-149.5 238t-53 327z" />
<glyph unicode="D" horiz-adv-x="1597" d="M82 0q-4 22 -4 43t4 43l182 51v1200l-182 52q-4 22 -4 43.5t4 42.5h651q400 0 585 -181.5t185 -556.5t-185 -556t-585 -181h-651zM584 156h149q123 0 210.5 40t138.5 118.5t73.5 181.5t22.5 241t-22.5 241t-73.5 181.5t-138.5 119t-210.5 40.5h-149v-1163z" />
<glyph unicode="E" horiz-adv-x="1421" d="M82 0q-4 22 -4 43t4 43l182 51v1200l-182 52q-4 22 -4 43.5t4 42.5h1208v-342q-35 -7 -61 -7q-27 0 -62 7l-71 186h-512v-477h370l52 127q25 6 50 6l50 -6v-447q-26 -6 -51 -6t-49 6l-52 164h-370v-530h551l71 196q30 6 62 6q31 0 61 -6v-352h-1247z" />
<glyph unicode="F" horiz-adv-x="1310" d="M82 0q-4 22 -4 43t4 43l182 51v1200l-182 52q-4 22 -4 43.5t4 42.5h1167v-342q-35 -7 -61 -7q-27 0 -62 7l-71 186h-471v-518h329l52 127q25 6 50 6l50 -6v-447q-26 -6 -51.5 -6t-48.5 6l-52 164h-329v-508l182 -51q4 -22 4 -43t-4 -43h-684z" />
<glyph unicode="G" horiz-adv-x="1570" d="M94 739q0 148 40 271.5t112.5 212.5t173 150.5t221 91.5t256.5 30q277 0 471 -111v-319q-30 -6 -61 -6q-32 0 -62 6l-94 240q-80 34 -207 34q-522 0 -522 -600q0 -127 25.5 -231.5t79 -188t145 -130t215.5 -46.5q98 0 170 41v408l-242 51q-5 21 -5 43t5 43h655 q4 -21 4 -43t-4 -43l-102 -37v-626h-90q-107 0 -145 75q-141 -75 -338 -75q-320 0 -510.5 200t-190.5 559z" />
<glyph unicode="H" horiz-adv-x="1755" d="M82 0q-4 22 -4 43t4 43l182 51v1200l-182 52q-4 22 -4 43.5t4 42.5h674q4 -22 4 -43.5t-4 -42.5l-172 -52v-485h587v485l-172 52q-4 22 -4.5 43.5t4.5 42.5h674q4 -22 4.5 -43.5t-4.5 -42.5l-182 -52v-1200l182 -51q4 -22 4.5 -43t-4.5 -43h-674q-4 22 -4.5 43t4.5 43 l172 51v559h-587v-559l172 -51q4 -22 4 -43t-4 -43h-674z" />
<glyph unicode="I" horiz-adv-x="847" d="M82 0q-4 22 -4 43t4 43l182 51v1200l-182 52q-4 22 -4 43.5t4 42.5h684q4 -22 4 -43.5t-4 -42.5l-182 -52v-1200l182 -51q4 -22 4 -43t-4 -43h-684z" />
<glyph unicode="J" horiz-adv-x="847" d="M23 -236q61 13 105 38.5t70 58t41 82t20 99t5 118.5v1177l-182 52q-4 21 -4 43t4 43h684q4 -21 4 -43t-4 -43l-182 -52v-1255q0 -194 -147 -303t-388 -109q-26 47 -26 94z" />
<glyph unicode="K" horiz-adv-x="1628" d="M82 0q-4 22 -4 43t4 43l182 51v1200l-182 52q-4 22 -4 43.5t4 42.5h684q4 -22 4 -43.5t-4 -42.5l-182 -52v-1200l182 -51q4 -22 4 -43t-4 -43h-684zM604 739l526 615l-126 35q-4 20 -4 41.5t4 44.5h532q4 -22 4 -43.5t-4 -42.5l-217 -56l-412 -477l547 -719l164 -51 q4 -22 4 -43t-4 -43h-449z" />
<glyph unicode="L" horiz-adv-x="1284" d="M82 0q-4 22 -4 43t4 43l182 51v1200l-182 52q-4 22 -4 43.5t4 42.5h684q4 -22 4 -43.5t-4 -42.5l-182 -52v-1181h465l92 239q30 6 61 6q32 0 62 -6v-395h-1182z" />
<glyph unicode="M" horiz-adv-x="2172" d="M59 0q-4 22 -4.5 43t4.5 43l164 51l109 1200l-182 52q-4 22 -4 43.5t4 42.5h534l389 -1059h8l432 1059h523q4 -22 4 -43.5t-4 -42.5l-183 -52l54 -1200l182 -51q4 -22 4.5 -43t-4.5 -43h-684q-4 22 -4.5 43t4.5 43l182 51l-45 973h-8l-453 -1110h-196l-408 1112h-8 l-88 -975l184 -51q4 -22 4.5 -43t-4.5 -43h-506z" />
<glyph unicode="N" horiz-adv-x="1583" d="M80 0q-4 22 -4 43t4 43l162 51v1200l-162 52q-4 22 -4 43.5t4 42.5h495l603 -1014h8v876l-182 52q-4 22 -4 43.5t4 42.5h499q4 -22 4.5 -43.5t-4.5 -42.5l-162 -52v-1337h-258l-677 1137h-9v-1000l183 -51q4 -22 4 -43t-4 -43h-500z" />
<glyph unicode="O" horiz-adv-x="1597" d="M94 737q0 372 178.5 565t526.5 193t526 -193t178 -565t-178 -564.5t-526 -192.5t-526.5 193t-178.5 564zM422 737q0 -602 377 -602t377 602t-377 602t-377 -602z" />
<glyph unicode="P" horiz-adv-x="1374" d="M82 0q-4 22 -4 43t4 43l182 51v1200l-182 52q-4 22 -4 43.5t4 42.5h541q342 0 508.5 -111.5t166.5 -341.5q0 -108 -42 -197.5t-124 -157t-213 -105.5t-298 -38h-37v-387l182 -51q4 -22 4 -43t-4 -43h-684zM584 680h39q177 0 266.5 84.5t89.5 234.5q0 320 -356 320h-39 v-639z" />
<glyph unicode="Q" horiz-adv-x="1597" d="M94 737q0 372 178.5 565t526.5 193t526 -193t178 -565q0 -323 -135.5 -511.5t-400.5 -231.5q18 -95 71 -151.5t160 -78.5q0 -45 -27 -94q-210 0 -350.5 84t-173.5 236q-275 40 -414 229t-139 518zM422 737q0 -602 377 -602t377 602t-377 602t-377 -602z" />
<glyph unicode="R" horiz-adv-x="1525" d="M82 0q-4 22 -4 43t4 43l182 51v1200l-182 52q-4 22 -4 43.5t4 42.5h541q344 0 509.5 -99.5t165.5 -322.5q0 -143 -77.5 -248.5t-229.5 -161.5l375 -506l150 -51q4 -22 4 -43t-4 -43h-441l-430 586h-61v-449l161 -51q4 -22 4.5 -43t-4.5 -43h-663zM584 737h39 q176 0 266 74t90 217q0 150 -88.5 220.5t-267.5 70.5h-39v-582z" />
<glyph unicode="S" horiz-adv-x="1302" d="M102 111v331q35 7 62 7q26 0 61 -7l101 -272q103 -29 215 -29q70 0 131 12.5t114 38.5t84 73.5t31 111.5q0 43 -23 78t-49 55t-77.5 38.5t-75 24.5t-76.5 17q-2 1 -4 1.5t-4 0.5q-81 17 -146.5 39.5t-131 59.5t-109.5 84.5t-71.5 117t-27.5 154.5q0 115 47.5 203 t129 140.5t182.5 78.5t217 26q129 0 255 -29.5t222 -81.5v-319q-30 -6 -61 -6q-32 0 -62 6l-94 240q-104 34 -217 34q-76 0 -144.5 -22.5t-117.5 -75.5t-49 -129q0 -32 10.5 -59.5t24.5 -46.5t41.5 -36.5t47 -28t57.5 -22t56 -16l58 -14.5q65 -16 112 -29t103.5 -33.5 t96 -43t79 -55t63.5 -70.5t39 -89.5t15 -111.5q0 -97 -36 -177t-97 -134.5t-142.5 -92.5t-172 -55.5t-187.5 -17.5q-135 0 -262.5 34.5t-217.5 96.5z" />
<glyph unicode="T" horiz-adv-x="1359" d="M25 1090v385h1310v-385q-35 -7 -61 -7q-27 0 -62 7l-88 229h-284v-1182l182 -51q4 -22 4 -43t-4 -43h-684q-4 22 -4 43t4 43l182 51v1182h-284l-89 -229q-35 -7 -61 -7t-61 7z" />
<glyph unicode="U" horiz-adv-x="1619" d="M82 1389q-4 22 -4 43.5t4 42.5h663q4 -22 4.5 -43.5t-4.5 -42.5l-182 -52v-743q0 -229 75 -335.5t257 -106.5q168 0 250 115.5t82 328.5v741l-183 52q-4 22 -4 43.5t4 42.5h500q4 -22 4 -43.5t-4 -42.5l-162 -52v-721q0 -636 -569 -636q-160 0 -271.5 41t-176 125 t-93 197.5t-28.5 272.5v721z" />
<glyph unicode="V" horiz-adv-x="1650" d="M25 1389q-4 23 -4.5 44.5t4.5 41.5h686q4 -22 4.5 -43.5t-4.5 -42.5l-183 -52l379 -1022h11l385 1022l-183 52q-4 22 -4 43.5t4 42.5h510q4 -22 4 -43.5t-4 -42.5l-162 -52l-503 -1337h-279l-500 1337z" />
<glyph unicode="W" horiz-adv-x="2220" d="M31 1389q-4 23 -4.5 44.5t4.5 41.5h676q4 -22 4.5 -43.5t-4.5 -42.5l-183 -52l254 -938h10l312 1055h196l297 -1055h11l266 938l-182 52q-4 22 -4 43.5t4 42.5h505q4 -22 4.5 -43.5t-4.5 -42.5l-161 -52l-381 -1337h-279l-258 924h-8l-270 -924h-279l-364 1337z" />
<glyph unicode="X" horiz-adv-x="1554" d="M27 0q-4 22 -4.5 43t4.5 43l161 51l420 598l-379 602l-161 52q-4 23 -4 44.5t4 41.5h700q4 -22 4 -43.5t-4 -42.5l-162 -52l252 -399l283 399l-160 52q-4 22 -4.5 43.5t4.5 42.5h512q4 -22 4.5 -43.5t-4.5 -42.5l-162 -52l-381 -542l416 -658l162 -51q4 -23 4 -44.5 t-4 -41.5h-723q-4 22 -4.5 43t4.5 43l182 51l-289 455l-317 -455l182 -51q4 -22 4.5 -43t-4.5 -43h-536z" />
<glyph unicode="Y" horiz-adv-x="1521" d="M16 1389q-4 23 -4 44.5t4 41.5h701q5 -21 5 -43t-5 -43l-172 -52l309 -559h8l303 559l-172 52q-5 21 -5 43t5 43h512q5 -21 5 -43t-5 -43l-162 -52l-417 -766v-434l182 -51q4 -22 4 -43t-4 -43h-684q-4 22 -4 43t4 43l182 51v430l-428 770z" />
<glyph unicode="Z" horiz-adv-x="1366" d="M57 0v137l811 1174v8h-542l-88 -229q-35 -7 -62 -7q-26 0 -61 7v385h1163v-138l-813 -1173v-8h629l92 239q30 6 61 6q32 0 62 -6v-395h-1252z" />
<glyph unicode="[" horiz-adv-x="774" d="M221 -379v1905l10 10h459q6 -38 6 -72q0 -36 -6 -71h-264v-1639h264q6 -38 6 -71q0 -37 -6 -72h-459z" />
<glyph unicode="\" horiz-adv-x="841" d="M41 1530l4 6h172l584 -1642l-4 -7h-172z" />
<glyph unicode="]" horiz-adv-x="774" d="M76 -317q0 33 6 71h264v1639h-264q-6 35 -6 71q0 34 6 72h459l10 -10v-1905l-10 -10h-459q-6 35 -6 72z" />
<glyph unicode="^" horiz-adv-x="1327" d="M137 553l459 881q32 4 66 4q35 0 67 -4l459 -881q-64 -50 -150 -74l-370 721h-9l-374 -721q-77 21 -148 74z" />
<glyph unicode="_" horiz-adv-x="1024" d="M0 -154h1024v-102h-1024v102z" />
<glyph unicode="`" horiz-adv-x="819" d="M217 1487q56 64 150 125l233 -338q-40 -50 -96 -80z" />
<glyph unicode="a" horiz-adv-x="1275" d="M94 297q0 70 23 126.5t58.5 93.5t92 64.5t110.5 42.5t128.5 24.5t130.5 12t131 3.5v98q0 194 -242 194q-94 0 -182 -16l-61 -188q-30 -6 -59 -6t-58 6v266q257 88 455 88q99 0 178.5 -19t144 -60.5t100 -115t35.5 -174.5v-608h146q6 -26 6 -51.5t-6 -50.5l-244 -41 q-35 -6 -70 -6q-143 0 -143 145v8h-8q-59 -75 -145 -114t-185 -39q-149 0 -242.5 81.5t-93.5 235.5zM410 311q0 -80 36 -117.5t95 -37.5q60 0 125 34t102 84v269q-358 -5 -358 -232z" />
<glyph unicode="b" horiz-adv-x="1300" d="M59 1397q-4 26 -4.5 51.5t4.5 50.5l269 49q41 8 78 8q61 0 85.5 -32t24.5 -107v-461h8q51 69 129 109.5t162 40.5q105 0 186 -43.5t128 -117t70.5 -161.5t23.5 -186q0 -181 -64 -319t-192 -218.5t-305 -80.5q-111 0 -203 43q-27 -27 -63 -35t-99 -8h-92v1417h-146z M516 133q46 -14 92 -14q67 0 119.5 27.5t85.5 71.5t55 104t30.5 119t8.5 122q0 46 -4 89.5t-16.5 95t-33 89.5t-57 63.5t-83.5 25.5q-108 0 -197 -115v-678z" />
<glyph unicode="c" horiz-adv-x="1105" d="M78 541q0 271 155.5 418t413.5 147q207 0 371 -90v-260q-29 -6 -58.5 -6t-58.5 6l-61 192q-50 13 -99 13q-99 0 -168 -29t-107.5 -86.5t-55.5 -131t-17 -173.5q0 -202 80 -307t270 -105q61 0 107 14l61 213q28 6 57 6t60 -6v-270q-157 -106 -391 -106q-265 0 -412 143.5 t-147 417.5z" />
<glyph unicode="d" horiz-adv-x="1302" d="M78 502q0 275 156.5 439.5t414.5 164.5q58 0 137 -14v305h-145q-4 26 -4.5 51.5t4.5 50.5l268 49q41 8 78 8q61 0 86 -32.5t25 -106.5v-1288h145q6 -26 6 -51.5t-6 -50.5l-244 -41q-35 -6 -71 -6q-142 0 -142 143v8h-8q-117 -151 -299 -151q-83 0 -151.5 29t-114 78.5 t-76.5 117t-45 142t-14 155.5zM393 514q0 -356 201 -356q55 0 107 30.5t85 85.5v693q-38 6 -71 6q-89 0 -153.5 -37.5t-100 -104t-52 -145t-16.5 -172.5z" />
<glyph unicode="e" horiz-adv-x="1200" d="M78 543q0 264 145.5 413.5t405.5 149.5q116 0 208 -35.5t150 -98.5t88.5 -146t30.5 -181q0 -47 -8 -104h-705q0 -213 81 -314.5t263 -101.5q81 0 166 20l62 201q28 6 56.5 6t59.5 -6v-260q-192 -106 -434 -106q-173 0 -299 60.5t-198 188.5t-72 314zM401 664l394 24 q0 133 -47.5 205t-124.5 72q-98 0 -152 -82.5t-70 -218.5z" />
<glyph unicode="f" horiz-adv-x="802" d="M88 0q-4 20 -4 41t4 41l145 41v827h-145q-4 19 -4 38t4 38l145 47v96q0 101 31 176.5t87 121t128 67.5t160 22q124 0 256 -38v-250q-29 -6 -58.5 -6t-58.5 6l-51 164q-103 0 -142.5 -55.5t-39.5 -178.5v-125h235q6 -30 6 -59q0 -34 -6 -64h-235v-827l145 -41 q4 -19 4 -39.5t-4 -42.5h-602z" />
<glyph unicode="g" horiz-adv-x="1185" d="M109 -102q28 4 54.5 4t51.5 -4l61 -156q30 -15 107.5 -26t167.5 -11q73 0 135.5 7.5t116.5 24t85.5 46t31.5 70.5q0 33 -29.5 48t-93.5 15h-275q-73 0 -130.5 7t-110 25t-86.5 47.5t-54 77t-20 111.5q0 72 37.5 135t103.5 105v8q-139 88 -139 297q0 186 116.5 281.5 t346.5 95.5q149 0 252 -41h315q6 -30 6 -61q0 -32 -6 -62h-160v-8q56 -86 56 -205q0 -377 -463 -377q-133 0 -221 29q-54 -44 -54 -90q0 -16 5 -29t16 -22t22 -15.5t30.5 -10.5t33.5 -6.5t39 -3.5t39 -1h41h247q168 0 261.5 -64.5t93.5 -197.5q0 -75 -26 -136t-72.5 -101 t-103 -69t-125 -44t-132 -22t-129.5 -7q-248 0 -442 76v260zM434 729q0 -135 35.5 -186t116.5 -51t116 51t35 186t-35 186.5t-116 51.5t-116.5 -51.5t-35.5 -186.5z" />
<glyph unicode="h" horiz-adv-x="1417" d="M72 0q-4 20 -4 41t4 41l145 41v1274h-145q-4 26 -4 51.5t4 50.5l268 49q41 8 78 8q61 0 85.5 -32t24.5 -107v-463h9q165 152 366 152q95 0 159.5 -32.5t98 -94.5t47 -134t13.5 -169v-553l145 -41q4 -16 4 -37t-4 -45h-580q-4 20 -4 41t4 41l123 41v485q0 42 -1 69 t-5.5 67.5t-15.5 66t-28.5 51.5t-47 38.5t-68.5 12.5q-55 0 -114.5 -28t-100.5 -68v-694l123 -41q4 -19 4.5 -39.5t-4.5 -42.5h-579z" />
<glyph unicode="i" horiz-adv-x="753" d="M88 0q-4 20 -4 41t4 41l145 41v823h-145q-4 26 -4 52t4 51l268 49q41 8 78 8q61 0 86 -32.5t25 -106.5v-844l145 -41q4 -19 4 -39.5t-4 -42.5h-602zM219 1419q0 71 14 137q84 15 136 15q51 0 139 -15q14 -79 14 -137q0 -62 -14 -137q-68 -12 -135 -12q-69 0 -140 12 q-14 63 -14 137z" />
<glyph unicode="j" horiz-adv-x="733" d="M39 -324q50 23 84.5 51t54.5 57t30.5 72.5t13.5 84t3 104.5v901h-145q-4 26 -4 52t4 51l268 49q41 8 78 8q61 0 86 -32.5t25 -106.5v-963q0 -184 -122.5 -292.5t-334.5 -129.5q-35 38 -41 94zM209 1419q0 71 14 137q84 15 135 15q52 0 140 -15q14 -79 14 -137 q0 -62 -14 -137q-68 -12 -136 -12t-139 12q-14 63 -14 137z" />
<glyph unicode="k" horiz-adv-x="1382" d="M63 0q-4 20 -4.5 41t4.5 41l146 41v1274h-146q-4 26 -4.5 51.5t4.5 50.5l269 49q41 8 78 8q61 0 85.5 -32t24.5 -107v-1294l123 -41q4 -19 4.5 -39.5t-4.5 -42.5h-580zM541 553v8l401 406l-135 37q-4 20 -4.5 40t4.5 41h526q4 -20 4.5 -40.5t-4.5 -40.5l-203 -48 l-286 -292l401 -541l135 -41q4 -20 4 -41t-4 -41h-428z" />
<glyph unicode="l" horiz-adv-x="729" d="M63 0q-4 20 -4.5 41t4.5 41l146 41v1274h-146q-4 26 -4.5 51.5t4.5 50.5l269 49q41 8 78 8q61 0 85.5 -32t24.5 -107v-1294l146 -41q4 -19 4 -39.5t-4 -42.5h-603z" />
<glyph unicode="m" horiz-adv-x="2109" d="M88 0q-4 20 -4 41t4 41l145 41v823h-145q-4 26 -4 52t4 51l268 49q41 8 78 8q61 0 86 -32.5t25 -106.5v-13h8q171 152 356 152q198 0 269 -156h8q176 156 385 156q83 0 144 -22.5t97.5 -59.5t58.5 -94.5t30 -117t8 -136.5v-553l145 -41q4 -16 4 -37t-4 -45h-579 q-4 20 -4.5 41t4.5 41l122 41v485q0 36 -0.5 59t-4.5 58.5t-11 58.5t-20.5 49.5t-33 42.5t-49 26.5t-67.5 10.5q-96 0 -197 -73q13 -66 13 -164v-553l123 -41q4 -16 4 -37t-4 -45h-557q-4 20 -4.5 41t4.5 41l122 41v485q0 31 -0.5 51t-2.5 51.5t-6.5 52t-12 46.5t-20 42.5 t-29 32t-40.5 22.5t-54 7q-97 0 -205 -96v-694l123 -41q4 -19 4 -39.5t-4 -42.5h-580z" />
<glyph unicode="n" horiz-adv-x="1437" d="M88 0q-4 20 -4 41t4 41l145 41v823h-145q-4 26 -4 52t4 51l268 49q41 8 78 8q61 0 86 -32.5t25 -106.5v-13h8q165 152 367 152q76 0 133 -22.5t92 -60t56 -94t28.5 -116.5t7.5 -137v-553l145 -41q4 -16 4 -37t-4 -45h-579q-4 20 -4.5 41t4.5 41l123 41v485q0 42 -1 69 t-5.5 67.5t-15.5 66t-28.5 51.5t-47 38.5t-68.5 12.5q-55 0 -114.5 -28t-100.5 -68v-694l123 -41q4 -19 4 -39.5t-4 -42.5h-580z" />
<glyph unicode="o" horiz-adv-x="1253" d="M78 543q0 268 141.5 415.5t407.5 147.5q265 0 407 -147.5t142 -415.5q0 -270 -141.5 -416.5t-407.5 -146.5q-267 0 -408 146.5t-141 416.5zM393 543q0 -216 62.5 -318t171.5 -102t171 102t62 318t-62 318t-171 102t-171.5 -102t-62.5 -318z" />
<glyph unicode="p" horiz-adv-x="1320" d="M80 -328l145 41v1233h-145q-4 26 -4 52t4 51l268 49q41 8 78 8q61 0 86 -32.5t25 -106.5v-11h8q53 71 130 110.5t163 39.5q102 0 182 -42.5t127.5 -114.5t71.5 -161.5t24 -189.5q0 -169 -66.5 -308t-198 -224.5t-304.5 -85.5q-72 0 -137 12v-279l145 -41q4 -19 4 -39.5 t-4 -42.5h-602q-4 20 -4 41t4 41zM537 119q41 -8 77 -8q67 0 121 26.5t89.5 70.5t59.5 103.5t34 122t10 129.5q0 46 -4 89.5t-17 95t-33.5 89.5t-57 63.5t-83.5 25.5q-108 0 -196 -113v-694z" />
<glyph unicode="q" horiz-adv-x="1298" d="M78 500q0 122 36.5 231.5t104.5 193t173 132.5t233 49q109 0 213 -43q25 30 57.5 36.5t105.5 6.5h93v-1393l145 -41q5 -19 5 -39.5t-5 -42.5h-602q-5 20 -5 41t5 41l145 41v418h-8q-106 -151 -295 -151q-85 0 -154 30t-114 80t-76 118t-44 141t-13 151zM393 514 q0 -356 195 -356q56 0 109 31.5t85 84.5v680q-40 7 -69 7q-72 0 -128 -24.5t-92 -66t-59 -100t-32 -121t-9 -135.5z" />
<glyph unicode="r" horiz-adv-x="1013" d="M88 0q-4 20 -4 41t4 41l145 41v823h-145q-4 26 -4 52t4 51l268 49q41 8 78 8q61 0 86 -32.5t25 -106.5v-13h8q69 73 148 112.5t204 39.5q47 0 99 -6v-322q-31 -6 -60.5 -6t-56.5 6l-41 129q-34 6 -66 6q-139 0 -235 -96v-694l145 -41q4 -19 4 -39.5t-4 -42.5h-602z" />
<glyph unicode="s" horiz-adv-x="1071" d="M106 74v270q31 6 60.5 6t56.5 -6l62 -199q79 -22 168 -22q51 0 95 8t83 24.5t61.5 47.5t22.5 73q0 36 -26 61.5t-69 40t-97.5 30.5t-112 30t-112 41t-97.5 61.5t-69 93.5t-26 136q0 73 28.5 132t74.5 96.5t108 62.5t125 35t129 10q196 0 371 -82v-250q-29 -6 -58.5 -6 t-58.5 6l-57 174q-84 15 -152 15q-42 0 -79 -6t-72.5 -20t-56.5 -42t-21 -68q0 -39 26 -66.5t69 -43t98 -31.5t112 -29t112 -38t98 -57t69 -87t26 -127q0 -94 -43.5 -166.5t-117 -115.5t-162 -64.5t-187.5 -21.5q-107 0 -208 25t-173 69z" />
<glyph unicode="t" horiz-adv-x="806" d="M51 950q-4 19 -4.5 38t4.5 38l146 47v293l292 55l19 -16v-332h268q6 -30 6 -59q0 -34 -6 -64h-268v-506q0 -50 1.5 -83.5t8 -72.5t17.5 -63.5t30.5 -48.5t48 -36t68.5 -18q23 -3 52 -3q20 0 42 2q6 -30 6 -62q0 -31 -6 -61q-80 -18 -180 -18q-202 0 -300.5 93t-98.5 308 v569h-146z" />
<glyph unicode="u" horiz-adv-x="1409" d="M51 946q-4 26 -4.5 52t4.5 51l268 49q41 8 78 8q61 0 86 -32.5t25 -106.5v-500q0 -42 1.5 -70.5t6.5 -66.5t16 -62.5t28 -47.5t45.5 -34.5t66.5 -11.5q57 0 118.5 29.5t98.5 70.5v672h-146q-4 26 -4.5 52t4.5 51l269 49q41 8 78 8q61 0 85.5 -32t24.5 -107v-838h146 q6 -26 6 -51.5t-6 -50.5l-244 -41q-34 -6 -70 -6q-143 0 -143 145v10h-8q-64 -72 -163 -113.5t-204 -41.5q-80 0 -138.5 25t-92.5 65t-53.5 104t-26 127.5t-6.5 149.5v495h-146z" />
<glyph unicode="v" horiz-adv-x="1294" d="M6 1004q-4 20 -4 40t4 41h600q4 -20 4 -40.5t-4 -40.5l-145 -41l266 -684h8l264 684l-157 41q-4 20 -4 40t4 41h454q4 -20 4 -40.5t-4 -40.5l-135 -41l-379 -963h-276l-377 963z" />
<glyph unicode="w" horiz-adv-x="1804" d="M10 1004q-4 20 -4 40t4 41h590q4 -20 4 -40.5t-4 -40.5l-145 -41l176 -639h8l256 741h186l203 -741h8l221 639l-155 41q-4 20 -4 40t4 41h444q4 -20 4 -40.5t-4 -40.5l-133 -41l-336 -963h-276l-164 588h-8l-205 -588h-277l-270 963z" />
<glyph unicode="x" horiz-adv-x="1239" d="M6 0q-4 20 -4 41t4 41l158 39l297 393l-316 457l-102 33q-6 20 -6 40t6 41h590q4 -20 4.5 -40.5t-4.5 -40.5l-113 -33l174 -252l191 252l-113 33q-4 20 -4 40t4 41h424q4 -20 4 -40.5t-4 -40.5l-131 -35l-285 -375l328 -471l125 -41q4 -20 4.5 -41t-4.5 -41h-625 q-4 19 -4 39.5t4 42.5l125 37l-186 270l-203 -266l117 -41q4 -20 4.5 -41t-4.5 -41h-455z" />
<glyph unicode="y" horiz-adv-x="1277" d="M6 1004q-6 20 -6 40t6 41h586q4 -21 4 -41t-4 -40l-123 -41l272 -592h9l235 592l-158 41q-5 20 -5 40t5 41h453q4 -21 4 -41t-4 -40l-135 -41l-307 -768q-31 -78 -54.5 -132.5t-54.5 -117t-59 -104.5t-64.5 -86t-75.5 -71.5t-87 -50.5t-104 -33t-122 -10q-53 0 -102 9 l-11 12v291q31 6 60.5 6t56.5 -6l41 -129q17 -2 33 -2q174 0 291 206l-457 986z" />
<glyph unicode="z" horiz-adv-x="1126" d="M61 0v123l578 807v8h-369l-47 -154q-30 -6 -59 -6t-58 6v301h936v-122l-577 -807v-9h436l47 164q28 6 57 6t60 -6v-311h-1004z" />
<glyph unicode="{" horiz-adv-x="774" d="M49 573q0 29 6 64q63 0 106.5 26t66.5 77t32.5 114t9.5 150v165q0 174 86.5 270.5t272.5 96.5h78q6 -34 6 -68q0 -33 -6 -63h-66q-88 0 -126 -57.5t-38 -192.5v-192q0 -59 -4.5 -104t-19 -92t-39.5 -81.5t-67 -63.5t-101 -47v-8q70 -23 117 -61t71 -90.5t33.5 -107.5 t9.5 -128v-186q0 -135 38 -193.5t126 -58.5h66q6 -34 6 -66q0 -35 -6 -65h-78q-359 0 -359 366v160q0 69 -5.5 122.5t-20 101t-38.5 78t-62 48t-89 17.5q-6 34 -6 69z" />
<glyph unicode="|" horiz-adv-x="585" d="M205 -461v2028l10 10h156l10 -10v-2028l-10 -10h-156z" />
<glyph unicode="}" horiz-adv-x="774" d="M57 -324q0 32 6 66h66q88 0 126 58.5t38 193.5v186q0 73 9.5 128t33.5 107.5t71 90.5t117 61v8q-59 18 -101 47t-67 63.5t-39.5 81.5t-19 92t-4.5 104v192q0 135 -38 192.5t-126 57.5h-66q-6 30 -6 63q0 34 6 68h78q186 0 272.5 -96.5t86.5 -270.5v-165q0 -87 9.5 -150 t32.5 -114t66.5 -77t106.5 -26q6 -35 6 -64q0 -35 -6 -69q-51 0 -89 -17.5t-62 -48t-38.5 -78t-20 -101t-5.5 -122.5v-160q0 -366 -359 -366h-78q-6 30 -6 65z" />
<glyph unicode="~" horiz-adv-x="1327" d="M102 422q0 179 77.5 291t223.5 112q63 0 125 -23.5t111 -57.5t96.5 -67.5t99.5 -57t101 -23.5q51 0 86 34.5t48.5 81.5t14.5 103q34 6 72 6t68 -6q0 -189 -74 -296t-219 -107q-64 0 -129 23.5t-117.5 57t-102 67.5t-98.5 57.5t-90 23.5q-52 0 -87 -32.5t-49.5 -79.5 t-16.5 -107q-35 -6 -70 -6q-40 0 -70 6z" />
<glyph unicode="&#xa1;" horiz-adv-x="727" d="M184 -348l105 964q44 7 73 7q30 0 74 -7l107 -964q-98 -10 -178 -10q-83 0 -181 10zM217 950q0 68 12 135q73 13 136 13q62 0 135 -13q12 -64 12 -133q0 -66 -12 -137q-70 -12 -138 -12t-133 12q-12 67 -12 135z" />
<glyph unicode="&#xa2;" d="M150 707q0 245 127.5 388.5t347.5 170.5v209q37 6 73 6t70 -6v-205q174 -9 322 -88v-260q-58 -12 -117 0l-62 192q-47 12 -98 12q-99 0 -168 -29t-107.5 -86t-55.5 -130.5t-17 -173.5q0 -202 80 -307t270 -105q61 0 107 14l61 213q55 12 117 0v-270q-136 -92 -332 -105 v-190q-38 -6 -72 -6q-36 0 -71 6v193q-227 22 -351 163.5t-124 393.5z" />
<glyph unicode="&#xa3;" d="M117 0v123q136 54 184.5 149t48.5 256q0 47 -8 129h-197q-6 34 -6 68q0 33 6 68h183q-19 144 -19 223q0 210 138 324t370 114q82 0 165.5 -19.5t139.5 -56.5v-299q-60 -12 -116 0l-72 217q-52 15 -96 15q-59 0 -102 -21t-67 -59.5t-35 -85t-11 -103.5q0 -88 22 -249h301 q6 -34 6 -68q0 -33 -6 -68h-287q5 -73 5 -86q0 -107 -50.5 -178.5t-169.5 -134.5l2 -8h537l68 186q30 6 61 6q32 0 62 -6v-436h-1057z" />
<glyph unicode="&#xa4;" d="M72 297l231 211q-72 106 -72 231q0 124 72 230l-231 213q49 69 118 118l213 -231q104 74 232 74q126 0 233 -76l205 233q79 -51 123 -120l-227 -213q69 -106 69 -228q0 -128 -73 -231l231 -213q-48 -73 -121 -119l-209 232q-106 -72 -231 -72q-126 0 -232 72l-210 -232 q-70 48 -121 121zM403 739q0 -97 67 -167t165 -70t164.5 70t66.5 167t-66.5 167.5t-164.5 70.5t-165 -70.5t-67 -167.5z" />
<glyph unicode="&#xa5;" d="M31 1348q-9 46 0 86h594q9 -43 0 -86l-121 -52l227 -426h8l219 426l-120 52q-9 43 0 86h407q9 -43 0 -86l-121 -52l-264 -514h279q12 -56 0 -112h-340v-152h340q12 -56 0 -112h-340v-269l182 -51q9 -43 0 -86h-676q-9 43 0 86l182 51v269h-340q-12 53 0 112h340v152h-340 q-12 53 0 112h277l-272 514z" />
<glyph unicode="&#xa6;" horiz-adv-x="585" d="M205 -358v788l10 10h156l10 -10v-788l-10 -11h-156zM205 676v788l10 11h156l10 -11v-788l-10 -10h-156z" />
<glyph unicode="&#xa7;" horiz-adv-x="1118" d="M92 715q0 81 42 153t124 125q-33 27 -56.5 79t-23.5 106q0 96 60 169.5t156.5 110.5t211.5 37q90 0 179.5 -21.5t144.5 -54.5v-260q-57 -12 -113 0l-53 176q-68 21 -152 21q-61 0 -110 -12.5t-84 -46.5t-35 -87q0 -17 4 -32t14.5 -28t20 -23t29.5 -20.5t33 -17t40.5 -16 t43 -14.5t48.5 -15.5t50 -15.5q88 -29 146 -56t110.5 -69t78 -102t25.5 -139q0 -87 -36.5 -165t-106.5 -126q32 -26 58 -79t26 -118t-26 -120.5t-69.5 -94t-101 -65.5t-120 -39.5t-126.5 -12.5q-101 0 -199 25.5t-167 71.5v260q59 12 112 0l54 -183q70 -26 180 -26 q50 0 92.5 7.5t79.5 24.5t58.5 47.5t21.5 71.5q0 27 -9.5 50.5t-30 41.5t-41 32t-53.5 27t-54.5 20.5t-58.5 19t-52 16.5q-82 27 -142.5 57t-113.5 73.5t-81 103t-28 133.5zM283 772q0 -56 36.5 -100.5t96.5 -74t121 -51.5t128 -45t99 -42q67 47 67 145q0 61 -33.5 105 t-89.5 70t-115 45t-126 42.5t-105 48.5q-38 -26 -58.5 -64t-20.5 -79z" />
<glyph unicode="&#xa8;" horiz-adv-x="819" d="M37 1399q0 61 12 123q58 12 121 12q60 0 125 -12q12 -62 12 -121q0 -63 -12 -125q-61 -12 -123 -12t-123 12q-12 62 -12 123zM510 1399q0 61 12 123q59 12 121 12q61 0 125 -12q12 -62 12 -121q0 -63 -12 -125q-62 -12 -123 -12t-123 12q-12 62 -12 123z" />
<glyph unicode="&#xa9;" horiz-adv-x="1507" d="M86 737q0 307 180 487.5t488 180.5q307 0 487 -180t180 -488q0 -307 -179.5 -487t-487.5 -180t-488 180t-180 487zM233 737q0 -254 137 -395t384 -141t383.5 141t136.5 395t-136.5 395.5t-383.5 141.5t-384 -141.5t-137 -395.5zM391 727q0 203 115.5 300t312.5 97 q139 0 230 -45v-186q-37 -6 -74 0l-39 117q-38 12 -80 12q-127 0 -178 -75t-51 -220q0 -276 219 -276q48 0 92 18l45 129q32 6 68 0v-192q-130 -62 -277 -62q-174 0 -278.5 99.5t-104.5 283.5z" />
<glyph unicode="&#xaa;" horiz-adv-x="886" d="M72 829q0 50 19 90t55 65.5t77.5 43t96 27t101 13.5t101.5 5v57q0 136 -155 136q-47 0 -119 -13l-35 -118h-92v174q161 59 305 59q66 0 122 -12.5t102.5 -40t73 -77t26.5 -116.5v-399h98v-80l-193 -27q-120 -18 -120 84v9h-9q-78 -93 -215 -93q-110 0 -174.5 54 t-64.5 159zM305 848q0 -115 78 -115q35 0 74.5 24.5t64.5 61.5v166h-14q-40 0 -69.5 -4t-63 -16.5t-52 -42t-18.5 -74.5z" />
<glyph unicode="&#xab;" horiz-adv-x="1234" d="M102 549v8l476 463q62 -38 100 -90l-311 -377l311 -379q-34 -53 -100 -90zM557 549v8l475 463q63 -39 101 -90l-312 -377l312 -379q-33 -52 -101 -90z" />
<glyph unicode="&#xac;" horiz-adv-x="1327" d="M102 786q0 33 7 80h1105l11 -10v-569q-41 -6 -78 -6q-39 0 -80 6v422h-958q-7 47 -7 77z" />
<glyph unicode="&#xad;" horiz-adv-x="831" d="M113 608q0 40 6 84h594q6 -44 6 -82q0 -42 -6 -82h-594q-6 41 -6 80z" />
<glyph unicode="&#xae;" horiz-adv-x="997" d="M61 1085q0 200 119 319.5t318 119.5t318.5 -119.5t119.5 -319.5q0 -199 -119 -317.5t-319 -118.5t-318.5 118.5t-118.5 317.5zM178 1085q0 -162 81.5 -252t238.5 -90t239 90t82 252q0 163 -82 254t-239 91t-238.5 -91t-81.5 -254zM301 879v32l35 11v338l-35 12v39h188 q97 0 143 -29t46 -98q0 -43 -24.5 -79t-71.5 -44l112 -139l33 -11v-32h-131l-127 170h-31v-127l35 -11v-32h-172zM438 1100h31q54 0 77 18t23 66q0 43 -25.5 57t-78.5 14h-27v-155z" />
<glyph unicode="&#xaf;" horiz-adv-x="819" d="M94 1352q0 38 6 82h617q6 -44 6 -82q0 -42 -6 -82h-617q-6 40 -6 82z" />
<glyph unicode="&#xb0;" horiz-adv-x="868" d="M61 1122q0 163 105 268t268 105t268 -105t105 -268t-105 -267.5t-268 -104.5t-268 104.5t-105 267.5zM229 1122q0 -104 55.5 -165.5t149.5 -61.5q92 0 147.5 61.5t55.5 165.5q0 103 -55.5 164.5t-147.5 61.5q-94 0 -149.5 -61.5t-55.5 -164.5z" />
<glyph unicode="&#xb1;" horiz-adv-x="1327" d="M102 78q0 29 7 80h1105q7 -51 7 -80q0 -34 -7 -78h-1105q-7 44 -7 78zM102 797q0 37 7 84h471v430q37 6 82 6q44 0 81 -6v-430h471q7 -44 7 -80q0 -38 -7 -78h-471v-436q-43 -6 -81 -6q-42 0 -82 6v436h-471q-7 40 -7 74z" />
<glyph unicode="&#xb2;" horiz-adv-x="839" d="M86 963v98l240 217q49 44 76.5 74t52 81t24.5 107q0 68 -35 105.5t-102 37.5q-51 0 -90 -22l-57 -164h-78v211q109 80 270 80q61 0 117.5 -13t107 -39.5t81 -74.5t30.5 -111q0 -28 -8 -55t-16.5 -46t-31.5 -43.5t-35 -37t-46 -36.5t-45.5 -32t-51.5 -34l-139 -92l4 -7 h379v-204h-647z" />
<glyph unicode="&#xb3;" horiz-adv-x="839" d="M96 1014v217h82l55 -166q62 -16 109 -16q72 0 114 37t42 108q0 133 -168 133h-70v98h64q74 0 109.5 31.5t35.5 108.5q0 65 -34 94t-89 29q-46 0 -104 -21l-54 -156h-77v209q116 68 284 68q85 0 154.5 -20t116.5 -68t47 -117q0 -82 -57 -132t-144 -56v-9q229 -22 229 -192 q0 -65 -32.5 -114t-88.5 -77t-121.5 -41.5t-140.5 -13.5q-143 0 -262 66z" />
<glyph unicode="&#xb4;" horiz-adv-x="819" d="M217 1274l234 338q91 -59 149 -125l-287 -293q-54 28 -96 80z" />
<glyph unicode="&#xb5;" horiz-adv-x="1409" d="M197 295v758l297 53l14 -12v-627q0 -42 1.5 -70.5t6.5 -66.5t16 -62.5t28 -47.5t45.5 -34.5t66.5 -11.5q57 0 118.5 29.5t98.5 70.5v779l297 53l14 -12v-965h146q12 -51 0 -102l-244 -41q-34 -6 -70 -6q-143 0 -143 145v8h-8q-133 -153 -283 -153q-77 0 -139 43h-8 q0 -226 30 -373q-57 -53 -162 -60q-40 71 -66 158.5t-37.5 186.5t-15 177.5t-3.5 182.5z" />
<glyph unicode="&#xb6;" horiz-adv-x="1230" d="M72 1044q0 215 137 323t387 108h561q9 -46 0 -86l-190 -52v-1573q-41 -6 -80 -6q-37 0 -78 6v1557h-147v-1557q-40 -6 -80 -6q-38 0 -78 6v844q-198 0 -315 120.5t-117 315.5z" />
<glyph unicode="&#xb7;" horiz-adv-x="542" d="M115 612q0 75 14 144q82 14 141 14q67 0 146 -14q12 -74 12 -144q0 -72 -12 -143q-70 -12 -142 -12q-71 0 -145 12q-14 66 -14 143z" />
<glyph unicode="&#xb8;" horiz-adv-x="819" d="M201 -367q6 53 37 105q48 -23 88 -23q66 0 98.5 48.5t32.5 123.5q0 55 -19 129h135q45 -95 45 -196q0 -115 -60.5 -178.5t-176.5 -63.5q-113 0 -180 55z" />
<glyph unicode="&#xb9;" horiz-adv-x="839" d="M131 1640v78l236 58q50 12 84 12q55 0 81.5 -34t26.5 -112v-581l150 -29v-69h-537v69l150 29v579h-191z" />
<glyph unicode="&#xba;" horiz-adv-x="897" d="M66 993q0 182 99 278.5t284 96.5t283.5 -96t98.5 -279q0 -377 -382 -377q-383 0 -383 377zM299 993q0 -270 150 -270q149 0 149 270q0 142 -38 205.5t-111 63.5q-150 0 -150 -269z" />
<glyph unicode="&#xbb;" horiz-adv-x="1234" d="M102 174l312 379l-312 377q38 51 101 90l475 -463v-8l-475 -465q-68 38 -101 90zM557 174l311 379l-311 377q38 52 100 90l476 -463v-8l-476 -465q-66 37 -100 90z" />
<glyph unicode="&#xbc;" horiz-adv-x="1904" d="M139 1307v77l236 58q50 12 84 12q55 0 81.5 -33.5t26.5 -111.5v-582l150 -29v-69h-537v69l150 29v580h-191zM449 0l882 1495q70 -28 123 -72l-883 -1495q-59 19 -122 72zM1004 215v84l444 526h162v-512h110v-98h-110v-123l110 -22v-70h-458v70l110 22v123h-368zM1149 319 l2 -6h221v256l-6 2z" />
<glyph unicode="&#xbd;" horiz-adv-x="1904" d="M102 1307v77l236 58q50 12 84 12q55 0 81.5 -33.5t26.5 -111.5v-582l150 -29v-69h-537v69l150 29v580h-191zM410 0l882 1495q70 -28 123 -72l-883 -1495q-59 19 -122 72zM1139 0v98l239 217q49 44 77 74.5t52.5 81.5t24.5 107q0 68 -35 105.5t-102 37.5q-49 0 -90 -23 l-58 -163h-78v210q109 80 271 80q61 0 117.5 -13t107 -39t81 -74t30.5 -111q0 -28 -7.5 -54.5t-17 -46.5t-31.5 -44t-35 -37t-45.5 -36.5t-46 -32.5t-51.5 -34l-139 -92l4 -6h379v-205h-647z" />
<glyph unicode="&#xbe;" horiz-adv-x="1904" d="M135 680v217h82l55 -166q62 -16 109 -16q72 0 114 37t42 108q0 133 -168 133h-70v99h63q74 0 110 31.5t36 107.5q0 65 -34 94t-89 29q-46 0 -104 -21l-54 -155h-77v208q116 68 284 68q85 0 154.5 -20t116.5 -68t47 -117q0 -82 -57 -132t-144 -56v-8q229 -22 229 -193 q0 -65 -32.5 -114t-88.5 -77t-121.5 -41.5t-140.5 -13.5q-143 0 -262 66zM496 0l882 1495q70 -28 123 -72l-883 -1495q-59 19 -122 72zM1051 215v84l444 526h162v-512h110v-98h-110v-123l110 -22v-70h-458v70l110 22v123h-368zM1196 319l2 -6h221v256l-6 2z" />
<glyph unicode="&#xbf;" horiz-adv-x="1015" d="M45 -37q0 82 26 144.5t68.5 102.5t94 73t106.5 63.5t102.5 64.5t83.5 86t49 119q44 7 72 7q32 0 72 -7q7 -81 -8 -144t-45.5 -103t-68.5 -72.5t-78 -61.5t-73 -60t-54 -77.5t-21 -105.5q0 -109 59 -162t154 -53q82 0 170 43l80 250q55 12 116 0v-291 q-93 -71 -210.5 -109.5t-243.5 -38.5q-215 0 -333 94t-118 238zM483 950q0 62 13 135q73 13 133 13q64 0 137 -13q12 -67 12 -135t-12 -135q-64 -12 -133 -12q-67 0 -137 12q-13 73 -13 135z" />
<glyph unicode="&#xc0;" horiz-adv-x="1671" d="M27 0q-9 43 0 86l161 51l510 1338h279l506 -1338l162 -51q9 -46 0 -86h-687q-9 43 0 86l183 51l-119 316h-547l-121 -316l183 -51q9 -43 0 -86h-510zM535 608h428l-207 551h-11zM594 1757q32 95 94 176l379 -243q-15 -62 -59 -113z" />
<glyph unicode="&#xc1;" horiz-adv-x="1671" d="M27 0q-9 43 0 86l161 51l510 1338h279l506 -1338l162 -51q9 -46 0 -86h-687q-9 43 0 86l183 51l-119 316h-547l-121 -316l183 -51q9 -43 0 -86h-510zM535 608h428l-207 551h-11zM643 1690l379 243q62 -81 94 -176l-414 -180q-43 46 -59 113z" />
<glyph unicode="&#xc2;" horiz-adv-x="1671" d="M27 0q-9 43 0 86l161 51l510 1338h279l506 -1338l162 -51q9 -46 0 -86h-687q-9 43 0 86l183 51l-119 316h-547l-121 -316l183 -51q9 -43 0 -86h-510zM506 1673l321 260h21l319 -260q-25 -55 -69 -96l-260 170l-263 -170q-44 41 -69 96zM535 608h428l-207 551h-11z" />
<glyph unicode="&#xc3;" horiz-adv-x="1671" d="M27 0q-9 43 0 86l161 51l510 1338h279l506 -1338l162 -51q9 -46 0 -86h-687q-9 43 0 86l183 51l-119 316h-547l-121 -316l183 -51q9 -43 0 -86h-510zM510 1591q0 116 52 195.5t143 79.5q37 0 77.5 -17.5t69 -39t63 -39t60.5 -17.5q34 0 53 34.5t21 80.5q60 12 114 0 q0 -116 -47 -194.5t-137 -78.5q-46 0 -89.5 17.5t-71.5 39t-60.5 39t-57.5 17.5q-29 0 -49.5 -37.5t-25.5 -79.5q-57 -12 -115 0zM535 608h428l-207 551h-11z" />
<glyph unicode="&#xc4;" horiz-adv-x="1671" d="M27 0q-9 43 0 86l161 51l510 1338h279l506 -1338l162 -51q9 -46 0 -86h-687q-9 43 0 86l183 51l-119 316h-547l-121 -316l183 -51q9 -43 0 -86h-510zM459 1737q0 61 12 123q58 12 121 12q60 0 125 -12q12 -62 12 -123t-12 -123q-61 -12 -123 -12t-123 12q-12 62 -12 123z M535 608h428l-207 551h-11zM942 1737q0 61 12 123q58 12 121 12q61 0 125 -12q12 -62 12 -123t-12 -123q-62 -12 -123 -12t-123 12q-12 62 -12 123z" />
<glyph unicode="&#xc5;" horiz-adv-x="1671" d="M27 0q-9 43 0 86l161 51l510 1338h279l506 -1338l162 -51q9 -46 0 -86h-687q-9 43 0 86l183 51l-119 316h-547l-121 -316l183 -51q9 -43 0 -86h-510zM535 608h428l-207 551h-11zM614 1755q0 95 62.5 153t159.5 58t160 -58t63 -153t-63 -152t-160 -57t-159.5 57t-62.5 152 zM739 1755q0 -50 27 -81.5t70 -31.5t70.5 32t27.5 81q0 50 -27.5 82.5t-70.5 32.5t-70 -32.5t-27 -82.5z" />
<glyph unicode="&#xc6;" horiz-adv-x="2220" d="M6 0q-9 43 0 86l162 51l571 1186l-258 66q-9 43 0 86h1608v-342q-35 -7 -61 -7q-27 0 -62 7l-72 186h-512v-498h371l51 127q51 12 101 0v-446q-54 -12 -101 0l-51 164h-371v-510h551l72 196q30 6 61 6q32 0 62 -6v-352h-1247q-9 43 0 86l182 51v529h-467l-254 -529 l182 -51q9 -43 0 -86h-518zM672 821h391v498h-152z" />
<glyph unicode="&#xc7;" horiz-adv-x="1435" d="M94 737q0 179 59.5 324t165.5 239t249.5 144.5t312.5 50.5q259 0 450 -113v-319q-30 -6 -61 -6q-32 0 -62 6l-94 240q-80 38 -190 38q-133 0 -231.5 -45.5t-157 -128.5t-86 -190t-27.5 -240q0 -283 122 -439.5t380 -156.5q112 0 194 33l101 272q35 7 61 7t61 -7v-331 q-172 -105 -393 -127q33 -84 33 -168q0 -114 -60.5 -178t-177.5 -64q-113 0 -180 55q6 53 37 105q48 -23 88 -23q66 0 98.5 48.5t32.5 123.5q0 41 -10 93q-160 2 -291 52t-225.5 143.5t-146.5 237t-52 324.5z" />
<glyph unicode="&#xc8;" horiz-adv-x="1421" d="M82 0q-9 43 0 86l182 51v1200l-182 52q-9 43 0 86h1208v-342q-35 -7 -61 -7q-27 0 -62 7l-71 186h-512v-477h370l52 127q50 12 100 0v-447q-53 -12 -100 0l-52 164h-370v-530h551l71 196q30 6 62 6q31 0 61 -6v-352h-1247zM424 1757q32 95 94 176l379 -243 q-15 -62 -59 -113z" />
<glyph unicode="&#xc9;" horiz-adv-x="1421" d="M82 0q-9 43 0 86l182 51v1200l-182 52q-9 43 0 86h1208v-342q-35 -7 -61 -7q-27 0 -62 7l-71 186h-512v-477h370l52 127q50 12 100 0v-447q-53 -12 -100 0l-52 164h-370v-530h551l71 196q30 6 62 6q31 0 61 -6v-352h-1247zM594 1690l379 243q62 -81 94 -176l-414 -180 q-43 46 -59 113z" />
<glyph unicode="&#xca;" horiz-adv-x="1421" d="M82 0q-9 43 0 86l182 51v1200l-182 52q-9 43 0 86h1208v-342q-35 -7 -61 -7q-27 0 -62 7l-71 186h-512v-477h370l52 127q50 12 100 0v-447q-53 -12 -100 0l-52 164h-370v-530h551l71 196q30 6 62 6q31 0 61 -6v-352h-1247zM418 1673l321 260h21l319 -260q-25 -55 -69 -96 l-260 170l-263 -170q-44 41 -69 96z" />
<glyph unicode="&#xcb;" horiz-adv-x="1421" d="M82 0q-9 43 0 86l182 51v1200l-182 52q-9 43 0 86h1208v-342q-35 -7 -61 -7q-27 0 -62 7l-71 186h-512v-477h370l52 127q50 12 100 0v-447q-53 -12 -100 0l-52 164h-370v-530h551l71 196q30 6 62 6q31 0 61 -6v-352h-1247zM369 1737q0 61 12 123q59 12 121 12 q60 0 125 -12q12 -62 12 -123t-12 -123q-61 -12 -123 -12t-123 12q-12 62 -12 123zM852 1737q0 61 12 123q59 12 121 12q61 0 125 -12q12 -62 12 -123t-12 -123q-62 -12 -123 -12t-123 12q-12 62 -12 123z" />
<glyph unicode="&#xcc;" horiz-adv-x="847" d="M82 0q-9 43 0 86l182 51v1200l-182 52q-9 43 0 86h684q9 -43 0 -86l-182 -52v-1200l182 -51q9 -43 0 -86h-684zM102 1757q32 93 95 176l378 -243q-15 -62 -59 -113z" />
<glyph unicode="&#xcd;" horiz-adv-x="847" d="M82 0q-9 43 0 86l182 51v1200l-182 52q-9 43 0 86h684q9 -43 0 -86l-182 -52v-1200l182 -51q9 -43 0 -86h-684zM276 1690l379 243q63 -83 95 -176l-414 -180q-44 47 -60 113z" />
<glyph unicode="&#xce;" horiz-adv-x="847" d="M82 0q-9 43 0 86l182 51v1200l-182 52q-9 43 0 86h684q9 -43 0 -86l-182 -52v-1200l182 -51q9 -43 0 -86h-684zM94 1673l322 260h20l320 -260q-24 -53 -70 -96l-260 170l-262 -170q-46 43 -70 96z" />
<glyph unicode="&#xcf;" horiz-adv-x="847" d="M47 1737q0 61 12 123q59 12 121 12q60 0 125 -12q12 -62 12 -123t-12 -123q-61 -12 -123 -12t-123 12q-12 62 -12 123zM82 0q-9 43 0 86l182 51v1200l-182 52q-9 43 0 86h684q9 -43 0 -86l-182 -52v-1200l182 -51q9 -43 0 -86h-684zM530 1737q0 56 13 123q59 12 121 12 q60 0 124 -12q13 -67 13 -123t-13 -123q-62 -12 -122 -12q-62 0 -123 12q-13 67 -13 123z" />
<glyph unicode="&#xd0;" horiz-adv-x="1601" d="M80 774q0 34 6 68h182v495l-182 52q-9 43 0 86h651q400 0 585 -181.5t185 -556.5t-185 -556t-585 -181h-651q-9 43 0 86l182 51v572h-182q-6 34 -6 65zM588 156h149q123 0 210.5 40t138.5 118.5t73.5 181.5t22.5 241t-22.5 241t-73.5 181.5t-138.5 119t-210.5 40.5h-149 v-477h291q6 -34 6 -68q0 -31 -6 -65h-291v-553z" />
<glyph unicode="&#xd1;" horiz-adv-x="1583" d="M80 0q-9 43 0 86l162 51v1200l-162 52q-9 43 0 86h495l603 -1014h8v876l-182 52q-9 43 0 86h499q9 -43 0 -86l-162 -52v-1337h-258l-677 1137h-9v-1000l183 -51q9 -43 0 -86h-500zM485 1606q0 116 52 195t143 79q37 0 77.5 -17.5t69 -39t63 -39t60.5 -17.5q34 0 53 34.5 t21 80.5q60 12 115 0q0 -116 -47.5 -194t-137.5 -78q-46 0 -89.5 17.5t-71 38.5t-60 38.5t-57.5 17.5q-29 0 -50 -37t-26 -79q-57 -12 -115 0z" />
<glyph unicode="&#xd2;" horiz-adv-x="1597" d="M94 737q0 372 178.5 565t526.5 193t526 -193t178 -565t-178 -564.5t-526 -192.5t-526.5 193t-178.5 564zM422 737q0 -602 377 -602t377 602t-377 602t-377 -602zM526 1757q32 93 95 176l378 -243q-15 -62 -59 -113z" />
<glyph unicode="&#xd3;" horiz-adv-x="1597" d="M94 737q0 372 178.5 565t526.5 193t526 -193t178 -565t-178 -564.5t-526 -192.5t-526.5 193t-178.5 564zM422 737q0 -602 377 -602t377 602t-377 602t-377 -602zM635 1690l379 243q62 -81 94 -176l-414 -180q-43 46 -59 113z" />
<glyph unicode="&#xd4;" horiz-adv-x="1597" d="M94 737q0 372 178.5 565t526.5 193t526 -193t178 -565t-178 -564.5t-526 -192.5t-526.5 193t-178.5 564zM422 737q0 -602 377 -602t377 602t-377 602t-377 -602zM469 1673l322 260h20l319 -260q-25 -55 -69 -96l-260 170l-262 -170q-46 43 -70 96z" />
<glyph unicode="&#xd5;" horiz-adv-x="1597" d="M94 737q0 372 178.5 565t526.5 193t526 -193t178 -565t-178 -564.5t-526 -192.5t-526.5 193t-178.5 564zM422 737q0 -602 377 -602t377 602t-377 602t-377 -602zM473 1606q0 116 52 195t143 79q37 0 77.5 -17.5t69 -39t63 -39t60.5 -17.5q34 0 53 34.5t21 80.5 q60 12 114 0q0 -116 -47 -194t-137 -78q-46 0 -89.5 17.5t-71 38.5t-60 38.5t-57.5 17.5q-29 0 -50 -37t-26 -79q-58 -12 -115 0z" />
<glyph unicode="&#xd6;" horiz-adv-x="1597" d="M94 737q0 372 178.5 565t526.5 193t526 -193t178 -565t-178 -564.5t-526 -192.5t-526.5 193t-178.5 564zM422 737q0 -602 377 -602t377 602t-377 602t-377 -602zM422 1737q0 61 12 123q59 12 121 12q61 0 125 -12q12 -62 12 -123t-12 -123q-62 -12 -123 -12t-123 12 q-12 62 -12 123zM905 1737q0 56 13 123q58 12 120 12q60 0 125 -12q13 -67 13 -123t-13 -123q-61 -12 -123 -12q-60 0 -122 12q-13 67 -13 123z" />
<glyph unicode="&#xd7;" horiz-adv-x="1327" d="M98 92l453 451l-453 452q20 29 53 62t62 53l451 -453l452 453q29 -20 62 -53t53 -62l-453 -452l453 -451q-20 -29 -53 -62t-62 -53l-452 453l-451 -453q-29 20 -62 53t-53 62z" />
<glyph unicode="&#xd8;" horiz-adv-x="1597" d="M94 737q0 372 178.5 565t526.5 193q215 0 368 -78l109 166q65 -27 117 -76l-109 -168q219 -192 219 -602q0 -372 -178 -564.5t-526 -192.5q-211 0 -355 69l-120 -186q-65 27 -117 76l119 182q-232 191 -232 616zM422 737q0 -236 53 -375h8l566 871q-92 106 -250 106 q-377 0 -377 -602zM561 229q88 -94 238 -94q377 0 377 602q0 207 -48 350h-8z" />
<glyph unicode="&#xd9;" horiz-adv-x="1619" d="M82 1389q-9 43 0 86h663q9 -43 0 -86l-182 -52v-743q0 -229 75 -335.5t257 -106.5q168 0 250 115.5t82 328.5v741l-183 52q-9 43 0 86h500q9 -43 0 -86l-162 -52v-721q0 -636 -569 -636q-160 0 -271.5 41t-176 125t-93 197.5t-28.5 272.5v721zM545 1757q32 95 94 176 l379 -243q-14 -61 -60 -113z" />
<glyph unicode="&#xda;" horiz-adv-x="1619" d="M82 1389q-9 43 0 86h663q9 -43 0 -86l-182 -52v-743q0 -229 75 -335.5t257 -106.5q168 0 250 115.5t82 328.5v741l-183 52q-9 43 0 86h500q9 -43 0 -86l-162 -52v-721q0 -636 -569 -636q-160 0 -271.5 41t-176 125t-93 197.5t-28.5 272.5v721zM723 1690l379 243 q62 -81 94 -176l-414 -180q-43 46 -59 113z" />
<glyph unicode="&#xdb;" horiz-adv-x="1619" d="M82 1389q-9 43 0 86h663q9 -43 0 -86l-182 -52v-743q0 -229 75 -335.5t257 -106.5q168 0 250 115.5t82 328.5v741l-183 52q-9 43 0 86h500q9 -43 0 -86l-162 -52v-721q0 -636 -569 -636q-160 0 -271.5 41t-176 125t-93 197.5t-28.5 272.5v721zM528 1673l322 260h20 l320 -260q-24 -53 -70 -96l-260 170l-262 -170q-46 43 -70 96z" />
<glyph unicode="&#xdc;" horiz-adv-x="1619" d="M82 1389q-9 43 0 86h663q9 -43 0 -86l-182 -52v-743q0 -229 75 -335.5t257 -106.5q168 0 250 115.5t82 328.5v741l-183 52q-9 43 0 86h500q9 -43 0 -86l-162 -52v-721q0 -636 -569 -636q-160 0 -271.5 41t-176 125t-93 197.5t-28.5 272.5v721zM481 1737q0 56 13 123 q58 12 120 12q60 0 125 -12q13 -67 13 -123t-13 -123q-61 -12 -123 -12q-60 0 -122 12q-13 67 -13 123zM965 1737q0 61 12 123q58 12 121 12q60 0 125 -12q12 -62 12 -123t-12 -123q-61 -12 -123 -12t-123 12q-12 62 -12 123z" />
<glyph unicode="&#xdd;" horiz-adv-x="1521" d="M16 1389q-9 46 0 86h701q9 -43 0 -86l-172 -52l309 -559h8l303 559l-172 52q-9 43 0 86h512q9 -43 0 -86l-162 -52l-417 -766v-434l182 -51q9 -43 0 -86h-684q-9 43 0 86l182 51v430l-428 770zM700 1690l379 243q63 -83 95 -176l-414 -180q-44 47 -60 113z" />
<glyph unicode="&#xde;" horiz-adv-x="1341" d="M82 0q-9 43 0 86l182 51v1200l-182 52q-9 43 0 86h684q9 -43 0 -86l-182 -52v-161h26q126 0 219 -9.5t179 -37t139.5 -73.5t85 -121.5t31.5 -178.5q0 -104 -31 -182.5t-86 -129.5t-138.5 -83t-180 -45t-218.5 -13h-26v-166l182 -51q9 -43 0 -86h-684zM584 459 q182 0 265 60t83 220t-83 220.5t-265 60.5v-561z" />
<glyph unicode="&#xdf;" horiz-adv-x="1404" d="M88 0q-9 41 0 82l145 41v827h-145q-9 38 0 76l145 47v96q0 387 494 387q492 0 492 -387v-135q-121 0 -178.5 -47.5t-57.5 -126.5q0 -47 19 -87t49.5 -70t67 -58t73 -58t67 -63.5t49.5 -80.5t19 -103q0 -92 -44.5 -164t-117 -113.5t-155.5 -62t-170 -20.5q-104 0 -211 26 q6 65 37 133q74 -12 127 -12q225 0 225 166q0 44 -33 83.5t-80 74.5t-94 75t-80 102t-33 138q0 113 56 197.5t161 115.5v119q0 215 -186 215q-184 0 -184 -215v-1188l-10 -10h-447z" />
<glyph unicode="&#xe0;" horiz-adv-x="1275" d="M94 297q0 70 23 126.5t58.5 93.5t92 64.5t110.5 42.5t128.5 24.5t130.5 12t131 3.5v98q0 194 -242 194q-94 0 -182 -16l-61 -188q-59 -12 -117 0v266q257 88 455 88q99 0 178.5 -19t144 -60.5t100 -115t35.5 -174.5v-608h146q12 -51 0 -102l-244 -41q-35 -6 -70 -6 q-143 0 -143 145v8h-8q-59 -75 -145 -114t-185 -39q-149 0 -242.5 81.5t-93.5 235.5zM375 1487q58 66 149 125l234 -338q-40 -50 -96 -80zM410 311q0 -80 36 -117.5t95 -37.5q60 0 125 34t102 84v269q-358 -5 -358 -232z" />
<glyph unicode="&#xe1;" horiz-adv-x="1275" d="M94 297q0 70 23 126.5t58.5 93.5t92 64.5t110.5 42.5t128.5 24.5t130.5 12t131 3.5v98q0 194 -242 194q-94 0 -182 -16l-61 -188q-59 -12 -117 0v266q257 88 455 88q99 0 178.5 -19t144 -60.5t100 -115t35.5 -174.5v-608h146q12 -51 0 -102l-244 -41q-35 -6 -70 -6 q-143 0 -143 145v8h-8q-59 -75 -145 -114t-185 -39q-149 0 -242.5 81.5t-93.5 235.5zM410 311q0 -80 36 -117.5t95 -37.5q60 0 125 34t102 84v269q-358 -5 -358 -232zM535 1274l233 338q94 -61 150 -125l-287 -293q-54 28 -96 80z" />
<glyph unicode="&#xe2;" horiz-adv-x="1275" d="M94 297q0 70 23 126.5t58.5 93.5t92 64.5t110.5 42.5t128.5 24.5t130.5 12t131 3.5v98q0 194 -242 194q-94 0 -182 -16l-61 -188q-59 -12 -117 0v266q257 88 455 88q99 0 178.5 -19t144 -60.5t100 -115t35.5 -174.5v-608h146q12 -51 0 -102l-244 -41q-35 -6 -70 -6 q-143 0 -143 145v8h-8q-59 -75 -145 -114t-185 -39q-149 0 -242.5 81.5t-93.5 235.5zM340 1274l287 340h20l285 -340q-39 -56 -94 -80l-201 203l-203 -203q-51 23 -94 80zM410 311q0 -80 36 -117.5t95 -37.5q60 0 125 34t102 84v269q-358 -5 -358 -232z" />
<glyph unicode="&#xe3;" horiz-adv-x="1275" d="M94 297q0 70 23 126.5t58.5 93.5t92 64.5t110.5 42.5t128.5 24.5t130.5 12t131 3.5v98q0 194 -242 194q-94 0 -182 -16l-61 -188q-59 -12 -117 0v266q257 88 455 88q99 0 178.5 -19t144 -60.5t100 -115t35.5 -174.5v-608h146q12 -51 0 -102l-244 -41q-35 -6 -70 -6 q-143 0 -143 145v8h-8q-59 -75 -145 -114t-185 -39q-149 0 -242.5 81.5t-93.5 235.5zM313 1227q0 116 52 195t143 79q47 0 97.5 -28t95.5 -56t77 -28q34 0 53 34t21 80q60 12 115 0q0 -116 -47.5 -194t-137.5 -78q-46 0 -89.5 17.5t-71 38.5t-60 38.5t-57.5 17.5 q-29 0 -50 -37t-26 -79q-57 -12 -115 0zM410 311q0 -80 36 -117.5t95 -37.5q60 0 125 34t102 84v269q-358 -5 -358 -232z" />
<glyph unicode="&#xe4;" horiz-adv-x="1275" d="M94 297q0 70 23 126.5t58.5 93.5t92 64.5t110.5 42.5t128.5 24.5t130.5 12t131 3.5v98q0 194 -242 194q-94 0 -182 -16l-61 -188q-59 -12 -117 0v266q257 88 455 88q99 0 178.5 -19t144 -60.5t100 -115t35.5 -174.5v-608h146q12 -51 0 -102l-244 -41q-35 -6 -70 -6 q-143 0 -143 145v8h-8q-59 -75 -145 -114t-185 -39q-149 0 -242.5 81.5t-93.5 235.5zM248 1399q0 61 12 123q58 12 121 12q61 0 125 -12q12 -62 12 -121q0 -63 -12 -125q-62 -12 -123 -12t-123 12q-12 62 -12 123zM410 311q0 -80 36 -117.5t95 -37.5q60 0 125 34t102 84v269 q-358 -5 -358 -232zM721 1399q0 61 12 123q59 12 121 12q60 0 125 -12q12 -62 12 -121q0 -63 -12 -125q-61 -12 -123 -12t-123 12q-12 62 -12 123z" />
<glyph unicode="&#xe5;" horiz-adv-x="1275" d="M94 297q0 70 23 126.5t58.5 93.5t92 64.5t110.5 42.5t128.5 24.5t130.5 12t131 3.5v98q0 194 -242 194q-94 0 -182 -16l-61 -188q-59 -12 -117 0v266q257 88 455 88q99 0 178.5 -19t144 -60.5t100 -115t35.5 -174.5v-608h146q12 -51 0 -102l-244 -41q-35 -6 -70 -6 q-143 0 -143 145v8h-8q-59 -75 -145 -114t-185 -39q-149 0 -242.5 81.5t-93.5 235.5zM397 1403q0 95 62 153t159 58t160.5 -58t63.5 -153t-63.5 -152t-160.5 -57t-159 57t-62 152zM410 311q0 -80 36 -117.5t95 -37.5q60 0 125 34t102 84v269q-358 -5 -358 -232zM522 1403 q0 -50 26.5 -81.5t69.5 -31.5t71 32t28 81q0 50 -28 82.5t-71 32.5q-42 0 -69 -32.5t-27 -82.5z" />
<glyph unicode="&#xe6;" horiz-adv-x="1880" d="M94 297q0 70 23 126.5t58.5 93.5t92 64.5t110.5 42.5t128.5 24.5t130.5 12t131 3.5v98q0 194 -242 194q-94 0 -182 -16l-61 -188q-59 -12 -117 0v266q272 88 446 88q112 0 206.5 -29.5t146.5 -91.5h8q59 59 151 90t193 31q207 0 338 -126.5t131 -334.5q0 -47 -8 -104 h-705q0 -213 81 -314.5t263 -101.5q81 0 166 20l62 201q55 12 116 0v-260q-192 -106 -424 -106q-317 0 -465 194q-85 -91 -201 -142.5t-241 -51.5q-118 0 -201 49q-135 80 -135 268zM410 311q0 -151 125 -151q130 0 274 129q-41 109 -41 254q-358 -5 -358 -232zM1081 664 l394 24q0 132 -47.5 204.5t-124.5 72.5q-98 0 -152 -82.5t-70 -218.5z" />
<glyph unicode="&#xe7;" horiz-adv-x="1105" d="M78 541q0 271 155.5 418t413.5 147q207 0 371 -90v-260q-58 -12 -117 0l-61 192q-50 13 -99 13q-99 0 -168 -29t-107.5 -86.5t-55.5 -131t-17 -173.5q0 -202 80 -307t270 -105q61 0 107 14l61 213q55 12 117 0v-270q-117 -77 -289 -100q33 -81 33 -166 q0 -115 -60.5 -178.5t-176.5 -63.5q-114 0 -181 55q6 53 37 105q48 -23 88 -23q66 0 98.5 48.5t32.5 123.5q0 41 -10 93q-248 11 -385 153.5t-137 407.5z" />
<glyph unicode="&#xe8;" horiz-adv-x="1200" d="M78 543q0 264 145.5 413.5t405.5 149.5q116 0 208 -35.5t150 -98.5t88.5 -146t30.5 -181q0 -47 -8 -104h-705q0 -213 81 -314.5t263 -101.5q81 0 166 20l62 201q55 12 116 0v-260q-192 -106 -434 -106q-173 0 -299 60.5t-198 188.5t-72 314zM373 1487q58 66 149 125 l234 -338q-39 -49 -97 -80zM401 664l394 24q0 133 -47.5 205t-124.5 72q-98 0 -152 -82.5t-70 -218.5z" />
<glyph unicode="&#xe9;" horiz-adv-x="1200" d="M78 543q0 264 145.5 413.5t405.5 149.5q116 0 208 -35.5t150 -98.5t88.5 -146t30.5 -181q0 -47 -8 -104h-705q0 -213 81 -314.5t263 -101.5q81 0 166 20l62 201q55 12 116 0v-260q-192 -106 -434 -106q-173 0 -299 60.5t-198 188.5t-72 314zM401 664l394 24 q0 133 -47.5 205t-124.5 72q-98 0 -152 -82.5t-70 -218.5zM526 1274l234 338q91 -59 149 -125l-286 -293q-56 29 -97 80z" />
<glyph unicode="&#xea;" horiz-adv-x="1200" d="M78 543q0 264 145.5 413.5t405.5 149.5q116 0 208 -35.5t150 -98.5t88.5 -146t30.5 -181q0 -47 -8 -104h-705q0 -213 81 -314.5t263 -101.5q81 0 166 20l62 201q55 12 116 0v-260q-192 -106 -434 -106q-173 0 -299 60.5t-198 188.5t-72 314zM315 1274l287 340h21 l284 -340q-39 -56 -94 -80l-201 203l-202 -203q-53 24 -95 80zM401 664l394 24q0 133 -47.5 205t-124.5 72q-98 0 -152 -82.5t-70 -218.5z" />
<glyph unicode="&#xeb;" horiz-adv-x="1200" d="M78 543q0 264 145.5 413.5t405.5 149.5q116 0 208 -35.5t150 -98.5t88.5 -146t30.5 -181q0 -47 -8 -104h-705q0 -213 81 -314.5t263 -101.5q81 0 166 20l62 201q55 12 116 0v-260q-192 -106 -434 -106q-173 0 -299 60.5t-198 188.5t-72 314zM231 1399q0 56 13 123 q58 12 121 12q60 0 124 -12q13 -67 13 -121q0 -58 -13 -125q-61 -12 -122 -12t-123 12q-13 67 -13 123zM401 664l394 24q0 133 -47.5 205t-124.5 72q-98 0 -152 -82.5t-70 -218.5zM705 1399q0 61 12 123q59 12 121 12q60 0 125 -12q12 -62 12 -121q0 -63 -12 -125 q-61 -12 -123 -12t-123 12q-12 62 -12 123z" />
<glyph unicode="&#xec;" horiz-adv-x="753" d="M88 0q-9 41 0 82l145 41v823h-145q-9 52 0 103l268 49q41 8 78 8q61 0 86 -32.5t25 -106.5v-844l145 -41q9 -38 0 -82h-602zM113 1487q58 66 149 125l234 -338q-39 -49 -97 -80z" />
<glyph unicode="&#xed;" horiz-adv-x="753" d="M88 0q-9 41 0 82l145 41v823h-145q-9 52 0 103l268 49q41 8 78 8q61 0 86 -32.5t25 -106.5v-844l145 -41q9 -38 0 -82h-602zM215 1274l234 338q91 -59 149 -125l-287 -293q-54 28 -96 80z" />
<glyph unicode="&#xee;" horiz-adv-x="753" d="M66 1274l286 340h21l284 -340q-39 -56 -94 -80l-201 203l-202 -203q-51 23 -94 80zM88 0q-9 41 0 82l145 41v823h-145q-9 52 0 103l268 49q41 8 78 8q61 0 86 -32.5t25 -106.5v-844l145 -41q9 -38 0 -82h-602z" />
<glyph unicode="&#xef;" horiz-adv-x="753" d="M-16 1399q0 61 12 123q58 12 121 12q61 0 125 -12q12 -62 12 -121q0 -63 -12 -125q-62 -12 -123 -12t-123 12q-12 62 -12 123zM86 0q-9 41 0 82l145 41v823h-145q-9 52 0 103l268 49q41 8 78 8q61 0 86 -32.5t25 -106.5v-844l145 -41q9 -38 0 -82h-602zM457 1399 q0 61 12 123q58 12 121 12q60 0 125 -12q12 -62 12 -121q0 -63 -12 -125q-61 -12 -123 -12t-123 12q-12 62 -12 123z" />
<glyph unicode="&#xf0;" d="M78 514q0 248 146 384t382 136q120 0 203 -35l6 7q-33 145 -125 243l-241 -123q-35 50 -52 103l189 96v8q-146 93 -355 80q-18 67 -6 141q25 2 72 2q295 0 498 -126l231 118q34 -48 51 -102l-180 -92q146 -138 220.5 -339t74.5 -419q0 -100 -18 -188t-60 -167.5 t-105.5 -136.5t-160.5 -90.5t-219 -33.5q-273 0 -412 137t-139 397zM393 514q0 -194 62.5 -292.5t173.5 -98.5q112 0 172.5 97.5t60.5 293.5q0 182 -52.5 279.5t-178.5 97.5q-238 0 -238 -377z" />
<glyph unicode="&#xf1;" horiz-adv-x="1437" d="M88 0q-9 41 0 82l145 41v823h-145q-9 52 0 103l268 49q41 8 78 8q61 0 86 -32.5t25 -106.5v-13h8q165 152 367 152q76 0 133 -22.5t92 -60t56 -94t28.5 -116.5t7.5 -137v-553l145 -41q7 -33 0 -82h-579q-9 41 0 82l123 41v485q0 42 -1 69t-5.5 67.5t-15.5 66t-28.5 51.5 t-47 38.5t-68.5 12.5q-55 0 -114.5 -28t-100.5 -68v-694l123 -41q9 -38 0 -82h-580zM416 1227q0 116 51.5 195t142.5 79q37 0 77.5 -17.5t69.5 -38.5t63.5 -38.5t60.5 -17.5q34 0 52.5 34t20.5 80q60 12 115 0q0 -116 -47 -194t-137 -78q-46 0 -89.5 17.5t-71.5 38.5 t-60.5 38.5t-57.5 17.5q-29 0 -50 -37t-26 -79q-57 -12 -114 0z" />
<glyph unicode="&#xf2;" horiz-adv-x="1253" d="M78 543q0 268 141.5 415.5t407.5 147.5q265 0 407 -147.5t142 -415.5q0 -270 -141.5 -416.5t-407.5 -146.5q-267 0 -408 146.5t-141 416.5zM369 1487q58 66 149 125l234 -338q-39 -49 -97 -80zM393 543q0 -216 62.5 -318t171.5 -102t171 102t62 318t-62 318t-171 102 t-171.5 -102t-62.5 -318z" />
<glyph unicode="&#xf3;" horiz-adv-x="1253" d="M78 543q0 268 141.5 415.5t407.5 147.5q265 0 407 -147.5t142 -415.5q0 -270 -141.5 -416.5t-407.5 -146.5q-267 0 -408 146.5t-141 416.5zM393 543q0 -216 62.5 -318t171.5 -102t171 102t62 318t-62 318t-171 102t-171.5 -102t-62.5 -318zM516 1274l234 338 q91 -59 149 -125l-287 -293q-54 28 -96 80z" />
<glyph unicode="&#xf4;" horiz-adv-x="1253" d="M78 543q0 268 141.5 415.5t407.5 147.5q265 0 407 -147.5t142 -415.5q0 -270 -141.5 -416.5t-407.5 -146.5q-267 0 -408 146.5t-141 416.5zM332 1274l286 340h21l285 -340q-39 -56 -95 -80l-200 203l-203 -203q-51 23 -94 80zM393 543q0 -216 62.5 -318t171.5 -102 t171 102t62 318t-62 318t-171 102t-171.5 -102t-62.5 -318z" />
<glyph unicode="&#xf5;" horiz-adv-x="1253" d="M78 543q0 268 141.5 415.5t407.5 147.5q265 0 407 -147.5t142 -415.5q0 -270 -141.5 -416.5t-407.5 -146.5q-267 0 -408 146.5t-141 416.5zM301 1227q0 116 52 195t143 79q47 0 97.5 -28t95.5 -56t77 -28q34 0 53 34t21 80q60 12 114 0q0 -116 -47 -194t-137 -78 q-46 0 -89.5 17.5t-71 38.5t-60 38.5t-57.5 17.5q-29 0 -50 -37t-26 -79q-58 -12 -115 0zM393 543q0 -216 62.5 -318t171.5 -102t171 102t62 318t-62 318t-171 102t-171.5 -102t-62.5 -318z" />
<glyph unicode="&#xf6;" horiz-adv-x="1253" d="M78 543q0 268 141.5 415.5t407.5 147.5q265 0 407 -147.5t142 -415.5q0 -270 -141.5 -416.5t-407.5 -146.5q-267 0 -408 146.5t-141 416.5zM256 1399q0 61 12 123q58 12 121 12q61 0 125 -12q12 -62 12 -121q0 -63 -12 -125q-62 -12 -123 -12t-123 12q-12 62 -12 123z M393 543q0 -216 62.5 -318t171.5 -102t171 102t62 318t-62 318t-171 102t-171.5 -102t-62.5 -318zM729 1399q0 61 12 123q59 12 121 12q60 0 125 -12q12 -62 12 -121q0 -63 -12 -125q-61 -12 -123 -12t-123 12q-12 62 -12 123z" />
<glyph unicode="&#xf7;" horiz-adv-x="1327" d="M104 557q0 29 7 80h1106q6 -44 6 -80q0 -41 -6 -78h-1106q-7 44 -7 78zM520 160q0 63 15 131q75 14 129 14t133 -14q12 -67 12 -131q0 -66 -12 -131q-70 -13 -129 -13q-60 0 -133 13q-15 64 -15 131zM520 954q0 63 15 131q81 15 129 15q49 0 133 -15q12 -67 12 -131 q0 -66 -12 -131q-65 -12 -129 -12q-66 0 -133 12q-15 65 -15 131z" />
<glyph unicode="&#xf8;" horiz-adv-x="1253" d="M78 543q0 268 141.5 415.5t407.5 147.5q151 0 264 -49l84 129q41 -16 94 -62l-82 -125q189 -148 189 -456q0 -270 -141.5 -416.5t-407.5 -146.5q-152 0 -269 49l-94 -144q-41 16 -94 62l90 141q-182 141 -182 455zM393 543q0 -117 21 -209h8l358 553q-61 76 -153 76 q-109 0 -171.5 -102t-62.5 -318zM469 201q60 -78 158 -78q109 0 171 102t62 318q0 117 -20 215h-9z" />
<glyph unicode="&#xf9;" horiz-adv-x="1409" d="M51 946q-9 52 0 103l268 49q41 8 78 8q61 0 86 -32.5t25 -106.5v-500q0 -42 1.5 -70.5t6.5 -66.5t16 -62.5t28 -47.5t45.5 -34.5t66.5 -11.5q57 0 118.5 29.5t98.5 70.5v672h-146q-9 52 0 103l269 49q41 8 78 8q61 0 85.5 -32t24.5 -107v-838h146q12 -51 0 -102l-244 -41 q-34 -6 -70 -6q-143 0 -143 145v10h-8q-64 -72 -163 -113.5t-204 -41.5q-80 0 -138.5 25t-92.5 65t-53.5 104t-26 127.5t-6.5 149.5v495h-146zM397 1487q56 64 150 125l233 -338q-40 -50 -96 -80z" />
<glyph unicode="&#xfa;" horiz-adv-x="1409" d="M51 946q-9 52 0 103l268 49q41 8 78 8q61 0 86 -32.5t25 -106.5v-500q0 -42 1.5 -70.5t6.5 -66.5t16 -62.5t28 -47.5t45.5 -34.5t66.5 -11.5q57 0 118.5 29.5t98.5 70.5v672h-146q-9 52 0 103l269 49q41 8 78 8q61 0 85.5 -32t24.5 -107v-838h146q12 -51 0 -102l-244 -41 q-34 -6 -70 -6q-143 0 -143 145v10h-8q-64 -72 -163 -113.5t-204 -41.5q-80 0 -138.5 25t-92.5 65t-53.5 104t-26 127.5t-6.5 149.5v495h-146zM592 1274l233 338q94 -61 150 -125l-287 -293q-54 28 -96 80z" />
<glyph unicode="&#xfb;" horiz-adv-x="1409" d="M51 946q-9 52 0 103l268 49q41 8 78 8q61 0 86 -32.5t25 -106.5v-500q0 -42 1.5 -70.5t6.5 -66.5t16 -62.5t28 -47.5t45.5 -34.5t66.5 -11.5q57 0 118.5 29.5t98.5 70.5v672h-146q-9 52 0 103l269 49q41 8 78 8q61 0 85.5 -32t24.5 -107v-838h146q12 -51 0 -102l-244 -41 q-34 -6 -70 -6q-143 0 -143 145v10h-8q-64 -72 -163 -113.5t-204 -41.5q-80 0 -138.5 25t-92.5 65t-53.5 104t-26 127.5t-6.5 149.5v495h-146zM401 1274l287 340h21l284 -340q-39 -56 -94 -80l-201 203l-202 -203q-53 24 -95 80z" />
<glyph unicode="&#xfc;" horiz-adv-x="1409" d="M51 946q-9 52 0 103l268 49q41 8 78 8q61 0 86 -32.5t25 -106.5v-500q0 -42 1.5 -70.5t6.5 -66.5t16 -62.5t28 -47.5t45.5 -34.5t66.5 -11.5q57 0 118.5 29.5t98.5 70.5v672h-146q-9 52 0 103l269 49q41 8 78 8q61 0 85.5 -32t24.5 -107v-838h146q12 -51 0 -102l-244 -41 q-34 -6 -70 -6q-143 0 -143 145v10h-8q-64 -72 -163 -113.5t-204 -41.5q-80 0 -138.5 25t-92.5 65t-53.5 104t-26 127.5t-6.5 149.5v495h-146zM299 1399q0 61 12 123q59 12 121 12q60 0 125 -12q12 -62 12 -121q0 -63 -12 -125q-61 -12 -123 -12t-123 12q-12 62 -12 123z M772 1399q0 61 12 123q58 12 121 12q61 0 125 -12q12 -62 12 -121q0 -63 -12 -125q-62 -12 -123 -12t-123 12q-12 62 -12 123z" />
<glyph unicode="&#xfd;" horiz-adv-x="1277" d="M6 1004q-12 40 0 81h586q9 -41 0 -81l-123 -41l272 -592h9l235 592l-158 41q-9 40 0 81h453q9 -41 0 -81l-135 -41l-307 -768q-31 -78 -54.5 -132.5t-54.5 -117t-59 -104.5t-64.5 -86t-75.5 -71.5t-87 -50.5t-104 -33t-122 -10q-53 0 -102 9l-11 12v291q62 12 117 0 l41 -129q196 -21 324 204l-457 986zM592 1274l233 338q94 -61 150 -125l-287 -293q-54 28 -96 80z" />
<glyph unicode="&#xfe;" horiz-adv-x="1300" d="M59 -328l146 41v1684h-146q-9 51 0 102l269 49q41 8 78 8q61 0 85.5 -32t24.5 -107v-461h8q53 71 130 110.5t163 39.5q102 0 182 -42.5t127.5 -114.5t72 -161.5t24.5 -189.5q0 -126 -39.5 -237.5t-111 -196.5t-180 -134.5t-239.5 -49.5q-73 0 -137 12v-279l146 -41 q9 -38 0 -82h-603q-9 41 0 82zM516 119q41 -8 78 -8q67 0 121 26.5t89 70.5t59 103.5t34 122t10 129.5q0 46 -4 89.5t-16.5 95t-33 89.5t-57 63.5t-83.5 25.5q-109 0 -197 -113v-694z" />
<glyph unicode="&#xff;" horiz-adv-x="1277" d="M6 1004q-12 40 0 81h586q9 -41 0 -81l-123 -41l272 -592h9l235 592l-158 41q-9 40 0 81h453q9 -41 0 -81l-135 -41l-307 -768q-31 -78 -54.5 -132.5t-54.5 -117t-59 -104.5t-64.5 -86t-75.5 -71.5t-87 -50.5t-104 -33t-122 -10q-53 0 -102 9l-11 12v291q62 12 117 0 l41 -129q196 -21 324 204l-457 986zM297 1399q0 61 12 123q59 12 121 12q60 0 125 -12q12 -62 12 -121q0 -63 -12 -125q-61 -12 -123 -12t-123 12q-12 62 -12 123zM770 1399q0 61 12 123q58 12 121 12q61 0 125 -12q12 -62 12 -121q0 -63 -12 -125q-62 -12 -123 -12t-123 12 q-12 62 -12 123z" />
<glyph unicode="&#x152;" horiz-adv-x="2232" d="M94 727q0 365 191 566.5t514 201.5q104 0 209 -20h1093v-342q-35 -7 -61 -7q-27 0 -62 7l-71 186h-512v-477h370l52 127q50 12 100 0v-447q-53 -12 -100 0l-52 164h-370v-530h551l71 196q30 6 62 6q31 0 61 -6v-352h-1136q-102 -20 -205 -20q-329 0 -517 191.5 t-188 555.5zM422 737q0 -125 22 -229.5t68.5 -190.5t128.5 -135t193 -49q121 0 241 55v1102q-112 51 -241 51q-111 0 -192.5 -47t-128.5 -131.5t-69 -190t-22 -235.5z" />
<glyph unicode="&#x153;" horiz-adv-x="1982" d="M78 543q0 271 145 417t400 146q262 0 395 -176h8q140 176 385 176q211 0 344 -124.5t133 -336.5q0 -47 -8 -104h-704q0 -213 81 -314.5t263 -101.5q81 0 166 20l61 201q55 12 117 0v-260q-210 -106 -424 -106q-137 0 -239 38t-175 136h-8q-136 -174 -406 -174 q-252 0 -393 146.5t-141 416.5zM393 543q0 -216 62.5 -318t171.5 -102t171 102t62 318t-62 318t-171 102t-171.5 -102t-62.5 -318zM1184 664l395 24q0 131 -48.5 204t-125.5 73q-67 0 -114.5 -42t-71.5 -106.5t-35 -152.5z" />
<glyph unicode="&#x178;" horiz-adv-x="1521" d="M16 1389q-9 46 0 86h701q9 -43 0 -86l-172 -52l309 -559h8l303 559l-172 52q-9 43 0 86h512q9 -43 0 -86l-162 -52l-417 -766v-434l182 -51q9 -43 0 -86h-684q-9 43 0 86l182 51v430l-428 770zM436 1737q0 56 13 123q59 12 120 12t125 -12q13 -67 13 -123t-13 -123 q-62 -12 -123 -12t-122 12q-13 67 -13 123zM920 1737q0 61 12 123q59 12 121 12q61 0 125 -12q12 -62 12 -123t-12 -123q-62 -12 -123 -12t-123 12q-12 62 -12 123z" />
<glyph unicode="&#x2c6;" horiz-adv-x="819" d="M113 1274l286 340h21l285 -340q-39 -56 -95 -80l-200 203l-203 -203q-51 23 -94 80z" />
<glyph unicode="&#x2dc;" horiz-adv-x="819" d="M82 1227q0 116 51.5 195t142.5 79q37 0 77.5 -17.5t69.5 -38.5t63.5 -38.5t60.5 -17.5q34 0 53 34t21 80q60 12 114 0q0 -116 -47 -194t-137 -78q-46 0 -89.5 17.5t-71.5 38.5t-60.5 38.5t-57.5 17.5q-29 0 -49.5 -37t-25.5 -79q-58 -12 -115 0z" />
<glyph unicode="&#x2000;" horiz-adv-x="983" />
<glyph unicode="&#x2001;" horiz-adv-x="1966" />
<glyph unicode="&#x2002;" horiz-adv-x="983" />
<glyph unicode="&#x2003;" horiz-adv-x="1966" />
<glyph unicode="&#x2004;" horiz-adv-x="655" />
<glyph unicode="&#x2005;" horiz-adv-x="491" />
<glyph unicode="&#x2006;" horiz-adv-x="327" />
<glyph unicode="&#x2007;" horiz-adv-x="327" />
<glyph unicode="&#x2008;" horiz-adv-x="245" />
<glyph unicode="&#x2009;" horiz-adv-x="393" />
<glyph unicode="&#x200a;" horiz-adv-x="109" />
<glyph unicode="&#x2010;" horiz-adv-x="831" d="M113 608q0 40 6 84h594q6 -44 6 -82q0 -42 -6 -82h-594q-6 41 -6 80z" />
<glyph unicode="&#x2011;" horiz-adv-x="831" d="M113 608q0 40 6 84h594q6 -44 6 -82q0 -42 -6 -82h-594q-6 41 -6 80z" />
<glyph unicode="&#x2012;" horiz-adv-x="831" d="M113 608q0 40 6 84h594q6 -44 6 -82q0 -42 -6 -82h-594q-6 41 -6 80z" />
<glyph unicode="&#x2013;" horiz-adv-x="1136" d="M113 602q0 38 6 78h899q6 -41 6 -76q0 -38 -6 -76h-899q-6 38 -6 74z" />
<glyph unicode="&#x2014;" horiz-adv-x="2048" d="M113 602q0 38 6 78h1810q6 -40 6 -78q0 -36 -6 -74h-1810q-6 38 -6 74z" />
<glyph unicode="&#x2018;" horiz-adv-x="569" d="M96 1008q0 190 73 325t218 230q56 -26 84 -72q-123 -185 -123 -449q0 -32 4 -102q-72 -10 -131 -10q-61 0 -123 10q-2 23 -2 68z" />
<glyph unicode="&#x2019;" horiz-adv-x="569" d="M98 995q123 185 123 449q0 32 -4 102q72 10 131 10q61 0 123 -10q2 -23 2 -67q0 -190 -73 -325t-218 -230q-57 26 -84 71z" />
<glyph unicode="&#x201a;" horiz-adv-x="569" d="M98 -264q123 184 123 448q0 33 -4 103q72 10 131 10q61 0 123 -10q2 -23 2 -68q0 -190 -73 -325t-218 -230q-56 26 -84 72z" />
<glyph unicode="&#x201c;" horiz-adv-x="987" d="M96 1008q0 190 73 325t218 230q56 -26 84 -72q-123 -185 -123 -449q0 -32 4 -102q-72 -10 -131 -10q-61 0 -123 10q-2 23 -2 68zM514 1008q0 190 73 325t218 230q56 -26 84 -72q-123 -185 -123 -449q0 -32 4 -102q-72 -10 -131 -10q-61 0 -123 10q-2 23 -2 68z" />
<glyph unicode="&#x201d;" horiz-adv-x="987" d="M98 995q123 185 123 449q0 32 -4 102q72 10 131 10q61 0 123 -10q2 -23 2 -67q0 -190 -73 -325t-218 -230q-57 26 -84 71zM516 995q123 185 123 449q0 32 -4 102q72 10 131 10q61 0 123 -10q2 -23 2 -67q0 -190 -73 -325t-218 -230q-57 26 -84 71z" />
<glyph unicode="&#x201e;" horiz-adv-x="987" d="M98 -264q123 184 123 448q0 33 -4 103q72 10 131 10q61 0 123 -10q2 -23 2 -68q0 -190 -73 -325t-218 -230q-56 26 -84 72zM516 -264q123 184 123 448q0 33 -4 103q72 10 131 10q61 0 123 -10q2 -23 2 -68q0 -190 -73 -325t-218 -230q-56 26 -84 72z" />
<glyph unicode="&#x2022;" horiz-adv-x="880" d="M123 592q0 148 84.5 232.5t232.5 84.5t233 -84.5t85 -232.5t-85 -233t-233 -85t-232.5 85t-84.5 233z" />
<glyph unicode="&#x2026;" horiz-adv-x="2048" d="M154 143q0 75 14 144q82 14 141 14q67 0 146 -14q12 -73 12 -144q0 -73 -12 -143q-71 -12 -142 -12t-145 12q-14 66 -14 143zM893 143q0 75 14 144q82 14 142 14q66 0 145 -14q12 -73 12 -144q0 -73 -12 -143q-70 -12 -141 -12q-73 0 -146 12q-14 66 -14 143zM1632 143 q0 71 15 144q82 14 141 14q66 0 145 -14q13 -80 13 -144q0 -67 -13 -143q-71 -12 -141 -12q-72 0 -145 12q-15 70 -15 143z" />
<glyph unicode="&#x202f;" horiz-adv-x="393" />
<glyph unicode="&#x2039;" horiz-adv-x="780" d="M102 549v8l476 463q62 -38 100 -90l-311 -377l311 -379q-34 -53 -100 -90z" />
<glyph unicode="&#x203a;" horiz-adv-x="780" d="M102 174l312 379l-312 377q38 51 101 90l475 -463v-8l-475 -465q-68 38 -101 90z" />
<glyph unicode="&#x205f;" horiz-adv-x="491" />
<glyph unicode="&#x20ac;" d="M8 600q0 34 6 64h117v36q0 54 4 101h-121q-6 30 -6 61q0 34 6 64h140q39 171 143 292.5t242.5 178.5t298.5 57q212 0 383 -113v-288q-30 -6 -62 -6q-31 0 -61 6l-84 225q-74 29 -150 29q-150 0 -259 -105.5t-138 -275.5h516q6 -30 6 -64q0 -31 -6 -61h-532q-5 -82 -5 -96 v-41h537q6 -30 6 -64q0 -31 -6 -61h-526q17 -187 128.5 -296.5t276.5 -109.5q76 0 156 27l90 256q30 6 61 6q32 0 62 -6v-301q-191 -135 -447 -135q-121 0 -227.5 33t-194.5 99t-146.5 175.5t-74.5 251.5h-127q-6 30 -6 61z" />
<glyph unicode="&#x2122;" horiz-adv-x="1740" d="M61 1305v170h586v-170h-57l-31 94h-127v-486l78 -20v-51h-311v51l77 20v486h-126l-31 -94h-58zM715 842v51l73 20l46 480l-84 20v62h288l154 -447h8l170 447h283v-62l-84 -20l26 -480l84 -20v-51h-323v51l82 20l-23 433h-8l-195 -504h-120l-172 504h-9l-43 -433l86 -20 v-51h-239z" />
<glyph unicode="&#xe000;" horiz-adv-x="1085" d="M0 0v1085h1085v-1085h-1085z" />
</font>
</defs>
</svg>
