<svg width="15" height="15" xmlns="http://www.w3.org/2000/svg">
  <g fill="none" fill-rule="evenodd">
    <path d="M10.00579048 11.1652305c-.36397765-.36397766-.40172256-.91635714-.07931998-1.23875972.32017045-.32017046.87277602-.28666371 1.23875972.07931999l3.14836875 3.14836874c.3639777.3639777.40172263.91635707.07931998 1.23875972-.32017045.32017046-.87277596.28666378-1.23875972-.07931998l-3.14836875-3.14836875z" fill="#FFF"/>
    <path d="M.99264706 6.28190208c0 2.91644544 2.37396368 5.28925502 5.29718913 5.28925502h.53789097c2.92710332 0 5.29718914-2.36761853 5.29718914-5.28925502 0-2.91644544-2.3739637-5.28925502-5.29718914-5.28925502h-.53789097c-2.92710333 0-5.29718913 2.36761853-5.29718913 5.28925502z" stroke="#FFF" stroke-width="1.98529412"/>
  </g>
</svg>
