<?xml version="1.0" encoding="utf-8"?>
<!-- Generator: Adobe Illustrator 16.0.0, SVG Export Plug-In . SVG Version: 6.00 Build 0)  -->
<!DOCTYPE svg PUBLIC "-//W3C//DTD SVG 1.1//EN" "http://www.w3.org/Graphics/SVG/1.1/DTD/svg11.dtd">
<svg version="1.1" xmlns="http://www.w3.org/2000/svg" xmlns:xlink="http://www.w3.org/1999/xlink" x="0px" y="0px" width="34px"
	 height="80px" viewBox="0 0 34 80" enable-background="new 0 0 34 80" xml:space="preserve">
<g id="Layer_1" display="none">
	<path display="inline" fill="#AAAAAA" d="M8.25,8.817c0-2.978,2.423-5.4,5.4-5.4s5.4,2.423,5.4,5.4
		c0,1.231-0.419,2.363-1.115,3.272c0.452,0.217,0.886,0.472,1.297,0.767c0.825-1.137,1.318-2.53,1.318-4.039
		c0-3.805-3.096-6.9-6.9-6.9s-6.9,3.096-6.9,6.9c0,1.625,0.568,3.119,1.513,4.299c0.396-0.314,0.813-0.596,1.251-0.834
		C8.727,11.344,8.25,10.136,8.25,8.817z"/>
	<path display="inline" fill="#AAAAAA" d="M18.213,13.98c-0.443-0.306-0.923-0.564-1.442-0.764c-0.882,0.628-1.957,1.001-3.12,1.001
		c-1.072,0-2.069-0.317-2.91-0.858c-0.506,0.226-0.975,0.505-1.404,0.835c1.183,0.951,2.683,1.523,4.314,1.523
		C15.4,15.718,16.995,15.058,18.213,13.98z"/>
	<path display="inline" fill="#AAAAAA" d="M9.514,12.282c-0.438,0.238-0.854,0.52-1.251,0.834c0.317,0.397,0.677,0.759,1.073,1.078
		c0.43-0.33,0.898-0.609,1.404-0.835C10.279,13.062,9.865,12.701,9.514,12.282z"/>
	<path display="inline" fill="#AAAAAA" d="M24.744,27.18c-0.126-1.333-0.626-4.374-1.036-6.544c-0.583-3.075-1.89-5.523-3.697-7.151
		c-0.3,0.407-0.637,0.784-1.008,1.127c1.748,1.596,2.793,3.993,3.23,6.304c0.405,2.136,0.896,5.116,1.017,6.405
		c0.096,1.021-0.101,1.785-0.602,2.335c-1.203,1.321-4.056,1.431-7.123,1.431l-1.875-0.002l-1.331,0.002
		c-3.067,0-5.92-0.109-7.123-1.431c-0.501-0.55-0.697-1.313-0.602-2.335c0.121-1.289,0.611-4.27,1.017-6.405
		c0.415-2.191,1.373-4.464,2.961-6.054c-0.388-0.326-0.743-0.689-1.062-1.084c-1.642,1.623-2.825,3.967-3.373,6.858
		c-0.41,2.17-0.91,5.211-1.036,6.544c-0.135,1.445,0.196,2.618,0.986,3.485c1.615,1.774,4.816,1.921,8.232,1.921l1.331-0.002
		l1.875,0.002c3.417,0,6.617-0.146,8.232-1.921C24.548,29.798,24.879,28.626,24.744,27.18z"/>
	<path display="inline" fill="#AAAAAA" d="M16.771,13.217c0.52,0.199,0.999,0.458,1.442,0.764c0.38-0.336,0.722-0.712,1.02-1.124
		c-0.411-0.295-0.845-0.55-1.297-0.767C17.605,12.521,17.214,12.901,16.771,13.217z"/>
	<path display="inline" fill="#AAAAAA" d="M20.551,8.817c0-3.805-3.096-6.9-6.9-6.9s-6.9,3.096-6.9,6.9
		c0,1.625,0.568,3.119,1.513,4.299c0.317,0.397,0.677,0.759,1.073,1.078c1.183,0.951,2.683,1.523,4.314,1.523
		c1.75,0,3.345-0.66,4.562-1.737c0.38-0.336,0.722-0.712,1.02-1.124C20.058,11.72,20.551,10.326,20.551,8.817z M17.936,12.09
		c-0.33,0.432-0.722,0.812-1.165,1.127c-0.882,0.628-1.957,1.001-3.12,1.001c-1.072,0-2.069-0.317-2.91-0.858
		c-0.461-0.297-0.875-0.658-1.227-1.077C8.727,11.344,8.25,10.136,8.25,8.817c0-2.978,2.423-5.4,5.4-5.4s5.4,2.423,5.4,5.4
		C19.051,10.049,18.632,11.181,17.936,12.09z"/>
	<path display="inline" fill="#AAAAAA" d="M22.238,4.805c-0.656,0-1.284,0.119-1.871,0.326c0.2,0.357,0.427,0.825,0.614,1.39
		c0.399-0.128,0.816-0.216,1.257-0.216c2.276,0,4.129,1.853,4.129,4.129c0,2.277-1.853,4.13-4.129,4.13
		c-0.041,0-0.08-0.011-0.121-0.013c0.28,0.412,0.591,0.908,0.882,1.455c2.744-0.374,4.868-2.727,4.868-5.572
		C27.867,7.33,25.342,4.805,22.238,4.805z"/>
	<path display="inline" fill="#AAAAAA" d="M31.194,24.987c-0.102-1.064-0.499-3.482-0.824-5.206
		c-0.45-2.375-1.477-4.311-2.885-5.633c-0.287,0.405-0.62,0.773-0.99,1.101c1.292,1.241,2.068,3.06,2.4,4.812
		c0.313,1.652,0.71,4.061,0.805,5.067c0.072,0.765-0.071,1.332-0.438,1.733c-0.654,0.719-2.041,0.962-3.622,1.043
		c-0.024,0.427-0.096,0.956-0.262,1.513c2.092-0.08,3.94-0.39,4.993-1.545C31.029,27.15,31.306,26.18,31.194,24.987z"/>
	<path display="inline" fill="#999999" d="M8.25,54.817c0-2.978,2.423-5.4,5.4-5.4s5.4,2.423,5.4,5.4
		c0,1.231-0.419,2.363-1.115,3.272c0.452,0.217,0.886,0.472,1.297,0.767c0.825-1.137,1.318-2.53,1.318-4.039
		c0-3.805-3.096-6.9-6.9-6.9s-6.9,3.096-6.9,6.9c0,1.625,0.568,3.119,1.513,4.299c0.396-0.314,0.813-0.596,1.251-0.834
		C8.727,57.344,8.25,56.136,8.25,54.817z"/>
	<path display="inline" fill="#999999" d="M18.213,59.98c-0.443-0.306-0.923-0.564-1.442-0.764c-0.882,0.628-1.957,1.001-3.12,1.001
		c-1.072,0-2.069-0.317-2.91-0.858c-0.506,0.226-0.975,0.505-1.404,0.835c1.183,0.951,2.683,1.523,4.314,1.523
		C15.4,61.718,16.995,61.058,18.213,59.98z"/>
	<path display="inline" fill="#999999" d="M9.514,58.282c-0.438,0.238-0.854,0.52-1.251,0.834c0.317,0.397,0.677,0.759,1.073,1.078
		c0.43-0.33,0.898-0.609,1.404-0.835C10.279,59.062,9.865,58.701,9.514,58.282z"/>
	<path display="inline" fill="#FF6699" d="M24.744,73.18c-0.126-1.333-0.626-4.374-1.036-6.544c-0.583-3.075-1.89-5.523-3.697-7.151
		c-0.3,0.407-0.637,0.784-1.008,1.127c1.748,1.596,2.793,3.993,3.23,6.304c0.405,2.136,0.896,5.116,1.017,6.405
		c0.096,1.021-0.101,1.785-0.602,2.335c-1.203,1.321-4.056,1.431-7.123,1.431l-1.875-0.002l-1.331,0.002
		c-3.067,0-5.92-0.109-7.123-1.431c-0.501-0.55-0.697-1.313-0.602-2.335c0.121-1.289,0.611-4.27,1.017-6.405
		c0.415-2.191,1.373-4.464,2.961-6.054c-0.388-0.326-0.743-0.689-1.062-1.084c-1.642,1.623-2.825,3.967-3.373,6.858
		c-0.41,2.17-0.91,5.211-1.036,6.544c-0.135,1.445,0.196,2.618,0.986,3.485c1.615,1.774,4.816,1.921,8.232,1.921l1.331-0.002
		l1.875,0.002c3.417,0,6.617-0.146,8.232-1.921C24.548,75.798,24.879,74.626,24.744,73.18z"/>
	<path display="inline" fill="#999999" d="M16.771,59.217c0.52,0.199,0.999,0.458,1.442,0.764c0.38-0.336,0.722-0.712,1.02-1.124
		c-0.411-0.295-0.845-0.55-1.297-0.767C17.605,58.521,17.214,58.901,16.771,59.217z"/>
	<path id="XMLID_1_" display="inline" fill="#FF6699" d="M20.551,54.817c0-3.805-3.096-6.9-6.9-6.9s-6.9,3.096-6.9,6.9
		c0,1.625,0.568,3.119,1.513,4.299c0.317,0.397,0.677,0.759,1.073,1.078c1.183,0.951,2.683,1.523,4.314,1.523
		c1.75,0,3.345-0.66,4.562-1.737c0.38-0.336,0.722-0.712,1.02-1.124C20.058,57.72,20.551,56.326,20.551,54.817z M17.936,58.09
		c-0.33,0.432-0.722,0.812-1.165,1.127c-0.882,0.628-1.957,1.001-3.12,1.001c-1.072,0-2.069-0.317-2.91-0.858
		c-0.461-0.297-0.875-0.658-1.227-1.077c-0.787-0.938-1.264-2.146-1.264-3.465c0-2.978,2.423-5.4,5.4-5.4s5.4,2.423,5.4,5.4
		C19.051,56.049,18.632,57.181,17.936,58.09z"/>
	<path display="inline" fill="#FF6699" d="M22.238,50.805c-0.656,0-1.284,0.119-1.871,0.326c0.2,0.357,0.427,0.825,0.614,1.39
		c0.399-0.128,0.816-0.216,1.257-0.216c2.276,0,4.129,1.853,4.129,4.129c0,2.277-1.853,4.13-4.129,4.13
		c-0.041,0-0.08-0.011-0.121-0.013c0.28,0.412,0.591,0.908,0.882,1.455c2.744-0.374,4.868-2.727,4.868-5.572
		C27.867,53.33,25.342,50.805,22.238,50.805z"/>
	<path display="inline" fill="#FF6699" d="M31.194,70.987c-0.102-1.064-0.499-3.482-0.824-5.206
		c-0.45-2.375-1.477-4.311-2.885-5.633c-0.287,0.405-0.62,0.773-0.99,1.101c1.292,1.241,2.068,3.06,2.4,4.812
		c0.313,1.652,0.71,4.061,0.805,5.067c0.072,0.765-0.071,1.332-0.438,1.733c-0.654,0.719-2.041,0.962-3.622,1.043
		c-0.024,0.427-0.096,0.956-0.262,1.513c2.092-0.08,3.94-0.39,4.993-1.545C31.029,73.15,31.306,72.18,31.194,70.987z"/>
</g>
<g id="Layer_2">
	<path fill="#AAAAAA" d="M18.299,20.083v2.596c0,0.337-0.305,0.611-0.679,0.611H9.222c-0.592,0-1.15,0.234-1.55,0.637l-3.55,3.427
		c-0.142,0.142-0.321,0.216-0.521,0.216c-0.199,0-0.384-0.078-0.528-0.221c-0.144-0.144-0.219-0.325-0.219-0.526V13.654
		c0-0.338,0.305-0.612,0.679-0.612h2.854v-1.5H3.532c-1.201,0-2.179,0.946-2.179,2.112v13.168c0,0.598,0.233,1.162,0.658,1.587
		c0.43,0.425,0.993,0.66,1.589,0.66c0.597,0,1.158-0.232,1.58-0.652l3.533-3.411c0.142-0.143,0.319-0.216,0.508-0.216h8.398
		c1.202,0,2.179-0.946,2.179-2.111v-2.596H18.299z"/>
	<path fill="#AAAAAA" d="M29.425,2.5c0.949,0,1.721,0.729,1.721,1.622v19.466c0,0.484-0.189,0.94-0.526,1.278
		c-0.354,0.351-0.814,0.543-1.295,0.543c-0.482,0-0.937-0.188-1.294-0.543l-5.201-5.021c-0.489-0.49-1.133-0.761-1.813-0.761H8.6
		c-0.949,0-1.721-0.728-1.721-1.621v-7.342V8.242v-4.12C6.879,3.229,7.65,2.5,8.6,2.5h5.357h1.879H29.425 M29.425,1H15.836h-1.879
		H8.6C6.823,1,5.379,2.399,5.379,4.122v4.12v1.879v7.342c0,1.723,1.444,3.121,3.221,3.121h12.416c0.278,0,0.54,0.108,0.75,0.319
		l5.223,5.042c0.624,0.621,1.453,0.964,2.336,0.964c0.881,0,1.713-0.348,2.349-0.976c0.627-0.628,0.973-1.462,0.973-2.346V4.122
		C32.646,2.399,31.201,1,29.425,1L29.425,1z"/>
	<g>
		<path fill="#AAAAAA" d="M12.043,8.646c-0.405,0-0.736-0.33-0.736-0.738l0,0c0-0.408,0.331-0.74,0.736-0.738h13.936
			c0.408-0.002,0.739,0.33,0.739,0.738l0,0c0,0.408-0.331,0.737-0.737,0.738H12.043z"/>
		<path fill="#AAAAAA" d="M14.043,11.843c-0.405,0-0.736-0.33-0.736-0.738l0,0c0-0.408,0.331-0.738,0.736-0.738h9.936
			c0.408,0,0.739,0.33,0.739,0.738l0,0c0,0.408-0.331,0.738-0.737,0.738H14.043z"/>
		<path fill="#AAAAAA" d="M12.043,15.042c-0.405,0-0.736-0.332-0.736-0.738l0,0c0-0.41,0.331-0.74,0.736-0.738h13.936
			c0.408-0.002,0.739,0.328,0.739,0.738l0,0c0,0.406-0.331,0.738-0.737,0.738H12.043z"/>
	</g>
	<path fill="#FF6699" d="M18.299,69.083v2.596c0,0.337-0.305,0.611-0.679,0.611H9.222c-0.592,0-1.15,0.234-1.55,0.637l-3.55,3.427
		c-0.142,0.142-0.321,0.216-0.521,0.216c-0.199,0-0.384-0.078-0.528-0.221c-0.144-0.144-0.219-0.325-0.219-0.526V62.654
		c0-0.338,0.305-0.612,0.679-0.612h2.854v-1.5H3.532c-1.201,0-2.179,0.946-2.179,2.112v13.168c0,0.598,0.233,1.162,0.658,1.587
		c0.43,0.425,0.993,0.66,1.589,0.66c0.597,0,1.158-0.232,1.58-0.652l3.533-3.411c0.142-0.143,0.319-0.216,0.508-0.216h8.398
		c1.202,0,2.179-0.946,2.179-2.111v-2.596H18.299z"/>
	<path fill="#FF6699" d="M29.425,51.5c0.949,0,1.721,0.729,1.721,1.622v19.466c0,0.484-0.189,0.94-0.526,1.278
		c-0.354,0.351-0.814,0.543-1.295,0.543c-0.482,0-0.937-0.188-1.294-0.543l-5.201-5.021c-0.489-0.49-1.133-0.761-1.813-0.761H8.6
		c-0.949,0-1.721-0.728-1.721-1.621v-7.342v-1.879v-4.12c0-0.894,0.771-1.622,1.721-1.622h5.357h1.879H29.425 M29.425,50H15.836
		h-1.879H8.6c-1.776,0-3.221,1.399-3.221,3.122v4.12v1.879v7.342c0,1.723,1.444,3.121,3.221,3.121h12.416
		c0.278,0,0.54,0.108,0.75,0.319l5.223,5.042c0.624,0.621,1.453,0.964,2.336,0.964c0.881,0,1.713-0.348,2.349-0.976
		c0.627-0.628,0.973-1.462,0.973-2.346V53.122C32.646,51.399,31.201,50,29.425,50L29.425,50z"/>
	<g>
		<path fill="#FF6699" d="M12.043,57.646c-0.405,0-0.736-0.33-0.736-0.738l0,0c0-0.408,0.331-0.74,0.736-0.738h13.936
			c0.408-0.002,0.739,0.33,0.739,0.738l0,0c0,0.408-0.331,0.737-0.737,0.738H12.043z"/>
		<path fill="#FF6699" d="M14.043,60.843c-0.405,0-0.736-0.33-0.736-0.738l0,0c0-0.408,0.331-0.738,0.736-0.738h9.936
			c0.408,0,0.739,0.33,0.739,0.738l0,0c0,0.408-0.331,0.738-0.737,0.738H14.043z"/>
		<path fill="#FF6699" d="M12.043,64.042c-0.405,0-0.736-0.332-0.736-0.738l0,0c0-0.41,0.331-0.74,0.736-0.738h13.936
			c0.408-0.002,0.739,0.328,0.739,0.738l0,0c0,0.406-0.331,0.738-0.737,0.738H12.043z"/>
	</g>
</g>
<g id="Layer_3" display="none">
	<path display="inline" fill="#AAAAAA" d="M26.14,1H7.86C4.267,1,1.354,3.912,1.354,7.506V18.56v7.826
		c0,3.594,2.913,6.507,6.507,6.507h18.279c3.594,0,6.506-2.913,6.506-6.507V18.56V7.506C32.646,3.912,29.733,1,26.14,1z
		 M31.146,26.386c0,2.762-2.246,5.007-5.006,5.007H7.861c-2.761,0-5.007-2.245-5.007-5.007V18.56V7.506
		C2.854,4.744,5.101,2.5,7.86,2.5H26.14c2.761,0,5.007,2.244,5.007,5.006V18.56V26.386z"/>
	<path display="inline" fill="#AAAAAA" d="M22.646,15.824l-7.995-4.618c-0.2-0.117-0.425-0.173-0.647-0.173
		c-0.225,0-0.449,0.056-0.648,0.173c-0.401,0.232-0.647,0.659-0.647,1.122v9.235c0,0.463,0.246,0.89,0.647,1.121
		c0.199,0.117,0.424,0.174,0.648,0.174c0.223,0,0.447-0.057,0.647-0.174l7.995-4.617c0.401-0.23,0.647-0.658,0.647-1.121
		C23.294,16.482,23.048,16.055,22.646,15.824z"/>
	<path display="inline" fill="#FF6699" d="M26.14,46H7.86c-3.594,0-6.506,2.912-6.506,6.506V63.56v7.826
		c0,3.594,2.913,6.507,6.507,6.507h18.279c3.594,0,6.506-2.913,6.506-6.507V63.56V52.506C32.646,48.912,29.733,46,26.14,46z
		 M31.146,71.386c0,2.762-2.246,5.007-5.006,5.007H7.861c-2.761,0-5.007-2.245-5.007-5.007V63.56V52.506
		c0-2.762,2.246-5.006,5.006-5.006H26.14c2.761,0,5.007,2.244,5.007,5.006V63.56V71.386z"/>
	<path display="inline" fill="#FF6699" d="M22.646,60.824l-7.995-4.618c-0.2-0.117-0.425-0.173-0.647-0.173
		c-0.225,0-0.449,0.056-0.648,0.173c-0.401,0.232-0.647,0.659-0.647,1.122v9.235c0,0.463,0.246,0.89,0.647,1.121
		c0.199,0.117,0.424,0.174,0.648,0.174c0.223,0,0.447-0.057,0.647-0.174l7.995-4.617c0.401-0.23,0.647-0.658,0.647-1.121
		C23.294,61.482,23.048,61.055,22.646,60.824z"/>
</g>
<g id="Layer_4" display="none">
	<path display="inline" fill="#AAAAAA" d="M31.119,2.343v28.973H2.882V2.343H31.119 M31.119,0.843H2.882c-0.828,0-1.5,0.672-1.5,1.5
		v28.973c0,0.828,0.672,1.5,1.5,1.5h28.237c0.828,0,1.5-0.672,1.5-1.5V2.343C32.619,1.515,31.947,0.843,31.119,0.843L31.119,0.843z"
		/>
	<path display="inline" fill="#AAAAAA" d="M27.688,5.777v19.104H6.313V5.777H27.688 M29.188,4.277h-1.5H6.313h-1.5v1.5v19.104v1.5
		h1.5h21.374h1.5v-1.5V5.777V4.277L29.188,4.277z"/>
	<g display="inline">
		<path fill="#AAAAAA" d="M12.923,23.206c2.895-2.868,5.789-5.735,8.685-8.603c-0.295,0-0.59,0-0.885,0
			c2.292,2.041,4.584,4.083,6.875,6.125c0.601,0.534,1.487-0.347,0.885-0.885c-2.292-2.041-4.584-4.083-6.875-6.125
			c-0.256-0.227-0.632-0.25-0.885,0c-2.895,2.868-5.789,5.735-8.685,8.603C11.465,22.89,12.35,23.773,12.923,23.206L12.923,23.206z"
			/>
	</g>
	<g display="inline">
		<path fill="#AAAAAA" d="M6.45,22.234c2.107-2.088,4.216-4.176,6.324-6.264c-0.295,0-0.59,0-0.885,0
			c1.659,1.478,3.318,2.955,4.977,4.434c0.601,0.534,1.487-0.347,0.885-0.885c-1.659-1.478-3.318-2.955-4.977-4.434
			c-0.256-0.227-0.632-0.25-0.885,0c-2.107,2.088-4.216,4.176-6.324,6.264C4.992,21.918,5.877,22.802,6.45,22.234L6.45,22.234z"/>
	</g>
	<circle display="inline" fill="#AAAAAA" cx="16.477" cy="11.277" r="2.688"/>
	<path display="inline" fill="#FF6699" d="M31.119,48.343v28.973H2.882V48.343H31.119 M31.119,46.843H2.882
		c-0.829,0-1.5,0.672-1.5,1.5v28.973c0,0.828,0.671,1.5,1.5,1.5h28.237c0.828,0,1.5-0.672,1.5-1.5V48.343
		C32.619,47.515,31.947,46.843,31.119,46.843L31.119,46.843z"/>
	<path display="inline" fill="#FF6699" d="M27.688,51.777v19.104H6.313V51.777H27.688 M29.188,50.277h-1.5H6.313h-1.5v1.5v19.104
		v1.5h1.5h21.374h1.5v-1.5V51.777V50.277L29.188,50.277z"/>
	<g display="inline">
		<path fill="#FF6699" d="M12.922,69.206c2.895-2.868,5.79-5.735,8.685-8.603c-0.295,0-0.59,0-0.885,0
			c2.292,2.041,4.584,4.083,6.875,6.125c0.601,0.534,1.487-0.347,0.885-0.885c-2.292-2.041-4.584-4.083-6.875-6.125
			c-0.256-0.227-0.632-0.25-0.885,0c-2.895,2.868-5.789,5.735-8.684,8.603C11.465,68.89,12.35,69.773,12.922,69.206L12.922,69.206z"
			/>
	</g>
	<g display="inline">
		<path fill="#FF6699" d="M6.45,68.234c2.108-2.088,4.216-4.176,6.324-6.264c-0.294,0-0.589,0-0.884,0
			c1.659,1.478,3.318,2.955,4.977,4.434c0.6,0.534,1.487-0.347,0.884-0.885c-1.659-1.478-3.318-2.955-4.977-4.434
			c-0.255-0.227-0.631-0.25-0.884,0c-2.108,2.088-4.216,4.176-6.324,6.264C4.993,67.918,5.876,68.802,6.45,68.234L6.45,68.234z"/>
	</g>
	<circle display="inline" fill="#FF6699" cx="16.477" cy="57.277" r="2.688"/>
</g>
<g id="Layer_5" display="none">
	<path display="inline" fill="#AAAAAA" d="M24.396,2.432c0.184,0,0.367,0.07,0.508,0.211l5.717,5.716
		c0.277,0.279,0.277,0.733,0,1.013L11.078,28.913c-0.095,0.096-0.215,0.162-0.346,0.191L3.31,30.811
		c-0.052,0.011-0.106,0.019-0.16,0.019c-0.188,0-0.371-0.075-0.507-0.209c-0.175-0.177-0.246-0.428-0.191-0.667l1.706-7.425
		c0.029-0.129,0.096-0.25,0.191-0.344L23.891,2.643C24.031,2.502,24.213,2.432,24.396,2.432 M24.396,1
		c-0.574,0-1.113,0.224-1.518,0.63L3.335,21.171c-0.288,0.288-0.487,0.65-0.575,1.045l-1.705,7.416
		c-0.167,0.727,0.048,1.475,0.575,2c0.406,0.406,0.945,0.629,1.52,0.629c0.16,0,0.32-0.02,0.477-0.053l7.426-1.707
		c0.389-0.088,0.749-0.287,1.037-0.574l19.542-19.544c0.838-0.837,0.838-2.199,0-3.036L25.916,1.63C25.512,1.225,24.973,1,24.396,1
		L24.396,1z"/>
	
		<rect x="1.526" y="27.066" transform="matrix(0.7071 0.7071 -0.7071 0.7071 21.129 4.3488)" display="inline" fill="#AAAAAA" width="7.579" height="1.224"/>
	
		<rect x="18.976" y="8.245" transform="matrix(0.7071 0.7071 -0.7071 0.7071 13.3945 -14.6213)" display="inline" fill="#AAAAAA" width="10.742" height="1.226"/>
	<path display="inline" fill="#AAAAAA" d="M7.612,24.132c-0.262,0.262-0.687,0.262-0.95,0l0,0c-0.262-0.264-0.262-0.689,0-0.95
		L20.588,9.256c0.263-0.263,0.689-0.263,0.949,0l0,0c0.264,0.262,0.264,0.687,0,0.949L7.612,24.132z"/>
	<path display="inline" fill="#AAAAAA" d="M16.024,32.118c-0.369,0-0.67-0.301-0.671-0.67l0,0c0.001-0.373,0.302-0.674,0.671-0.672
		h15.818c0.371-0.002,0.672,0.299,0.672,0.672l0,0c0,0.369-0.301,0.67-0.67,0.67H16.024z"/>
	<path display="inline" fill="#AAAAAA" d="M18.932,28.241c-0.369,0-0.67-0.301-0.671-0.67l0,0c0.001-0.373,0.302-0.674,0.671-0.672
		h12.91c0.371-0.002,0.672,0.299,0.672,0.672l0,0c0,0.369-0.301,0.67-0.67,0.67H18.932z"/>
	<path display="inline" fill="#AAAAAA" d="M22.809,24.364c-0.369,0-0.67-0.301-0.67-0.67l0,0c0-0.373,0.301-0.674,0.67-0.672h9.033
		c0.371-0.002,0.672,0.299,0.672,0.672l0,0c0,0.369-0.301,0.67-0.67,0.67H22.809z"/>
	<path display="inline" fill="#AAAAAA" d="M10.081,26.599c-0.262,0.264-0.687,0.264-0.949,0l0,0c-0.262-0.262-0.262-0.688,0-0.948
		l13.925-13.926c0.262-0.262,0.688-0.262,0.949,0l0,0c0.264,0.262,0.264,0.687,0,0.95L10.081,26.599z"/>
	<path display="inline" fill="#FF6699" d="M24.396,49.171c0.184,0,0.367,0.07,0.508,0.211l5.717,5.716
		c0.277,0.279,0.277,0.733,0,1.013L11.078,75.652c-0.095,0.096-0.215,0.162-0.346,0.191L3.31,77.55
		c-0.052,0.011-0.106,0.019-0.16,0.019c-0.188,0-0.371-0.075-0.507-0.209c-0.175-0.177-0.246-0.428-0.191-0.667l1.706-7.425
		c0.029-0.129,0.096-0.25,0.191-0.344l19.542-19.542C24.031,49.241,24.213,49.171,24.396,49.171 M24.396,47.739
		c-0.574,0-1.113,0.224-1.518,0.63L3.335,67.91c-0.288,0.288-0.487,0.65-0.575,1.045l-1.705,7.416c-0.167,0.727,0.048,1.475,0.575,2
		C2.036,78.777,2.576,79,3.15,79c0.16,0,0.32-0.02,0.477-0.053l7.426-1.707c0.389-0.088,0.749-0.287,1.037-0.574l19.542-19.544
		c0.838-0.837,0.838-2.199,0-3.036l-5.717-5.717C25.512,47.964,24.973,47.739,24.396,47.739L24.396,47.739z"/>
	
		<rect x="1.526" y="73.805" transform="matrix(0.7071 0.7071 -0.7071 0.7071 54.1802 18.0399)" display="inline" fill="#FF6699" width="7.579" height="1.224"/>
	
		<rect x="18.976" y="54.984" transform="matrix(0.7071 0.7071 -0.7071 0.7071 46.4441 -0.9317)" display="inline" fill="#FF6699" width="10.742" height="1.226"/>
	<path display="inline" fill="#FF6699" d="M7.612,70.871c-0.262,0.262-0.687,0.262-0.95,0l0,0c-0.262-0.264-0.262-0.689,0-0.95
		l13.926-13.926c0.263-0.263,0.689-0.263,0.949,0l0,0c0.264,0.262,0.264,0.687,0,0.949L7.612,70.871z"/>
	<path display="inline" fill="#FF6699" d="M16.024,78.857c-0.369,0-0.67-0.301-0.671-0.67l0,0c0.001-0.373,0.302-0.674,0.671-0.672
		h15.818c0.371-0.002,0.672,0.299,0.672,0.672l0,0c0,0.369-0.301,0.67-0.67,0.67H16.024z"/>
	<path display="inline" fill="#FF6699" d="M18.932,74.98c-0.369,0-0.67-0.301-0.671-0.67l0,0c0.001-0.373,0.302-0.674,0.671-0.672
		h12.91c0.371-0.002,0.672,0.299,0.672,0.672l0,0c0,0.369-0.301,0.67-0.67,0.67H18.932z"/>
	<path display="inline" fill="#FF6699" d="M22.809,71.104c-0.369,0-0.67-0.301-0.67-0.67l0,0c0-0.373,0.301-0.674,0.67-0.672h9.033
		c0.371-0.002,0.672,0.299,0.672,0.672l0,0c0,0.369-0.301,0.67-0.67,0.67H22.809z"/>
	<path display="inline" fill="#FF6699" d="M10.081,73.338c-0.262,0.264-0.687,0.264-0.949,0l0,0c-0.262-0.262-0.262-0.688,0-0.948
		l13.925-13.926c0.262-0.263,0.688-0.263,0.949,0l0,0c0.264,0.262,0.264,0.687,0,0.949L10.081,73.338z"/>
</g>
<g id="Layer_6" display="none">
	<g display="inline">
		<g>
			<path fill="#AAAAAA" d="M8.485,14.844c-0.381,0-0.691-0.311-0.692-0.691l0,0c0.001-0.385,0.312-0.695,0.692-0.693h16.32
				c0.382-0.002,0.692,0.309,0.693,0.693l0,0c-0.001,0.381-0.311,0.691-0.692,0.691H8.485z"/>
			<path fill="#AAAAAA" d="M8.485,19.844c-0.381,0-0.691-0.311-0.692-0.691l0,0c0.001-0.385,0.312-0.695,0.692-0.693h16.32
				c0.382-0.002,0.692,0.309,0.693,0.693l0,0c-0.001,0.381-0.311,0.691-0.692,0.691H8.485z"/>
			<path fill="#AAAAAA" d="M8.485,24.844c-0.381,0-0.691-0.311-0.692-0.691l0,0c0.001-0.385,0.312-0.695,0.692-0.693h16.32
				c0.382-0.002,0.692,0.309,0.693,0.693l0,0c-0.001,0.381-0.311,0.691-0.692,0.691H8.485z"/>
		</g>
		<path fill="#AAAAAA" d="M26.09,3.213v1.516c2.616,0.16,4.702,2.318,4.702,4.975V28.6c0,2.76-2.246,5.006-5.006,5.006H7.507
			c-2.761,0-5.007-2.246-5.007-5.006V9.703c0-2.656,2.085-4.813,4.701-4.975V3.213C3.75,3.373,1,6.213,1,9.703V28.6
			c0,3.594,2.913,6.506,6.507,6.506h18.279c3.594,0,6.506-2.912,6.506-6.506V9.703C32.292,6.213,29.541,3.372,26.09,3.213z"/>
		<rect x="11.939" y="3.197" fill="#AAAAAA" width="9.412" height="1.5"/>
		<path fill="#AAAAAA" d="M9.57,1C8.814,1,8.201,1.613,8.201,2.369v3.348c0,0.756,0.613,1.369,1.369,1.369s1.369-0.613,1.369-1.369
			V2.369C10.939,1.613,10.326,1,9.57,1z"/>
		<path fill="#AAAAAA" d="M23.721,1c-0.756,0-1.369,0.613-1.369,1.369v3.348c0,0.756,0.613,1.369,1.369,1.369
			s1.369-0.613,1.369-1.369V2.369C25.09,1.613,24.477,1,23.721,1z"/>
	</g>
	<g display="inline">
		<g>
			<path fill="#FF6699" d="M8.485,57.738c-0.381,0-0.691-0.311-0.692-0.691l0,0c0.001-0.385,0.312-0.695,0.692-0.693h16.32
				c0.382-0.002,0.692,0.309,0.693,0.693l0,0c-0.001,0.381-0.311,0.691-0.692,0.691H8.485z"/>
			<path fill="#FF6699" d="M8.485,62.738c-0.381,0-0.691-0.311-0.692-0.691l0,0c0.001-0.385,0.312-0.695,0.692-0.693h16.32
				c0.382-0.002,0.692,0.309,0.693,0.693l0,0c-0.001,0.381-0.311,0.691-0.692,0.691H8.485z"/>
			<path fill="#FF6699" d="M8.485,67.738c-0.381,0-0.691-0.311-0.692-0.691l0,0c0.001-0.385,0.312-0.695,0.692-0.693h16.32
				c0.382-0.002,0.692,0.309,0.693,0.693l0,0c-0.001,0.381-0.311,0.691-0.692,0.691H8.485z"/>
		</g>
		<path fill="#FF6699" d="M26.09,46.107v1.516c2.616,0.16,4.702,2.318,4.702,4.975v18.896c0,2.76-2.246,5.006-5.006,5.006H7.507
			c-2.761,0-5.007-2.246-5.007-5.006V52.598c0-2.656,2.085-4.813,4.701-4.975v-1.516C3.75,46.268,1,49.107,1,52.598v18.896
			C1,75.088,3.913,78,7.507,78h18.279c3.594,0,6.506-2.912,6.506-6.506V52.598C32.292,49.107,29.541,46.267,26.09,46.107z"/>
		<rect x="11.939" y="46.092" fill="#FF6699" width="9.412" height="1.5"/>
		<path fill="#FF6699" d="M9.57,43.895c-0.756,0-1.369,0.613-1.369,1.369v3.348c0,0.756,0.613,1.369,1.369,1.369
			s1.369-0.613,1.369-1.369v-3.348C10.939,44.508,10.326,43.895,9.57,43.895z"/>
		<path fill="#FF6699" d="M23.721,43.895c-0.756,0-1.369,0.613-1.369,1.369v3.348c0,0.756,0.613,1.369,1.369,1.369
			s1.369-0.613,1.369-1.369v-3.348C25.09,44.508,24.477,43.895,23.721,43.895z"/>
	</g>
</g>
</svg>
