<?xml version="1.0" encoding="UTF-8"?>
<svg width="36px" height="36px" viewBox="0 0 36 36" version="1.1" xmlns="http://www.w3.org/2000/svg" xmlns:xlink="http://www.w3.org/1999/xlink">
    <!-- Generator: Sketch 52.4 (67378) - http://www.bohemiancoding.com/sketch -->
    <title>Group 4</title>
    <desc>Created with Sketch.</desc>
    <g id="Page-1" stroke="none" stroke-width="1" fill="none" fill-rule="evenodd">
        <g id="04-CONNECT-VIA" transform="translate(-16.000000, -188.000000)">
            <g id="twitter" transform="translate(16.000000, 177.000000)">
                <g id="Group-4" transform="translate(0.000000, 11.000000)">
                    <rect id="Rectangle" fill="#5FBAF4" x="0" y="0" width="36" height="36" rx="18"></rect>
                    <path d="M26.633958,13.1109575 C25.9988967,13.3853223 25.3155298,13.5697626 24.598728,13.6533994 C25.3310994,13.2272307 25.8926041,12.5539441 26.1569884,11.7499125 C25.4719247,12.1451415 24.714103,12.4313832 23.9063786,12.5848837 C23.2603388,11.9170864 22.3399342,11.5 21.3205227,11.5 C19.3652369,11.5 17.7788314,13.0382993 17.7788314,14.9371951 C17.7788314,15.2070687 17.8097711,15.4696565 17.8705525,15.7213655 C14.926695,15.5778454 12.3153888,14.2085166 10.5690953,12.1287735 C10.2637908,12.6366827 10.0893311,13.2263325 10.0893311,13.8569024 C10.0893311,15.0489771 10.7144118,16.1029212 11.6648578,16.7181211 C11.0833921,16.6999566 10.5381556,16.5463562 10.0593896,16.2874612 L10.0593896,16.3310761 C10.0593896,17.9974256 11.2805075,19.3867156 12.9014456,19.7028988 C12.6043252,19.7810464 12.291735,19.823763 11.968266,19.823763 C11.7402108,19.823763 11.5185432,19.8029037 11.3022651,19.7619836 C11.7528861,21.1285179 13.0613337,22.122479 14.6123083,22.1498256 C13.3993743,23.072925 11.8719538,23.6217544 10.2119919,23.6217544 C9.92575024,23.6217544 9.64409965,23.6053863 9.36604205,23.5736482 C10.9351812,24.5494448 12.7960512,25.1191335 14.7976468,25.1191335 C21.3141352,25.1191335 24.8776839,19.8783565 24.8776839,15.3353185 L24.8677033,14.890087 C25.5581565,14.4066301 26.1587849,13.8015105 26.633958,13.1109575 Z" id="Shape" fill="#FFFFFF" fill-rule="nonzero"></path>
                </g>
            </g>
        </g>
    </g>
</svg>