<?xml version="1.0" encoding="UTF-8"?>
<svg width="47px" height="47px" viewBox="0 0 47 47" version="1.1" xmlns="http://www.w3.org/2000/svg" xmlns:xlink="http://www.w3.org/1999/xlink">
    <!-- Generator: Sketch 54.1 (76490) - https://sketchapp.com -->
    <title>instagram</title>
    <desc>Created with Sketch.</desc>
    <defs>
        <linearGradient x1="50.000002%" y1="100.000004%" x2="50.000002%" y2="1.11022302e-14%" id="linearGradient-1">
            <stop stop-color="#FFD600" offset="0%"></stop>
            <stop stop-color="#FF0095" offset="52.71%"></stop>
            <stop stop-color="#F2069C" offset="58.02%"></stop>
            <stop stop-color="#CF14B0" offset="67.91%"></stop>
            <stop stop-color="#962CCF" offset="81.3%"></stop>
            <stop stop-color="#494DFA" offset="97.53%"></stop>
            <stop stop-color="#3F51FF" offset="99.51%"></stop>
        </linearGradient>
    </defs>
    <g id="Page-1" stroke="none" stroke-width="1" fill="none" fill-rule="evenodd">
        <g id="01-SIGN-IN" transform="translate(-277.000000, -571.000000)" fill-rule="nonzero">
            <g id="instagram" transform="translate(277.000000, 571.000000)">
                <path d="M47,23.5 C47,27.8682404 45.8077164,31.9589386 43.7311707,35.4640732 C42.4381257,37.6449661 40.8019181,39.5999527 38.8967742,41.2533722 C34.9527359,44.6767502 29.8572922,46.8081589 24.2684403,46.9874496 C24.0131302,46.9960556 23.7571029,47 23.5,47 C23.2428971,47 22.9868698,46.9960556 22.7315597,46.9874496 C17.1703186,46.8092346 12.0992585,44.6989823 8.16346745,41.3064422 C6.18373869,39.5999527 4.49195101,37.5682297 3.17093661,35.2958984 C1.15499113,31.8294906 0,27.7990341 0,23.5 C0,19.3447571 1.07825472,15.4408798 2.9704895,12.0540771 C5.92018132,6.77575684 10.8463745,2.75175471 16.7471924,0.985023521 C18.8854141,0.344238281 21.1527253,0 23.5,0 C25.8472747,0 28.1145859,0.344238281 30.2528076,0.985023521 C36.1141815,2.74028011 41.0145569,6.72304533 43.969986,11.9493713 C45.8987961,15.360199 47,19.3017273 47,23.5 Z" id="Path" fill="url(#linearGradient-1)"></path>
                <g transform="translate(12.000000, 12.000000)" fill="#FFFFFF">
                    <path d="M23.9278565,7.05254404 C23.8694458,5.77519054 23.666565,4.90286943 23.3699341,4.13968002 C23.0687256,3.33895371 22.5963135,2.61366738 21.9858398,2.01417552 C21.3865357,1.40369721 20.6610718,0.9310984 19.8603516,0.629704523 C19.0969849,0.333254495 18.2248535,0.130555183 16.9475098,0.0725103188 C15.6677857,0.0139161218 15.2589112,0 12,0 C8.74108884,0 8.33221434,0.0139161218 7.05249023,0.0721440816 C5.77514648,0.130555183 4.90301512,0.333437591 4.13964844,0.630070713 C3.33892823,0.931281542 2.61364744,1.40369721 2.01416016,2.01417552 C1.4036865,2.61348428 0.931091297,3.33877056 0.629699719,4.13949692 C0.333251953,4.90286943 0.130554187,5.77519054 0.0725097656,7.05236094 C0.0139160156,8.33227791 0,8.74097243 0,11.9999085 C0,15.2590276 0.0139160156,15.6679052 0.0725097656,16.9476391 C0.130737281,18.2248095 0.333618187,19.0971306 0.630249,19.8605031 C0.931457531,20.6610463 1.40386964,21.3865157 2.01434325,21.9858245 C2.61364744,22.5963027 3.33911133,23.0687185 4.13983153,23.3699293 C4.90301512,23.6667455 5.77532958,23.8694448 7.05267333,23.9278559 C8.33258058,23.986267 8.74127198,24 12.0001831,24 C15.2590943,24 15.6679688,23.986267 16.9476929,23.9278559 C18.2250366,23.8694448 19.097168,23.6667455 19.8605347,23.3699293 C21.4724121,22.7466335 22.7466431,21.4723928 23.3699341,19.8605031 C23.666748,19.0971306 23.8694458,18.2248095 23.9278565,16.9476391 C23.986084,15.6677221 24,15.2590276 24,12.0000915 C24,8.74097243 23.986084,8.33227791 23.9278565,7.05254404 Z M21.7677612,16.8493107 C21.7144776,18.0193635 21.5189209,18.6547444 21.3546753,19.0775381 C20.9509277,20.124177 20.1238403,20.9512707 19.0772095,21.3550213 C18.654419,21.5192682 18.019043,21.7148263 16.848999,21.7681104 C15.5839233,21.8259722 15.2043457,21.8380572 12,21.8380572 C8.7954712,21.8380572 8.41607667,21.8259722 7.15081786,21.7681104 C5.98095703,21.7148263 5.34558103,21.5192682 4.92260742,21.3550213 C4.40148928,21.162576 3.92999269,20.855872 3.5429077,20.4572484 C3.14428711,20.0701604 2.83758544,19.5988434 2.64514163,19.0775381 C2.48089598,18.6547444 2.28533934,18.0193635 2.23205569,16.8493107 C2.17437745,15.5840422 2.16210938,15.2044617 2.16210938,12.0002746 C2.16210938,8.79590449 2.17437745,8.41650707 2.23205569,7.15105555 C2.28552244,5.98100266 2.48089598,5.34562181 2.64514163,4.92282807 C2.83758544,4.40152286 3.1444702,3.93002267 3.5429077,3.54293473 C3.92999269,3.1443111 4.40148928,2.83760709 4.92279052,2.6453449 C5.34558103,2.48091491 5.98095703,2.28553987 7.151001,2.23207272 C8.41625977,2.17439404 8.79583739,2.16212587 12,2.16212587 L11.9998169,2.16212587 C15.2039795,2.16212587 15.5835571,2.17439404 16.848999,2.23225581 C18.019043,2.28553987 18.6542358,2.48109805 19.0772095,2.6453449 C19.5983276,2.83779018 20.0698242,3.14449419 20.4569092,3.54293473 C20.8555298,3.93002267 21.1622315,4.40152286 21.3544922,4.92282807 C21.5189209,5.34562181 21.7144776,5.98100266 21.7677612,7.15105555 C21.8254395,8.41632397 21.8377075,8.79590449 21.8377075,12.0000915 C21.8377075,15.2044617 21.8256225,15.5838591 21.7677612,16.8493107 Z" id="Shape"></path>
                    <path d="M11.9999109,6 C8.6862585,6 6,8.68643682 6,12.0000892 C6,15.3137415 8.6862585,18 11.9999109,18 C15.3137415,18 18,15.3137415 18,12.0000892 C18,8.68643682 15.3137415,6 11.9999109,6 Z M11.9999109,15.8947806 C9.84904991,15.8946024 8.10521937,14.1509501 8.10539769,11.9999109 C8.10539769,9.84904991 9.84904991,8.10521937 12.0000892,8.10521937 C14.1511284,8.10539769 15.8947806,9.84904991 15.8947806,11.9999109 C15.8947806,14.1509501 14.1509501,15.8947806 11.9999109,15.8947806 Z" id="Shape"></path>
                    <path d="M19,5.50009536 C19,6.32843793 18.3284379,7 17.5000954,7 C16.6715621,7 16,6.32843793 16,5.50009536 C16,4.67156207 16.6715621,4 17.5000954,4 C18.3284379,4 19,4.67156207 19,5.50009536 L19,5.50009536 Z" id="Path"></path>
                </g>
            </g>
        </g>
    </g>
</svg>