<?xml version="1.0" encoding="UTF-8"?>
<svg width="36px" height="36px" viewBox="0 0 36 36" version="1.1" xmlns="http://www.w3.org/2000/svg" xmlns:xlink="http://www.w3.org/1999/xlink">
    <!-- Generator: Sketch 52.4 (67378) - http://www.bohemiancoding.com/sketch -->
    <title>Group 5</title>
    <desc>Created with Sketch.</desc>
    <g id="Page-1" stroke="none" stroke-width="1" fill="none" fill-rule="evenodd">
        <g id="04-CONNECT-VIA" transform="translate(-16.000000, -245.000000)">
            <g id="in" transform="translate(16.000000, 234.000000)">
                <g id="Group-5" transform="translate(0.000000, 11.000000)">
                    <rect id="Rectangle" fill="#007AB9" x="0" y="0" width="36" height="36" rx="18"></rect>
                    <path d="M26.9651717,18.7858252 L26.9651717,24.9612427 L23.3289861,24.9612427 L23.3289861,19.1994175 C23.3289861,17.752 22.803051,16.7641942 21.4868724,16.7641942 C20.4821369,16.7641942 19.8842181,17.4299029 19.6211717,18.0738641 C19.5252459,18.3040777 19.5005545,18.6245049 19.5005545,18.9467573 L19.5005545,24.9612427 L15.8631462,24.9612427 C15.8631462,24.9612427 15.9121346,15.2026019 15.8631462,14.191534 L19.5001995,14.191534 L19.5001995,15.7180971 C19.4928237,15.7295146 19.483239,15.7418252 19.476297,15.7528932 L19.5001995,15.7528932 L19.5001995,15.7180971 C19.9834176,14.9853204 20.8463944,13.9385243 22.7780046,13.9385243 C25.1711392,13.9384854 26.9651717,15.4777864 26.9651717,18.7858252 Z M12.0582622,9 C10.8139095,9 10,9.80361165 10,10.8603883 C10,11.8941359 10.7903619,12.7221359 12.0099838,12.7221359 L12.0342807,12.7221359 C13.3027332,12.7221359 14.0915963,11.8942913 14.0915963,10.8603883 C14.0676937,9.80361165 13.3027332,9 12.0582622,9 Z M10.2160302,24.9612427 L13.852058,24.9612427 L13.852058,14.191534 L10.2160302,14.191534 L10.2160302,24.9612427 Z" id="LinkedIn" fill="#FFFFFF" fill-rule="nonzero"></path>
                </g>
            </g>
        </g>
    </g>
</svg>