<svg width="18" height="24" xmlns="http://www.w3.org/2000/svg" xmlns:xlink="http://www.w3.org/1999/xlink">
  <defs>
    <path id="a" d="M17.6353591 8.8021697v8.8021561H0V.00001354h17.6353591V8.8021697z"/>
  </defs>
  <g fill="none" fill-rule="evenodd">
    <g transform="translate(0 6.240564)">
      <mask id="b" fill="#fff">
        <use xlink:href="#a"/>
      </mask>
      <path d="M8.81767956 12.8853306c-1.42351262 0-2.57747557-1.1519662-2.57747557-2.57294 0-.78406955.42507999-1.41162991.90547395-1.95810881.26185117-.2978855.26290251-.53043188.28057178-.72672011.03428721-.38191231.04666588-1.56614177.04666588-1.56614177 0-.7413791.60207794-1.34239755 1.34476396-1.34239755.74268602 0 1.34476394.60101845 1.34476394 1.34239755 0 0 .0123787 1.18422946.0466659 1.56614177.0176693.19628823.0187206.42883461.2805718.72672011.4803939.5464789.9054739 1.17403926.9054739 1.95810881 0 1.4209738-1.1539629 2.57294-2.57747554 2.57294M14.2439439.00001354H3.39141521C1.51837051.00001354 0 1.51571214 0 3.38546082V14.2188921c0 1.8697148 1.51837051 3.3854473 3.39141521 3.3854473H14.2439439c1.8730447 0 3.3914152-1.5157325 3.3914152-3.3854473V3.38546082c0-1.86974868-1.5183705-3.38544728-3.3914152-3.38544728" fill="#FEFEFE" mask="url(#b)"/>
    </g>
    <path d="M5.54724969 12.7147684V5.78749999c0-2.07118279 1.46712622-3.75622147 3.27044343-3.75622147 1.80328328 0 3.27040948 1.68503868 3.27040948 3.75622147v6.92726841h2.0348492V5.78749999c0-1.52534713-.5383533-2.96450077-1.5159287-4.05238039C11.601638.61619542 10.2558906.00001016 8.81769312.00001016c-1.43823136 0-2.78394492.61618526-3.78936387 1.73510944-.97757544 1.08787962-1.51592869 2.52703326-1.51592869 4.05238039v6.92726841h2.03484913z" fill="#FEFEFE"/>
  </g>
</svg>
