<svg width="75" height="75" xmlns="http://www.w3.org/2000/svg">
  <g fill="#FF554D" fill-rule="nonzero">
    <path d="M21.4438776 55.7372449c.6728571-.4989796 16.6489285-12.0780612 32.8444897 0l2.8014796-3.7582653c-19.0406632-14.2056123-38.2599489-.1395918-38.4521938.0022959l2.8062245 3.7559694zM21.1486224 35.0142857l4.3282654-4.3285714L29.805 35.0142857l3.3142347-3.3142347-4.3282653-4.3285714 4.3282653-4.3287245L29.805 19.7285204l-4.3281122 4.3285714-4.3282654-4.3285714-3.3140816 3.3142347 4.3282653 4.3287245-4.3282653 4.3285714zM45.195 35.0142857l4.3281122-4.3285714 4.3282654 4.3285714 3.3140816-3.3142347-4.3282653-4.3285714 4.3282653-4.3287245-3.3140816-3.3142347-4.3282654 4.3285714L45.195 19.7285204l-3.3142347 3.3142347 4.3282653 4.3287245-4.3282653 4.3285714z"/>
    <path d="M10.5743878 75h53.8513775C70.2552551 75 75 70.2552551 75 64.4256122V10.5743878C75 4.74352041 70.2552551 0 64.4256122 0H10.5743878C4.7447449 0 0 4.74352041 0 10.5743878v53.8513775C0 70.2552551 4.7447449 75 10.5743878 75zM4.6875 10.5743878c0-3.24551025 2.64122449-5.8868878 5.8868878-5.8868878h53.8513775c3.2455102 0 5.8868878 2.64137755 5.8868878 5.8868878v53.8513775c0 3.2455102-2.6413776 5.8868878-5.8868878 5.8868878H10.5743878c-3.24551025 0-5.8868878-2.6413776-5.8868878-5.8868878V10.5743878z"/>
  </g>
</svg>
