<svg width="38" height="38" xmlns="http://www.w3.org/2000/svg">
  <g fill="#FEFEFE" fill-rule="evenodd">
    <path d="M18.9465946 35.3256216c-9.03141892 0-16.37902703-7.3476081-16.37902703-16.379027 0-9.03141892 7.34760811-16.37902703 16.37902703-16.37902703 9.0314189 0 16.379027 7.34760811 16.379027 16.37902703 0 9.0314189-7.3476081 16.379027-16.379027 16.379027m0-35.3256216C8.49941892 0 0 8.49941892 0 18.9465946c0 10.4471757 8.49941892 18.9465946 18.9465946 18.9465946 10.4471757 0 18.9465946-8.4994189 18.9465946-18.9465946C37.8931892 8.49941892 29.3937703 0 18.9465946 0"/>
    <path d="M26.4993257 17.4162858H20.195177V7.26078581c0-.84164865-.6886216-1.53039865-1.5303986-1.53039865-.8416487 0-1.5302703.68875-1.5302703 1.53039865V18.9465561c0 .841777.6886216 1.5303986 1.5302703 1.5303986h7.8345473c.8416486 0 1.5302702-.6886216 1.5302702-1.5303986 0-.8416487-.6886216-1.5302703-1.5302702-1.5302703"/>
  </g>
</svg>
