<svg width="15" height="15" xmlns="http://www.w3.org/2000/svg">
  <g fill="none" fill-rule="evenodd">
    <path d="M10.57774822 11.7457769c-.31908166-.31908166-.318525-.83697174.00626575-1.1617625.3225421-.3225421.8409222-.32710592 1.16176243-.00626569l2.76002246 2.76002246c.31908166.31908166.3185251.83697168-.00626567 1.16176245-.32254209.32254209-.84092228.32710597-1.16176251.00626574l-2.76002246-2.76002246z" fill="#C4CAD1"/>
    <path d="M1 6.32843469c0 2.93804873 2.3915486 5.32843471 5.33642757 5.32843471h.54187534c2.94878557 0 5.33642759-2.38515647 5.33642759-5.32843471C12.2147305 3.39038595 9.82318188 1 6.87830291 1h-.54187534C3.38764199 1 1 3.38515645 1 6.32843469z" stroke="#C4CAD1" stroke-width="2"/>
  </g>
</svg>
